<svg xmlns="http://www.w3.org/2000/svg" width="193" height="131" viewBox="0 0 193 131" fill="none">
<path fill-rule="evenodd" clip-rule="evenodd" d="M102.651 0.0181432C104.512 0.0481918 105.363 0.0982728 106.454 0.278564C107.224 0.398759 108.435 0.649164 109.155 0.839472C109.876 1.01976 110.976 1.36031 111.607 1.58067C112.237 1.81104 113.388 2.30184 114.158 2.67244C114.929 3.05305 115.989 3.62398 116.51 3.93448C117.03 4.255 117.98 4.90605 118.611 5.37681C119.241 5.85759 120.362 6.82916 121.102 7.55033C121.833 8.26148 122.803 9.30316 123.244 9.85405C123.684 10.4049 124.394 11.3765 124.805 12.0075C125.225 12.6486 125.835 13.6903 126.165 14.3313C126.496 14.9723 126.746 15.5132 126.716 15.5433C126.686 15.5633 125.575 16.4147 124.234 17.4263C122.903 18.4379 121.793 19.2492 121.773 19.2192C121.743 19.1892 121.573 18.8085 121.382 18.3678C121.192 17.9271 120.832 17.1859 120.562 16.7151C120.302 16.2444 119.842 15.5032 119.531 15.0625C119.231 14.6218 118.701 13.9206 118.361 13.51C118.01 13.0993 117.31 12.3481 116.8 11.8573C116.279 11.3565 115.479 10.6553 115.009 10.3048C114.538 9.95422 113.818 9.4534 113.408 9.19298C112.997 8.94258 112.207 8.50187 111.657 8.23143C111.106 7.95097 110.206 7.56034 109.655 7.35C109.105 7.14968 108.155 6.84919 107.554 6.68893C106.954 6.53869 105.953 6.32835 105.353 6.2382C104.642 6.12803 103.632 6.07794 102.501 6.07794C101.35 6.07794 100.37 6.12803 99.6495 6.24822C99.0491 6.33837 98.2586 6.47859 97.8984 6.55872C97.5382 6.64887 96.8678 6.82916 96.3975 6.96939C95.9272 7.10961 95.0767 7.43013 94.4964 7.67052C93.916 7.91091 93.1055 8.29152 92.6953 8.5219C92.285 8.74225 91.4946 9.23305 90.9442 9.61366C90.3939 9.98426 89.4934 10.6654 88.953 11.1261C88.4027 11.5869 87.6122 12.3381 87.192 12.8088C86.7817 13.2796 86.2314 13.9306 85.9813 14.2612C85.7211 14.5917 85.2808 15.2227 85.0007 15.6634C84.7105 16.1042 84.2202 16.9856 83.9 17.6166C83.5898 18.2476 83.2496 18.9588 82.9895 19.6198L81.6186 18.5882C80.8582 18.0173 79.7275 17.1559 77.9865 15.8137L78.6168 14.5917C78.967 13.9106 79.4874 12.9791 79.7875 12.5083C80.0777 12.0376 80.6981 11.1361 81.1684 10.5051C81.6687 9.84404 82.6593 8.72222 83.5298 7.8408C84.3903 6.98942 85.541 5.96777 86.1914 5.47697C86.8218 5.00621 87.8224 4.31509 88.4127 3.95451C89.0131 3.59393 89.9336 3.07308 90.4639 2.80265C91.0043 2.53221 91.9648 2.11153 92.5952 1.86112C93.2256 1.61072 94.2462 1.26015 94.8466 1.08988C95.4469 0.909585 96.4675 0.669196 97.0979 0.538986C97.7283 0.408775 98.6789 0.258532 99.1992 0.188419C99.7195 0.128321 100.17 0.058208 100.2 0.0281594C100.22 -0.00188917 101.33 -0.0119054 102.651 0.0181432ZM5.19281 120.223C5.8332 120.253 6.27346 120.323 6.69371 120.493C7.02391 120.623 7.5042 120.894 7.76436 121.104C8.03452 121.314 8.41475 121.745 8.62487 122.066C8.82499 122.376 9.11517 122.977 9.24524 123.388C9.46538 124.049 9.49539 124.309 9.49539 125.591C9.49539 126.803 9.45537 127.164 9.27526 127.745C9.15519 128.125 8.86502 128.736 8.62487 129.087C8.38473 129.447 7.96448 129.898 7.69431 130.109C7.41415 130.309 6.90384 130.599 6.54362 130.74C6.02331 130.95 5.72313 131 5.04272 131C4.36232 131 4.06214 130.95 3.54182 130.75C3.18161 130.609 2.75135 130.409 2.59125 130.309C2.43116 130.209 2.07094 129.878 1.81079 129.588C1.54062 129.287 1.21043 128.826 1.08035 128.546C0.95027 128.276 0.760156 127.795 0.670102 127.494C0.540024 127.094 0.5 126.583 0.5 125.591C0.5 124.85 0.55003 124.049 0.620072 123.818C0.690114 123.578 0.870222 123.107 1.02031 122.767C1.1704 122.416 1.53062 121.885 1.81079 121.585C2.09095 121.284 2.56124 120.904 2.85141 120.743C3.15159 120.583 3.59185 120.393 3.842 120.313C4.11217 120.243 4.64248 120.203 5.19281 120.223ZM2.61127 121.705C2.23104 122.046 1.92085 122.446 1.73074 122.837C1.57064 123.167 1.37052 123.778 1.28047 124.189C1.1704 124.72 1.14038 125.221 1.1704 125.892C1.21043 126.413 1.32049 127.134 1.43056 127.494C1.54062 127.855 1.76076 128.346 1.92085 128.596C2.09095 128.847 2.39113 129.197 2.60126 129.387C2.82139 129.578 3.24164 129.848 3.54182 129.988C4.0021 130.209 4.23224 130.249 4.99269 130.249C5.78317 130.249 5.97328 130.209 6.53362 129.948C6.91385 129.768 7.3441 129.468 7.59425 129.197C7.82439 128.947 8.13458 128.506 8.27466 128.226C8.42475 127.935 8.61487 127.394 8.70492 127.024C8.82499 126.513 8.85501 126.052 8.81499 125.191C8.78497 124.419 8.70492 123.858 8.56484 123.488C8.46478 123.187 8.30468 122.807 8.21463 122.636C8.13458 122.466 7.88443 122.136 7.6643 121.885C7.44416 121.635 7.01391 121.304 6.68371 121.144C6.1734 120.884 5.95327 120.844 5.14278 120.814C4.39233 120.793 4.09215 120.824 3.69191 120.974C3.41175 121.084 2.93146 121.404 2.61127 121.705ZM79.5874 120.223C80.1077 120.243 80.6481 120.343 80.9883 120.463C81.2984 120.583 81.7687 120.884 82.0789 121.154C82.3891 121.435 82.7293 121.865 82.8894 122.186C83.0395 122.486 83.1896 122.837 83.2296 122.967C83.2796 123.167 83.2496 123.187 82.9394 123.187C82.6092 123.187 82.5692 123.147 82.3491 122.667C82.219 122.376 81.9388 121.965 81.7287 121.755C81.5086 121.545 81.1584 121.284 80.9382 121.184C80.7181 121.074 80.2678 120.934 79.9376 120.874C79.6074 120.814 79.1171 120.793 78.837 120.834C78.5668 120.874 78.1165 121.004 77.8364 121.124C77.5662 121.244 77.156 121.505 76.9458 121.695C76.7257 121.885 76.4455 122.206 76.3155 122.416C76.1954 122.616 75.9652 123.137 75.8152 123.568C75.585 124.229 75.555 124.509 75.545 125.541C75.545 126.362 75.605 126.943 75.7151 127.374C75.8052 127.715 75.9953 128.205 76.1253 128.476C76.2554 128.736 76.5656 129.137 76.8057 129.357C77.0359 129.588 77.4161 129.868 77.6363 129.978C77.8564 130.089 78.3267 130.229 78.6869 130.299C79.0471 130.359 79.5674 130.379 79.8376 130.349C80.1177 130.309 80.608 130.159 80.9282 130.018C81.2684 129.858 81.6687 129.578 81.8688 129.347C82.0689 129.127 82.3291 128.726 82.4591 128.446C82.5792 128.175 82.6893 127.885 82.6893 127.825C82.6893 127.745 82.8294 127.695 83.0395 127.695C83.3397 127.695 83.3897 127.725 83.3897 127.925C83.3897 128.045 83.2696 128.396 83.1295 128.696C82.9895 128.997 82.7493 129.407 82.5892 129.598C82.4391 129.788 82.1389 130.068 81.9288 130.219C81.7087 130.369 81.2484 130.609 80.8882 130.75C80.3679 130.95 80.0677 131 79.3673 131C78.6368 131 78.3667 130.95 77.8164 130.72C77.4361 130.569 76.9358 130.289 76.6957 130.099C76.4455 129.908 76.0753 129.478 75.8652 129.147C75.6451 128.816 75.3849 128.256 75.2648 127.895C75.1247 127.434 75.0447 126.863 75.0047 125.942C74.9646 124.95 74.9947 124.459 75.1147 123.888C75.2048 123.478 75.4149 122.867 75.575 122.536C75.7351 122.206 76.0653 121.735 76.3055 121.485C76.5356 121.224 76.9358 120.904 77.186 120.753C77.4361 120.613 77.8864 120.423 78.1866 120.333C78.5568 120.233 79.0171 120.193 79.5874 120.223ZM162.237 120.283V120.984H159.335L159.285 130.95L158.635 131L158.585 121.034L155.633 120.984L155.613 120.703C155.603 120.543 155.633 120.383 155.683 120.353C155.733 120.313 157.224 120.283 162.237 120.283ZM183.75 120.283H184.45V124.089H185.981C186.812 124.089 187.702 124.139 187.952 124.199C188.203 124.259 188.603 124.429 188.853 124.59C189.103 124.75 189.443 125.1 189.623 125.361C189.793 125.621 189.994 126.022 190.064 126.242C190.134 126.463 190.194 127.024 190.194 127.494C190.184 128.135 190.124 128.496 189.954 128.947C189.794 129.347 189.553 129.718 189.213 130.058C188.823 130.439 188.543 130.619 188.052 130.78C187.462 130.98 187.232 131 183.8 130.95L183.75 120.283ZM184.45 130.249C187.552 130.139 187.752 130.109 188.203 129.888C188.483 129.748 188.853 129.447 189.033 129.217C189.213 128.987 189.403 128.606 189.463 128.376C189.523 128.135 189.553 127.605 189.533 127.194C189.503 126.703 189.413 126.302 189.283 126.042C189.163 125.822 188.943 125.521 188.793 125.371C188.633 125.221 188.323 125.02 188.102 124.93C187.792 124.79 187.342 124.74 186.091 124.71L184.47 124.67L184.45 130.249ZM192.445 120.283L192.485 122.857C192.515 124.279 192.505 126.673 192.405 130.91L191.805 130.85L191.785 125.691C191.765 122.857 191.775 120.473 191.805 120.403C191.835 120.343 191.985 120.283 192.445 120.283Z" fill="black"/>
<path fill-rule="evenodd" clip-rule="evenodd" d="M152.709 4.0011C152.799 3.99111 152.879 4.05101 152.879 4.11091C152.879 4.1808 152.949 5.78811 153.029 7.68493C153.109 9.58176 153.159 11.1392 153.149 11.1491C153.139 11.1591 152.699 11.249 152.179 11.3388C151.659 11.4287 150.649 11.6882 148.659 12.3272L147.439 9.88126C146.758 8.53351 146.058 7.1059 145.868 6.70657C145.578 6.07762 145.548 5.95782 145.678 5.87796C145.758 5.82804 146.298 5.60841 146.878 5.37879C147.459 5.15916 148.509 4.81973 149.229 4.64003C149.949 4.45034 150.979 4.2407 151.529 4.16083C152.079 4.08096 152.609 4.01108 152.709 4.0011ZM161.441 4.90958C161.661 4.96948 162.351 5.20908 162.981 5.45866C163.611 5.69826 164.581 6.12754 165.131 6.39709C165.681 6.66664 166.522 7.12587 167.002 7.41538C167.482 7.69492 167.882 7.98443 167.882 8.03435C167.882 8.08427 166.952 9.35214 165.822 10.8297C164.691 12.3072 163.731 13.5651 163.701 13.605C163.661 13.645 163.271 13.4752 162.831 13.2157C162.391 12.9561 161.691 12.6067 161.281 12.427C160.871 12.2573 160.291 12.0377 160.011 11.9478C159.681 11.838 159.48 11.7182 159.48 11.6283C159.48 11.5485 159.801 10.0709 160.181 8.35381C160.571 6.64667 160.931 5.13919 160.971 5.01939C161.051 4.81973 161.091 4.80974 161.441 4.90958ZM138.737 10.6999C138.797 10.7199 139.877 11.848 141.137 13.2057C142.398 14.5734 143.438 15.7315 143.458 15.7814C143.468 15.8313 143.158 16.2606 142.768 16.7398C142.378 17.229 141.788 18.0576 141.448 18.5967C141.107 19.1358 140.797 19.5651 140.757 19.5451C140.717 19.5251 139.267 18.9062 137.537 18.1674C135.377 17.2489 134.376 16.7697 134.376 16.6699C134.376 16.59 134.606 16.1108 134.896 15.6217C135.176 15.1325 135.677 14.3138 136.017 13.8247C136.347 13.3355 136.867 12.6366 137.167 12.2773C137.457 11.9179 137.907 11.4187 138.167 11.1491C138.417 10.8896 138.677 10.6899 138.737 10.6999ZM173.723 13.8746C173.783 13.8746 174.063 14.244 174.353 14.6932C174.643 15.1524 175.143 16.0809 175.473 16.7697C175.803 17.4586 176.253 18.5567 176.483 19.2156C176.703 19.8745 176.883 20.4835 176.883 20.5634C176.883 20.6832 176.083 20.8928 173.413 21.4918C171.492 21.9211 169.932 22.2605 169.922 22.2406C169.922 22.2206 169.792 21.8512 169.642 21.412C169.482 20.9727 169.162 20.2339 168.922 19.7647C168.682 19.2955 168.382 18.7265 167.982 18.0676L170.802 15.9711C172.353 14.813 173.673 13.8746 173.723 13.8746ZM128.905 24.4868C128.945 24.4968 134.866 28.9793 155.17 44.3736L155.18 63.5914H106.472L106.482 44.4734L117.654 34.4701C123.795 28.9693 128.855 24.4768 128.905 24.4868ZM170.422 28.5001L172.223 28.57C173.223 28.6099 174.823 28.6898 175.783 28.7497C176.743 28.8096 177.543 28.8695 177.553 28.8795C177.563 28.8895 177.513 29.3487 177.423 29.8978C177.343 30.4469 177.163 31.3853 177.013 31.9943C176.873 32.6032 176.633 33.4518 176.483 33.8911C176.333 34.3304 176.073 35.0392 175.893 35.4685C175.723 35.8878 175.553 36.2372 175.513 36.2372C175.463 36.2272 174.033 35.4984 172.333 34.5999C170.632 33.7114 169.242 32.9427 169.252 32.8828C169.272 32.8329 169.462 32.2738 169.682 31.6448C169.902 31.0159 170.152 30.0475 170.252 29.4984L170.422 28.5001ZM165.541 38.0541C165.601 38.0741 166.812 39.1623 170.792 42.8761L170.412 43.2554C170.202 43.4651 169.692 43.9143 169.282 44.2538C168.872 44.5832 168.082 45.1522 167.532 45.5216C166.982 45.881 166.092 46.4002 165.561 46.6697C164.921 46.9992 164.561 47.1389 164.501 47.069C164.441 47.0091 163.811 45.5316 163.081 43.7746C162.361 42.0175 161.801 40.5699 161.851 40.5599C161.891 40.5499 162.291 40.3203 162.731 40.0608C163.171 39.7912 163.851 39.352 164.231 39.0624C164.621 38.7829 165.041 38.4335 165.171 38.2937C165.311 38.144 165.471 38.0441 165.541 38.0541ZM1.55469 72.4765H9.65601V87.152L16.2871 87.1021L16.6772 85.9041C16.8872 85.2452 17.3373 84.147 17.6673 83.4582C17.9974 82.7693 18.5175 81.8309 18.8275 81.3617C19.1276 80.8925 19.7077 80.1138 20.1077 79.6146C20.5078 79.1154 21.2279 78.3367 21.718 77.8775C22.2081 77.4183 22.9482 76.7793 23.3582 76.4699C23.7683 76.1504 24.5384 75.6313 25.0585 75.3218C25.5786 75.0023 26.4388 74.5431 26.9588 74.2935C27.4789 74.0539 28.4291 73.6845 29.0592 73.4749C29.6893 73.2652 30.6994 72.9957 31.3095 72.8759C31.9096 72.7661 33.0098 72.6163 33.7399 72.5564C34.7401 72.4666 35.4302 72.4765 36.5104 72.5564C37.3105 72.6263 38.5107 72.796 39.1808 72.9358C39.8609 73.0755 40.8611 73.3551 41.4112 73.5447C41.9613 73.7344 42.9314 74.1338 43.5615 74.4333C44.1917 74.7427 45.0918 75.2419 45.5619 75.5414C46.032 75.8509 46.7721 76.38 47.2121 76.7194C47.6522 77.0689 48.4623 77.8076 49.0224 78.3767C49.5725 78.9457 50.2326 79.6845 50.4827 80.0139C50.7327 80.3434 51.1728 80.9723 51.4628 81.4116C51.7429 81.8509 52.243 82.7494 52.573 83.4082C52.8931 84.0671 53.3131 85.1054 53.5132 85.7044C53.7132 86.3034 53.9832 87.3417 54.1233 88.0006C54.3333 88.9689 54.3933 89.5879 54.4333 91.2451C54.4733 92.8524 54.4533 93.5513 54.3133 94.4897C54.2233 95.1486 54.0333 96.117 53.8932 96.6361C53.7632 97.1553 53.4932 98.0138 53.2931 98.5329C53.0931 99.0521 52.733 99.8807 52.493 100.38C52.243 100.879 51.7929 101.658 51.4828 102.127C51.1828 102.596 50.6527 103.335 50.3126 103.774C49.9726 104.213 49.1725 105.072 48.5424 105.671C47.9123 106.27 46.9821 107.059 46.482 107.418C45.9719 107.777 45.1418 108.307 44.6317 108.596C44.1216 108.886 43.3315 109.275 42.8614 109.475C42.3914 109.674 41.6012 109.964 41.1111 110.124C40.6111 110.293 39.6709 110.533 39.0108 110.673C38.0506 110.872 37.4105 110.942 35.8103 110.982C34.5201 111.022 33.4899 110.992 32.9098 110.922C32.4097 110.852 31.5996 110.723 31.1095 110.613C30.6094 110.513 29.7593 110.283 29.2092 110.114C28.6591 109.934 27.779 109.604 27.2589 109.375C26.7388 109.145 25.8787 108.706 25.3586 108.396C24.8385 108.097 24.0284 107.558 23.5583 107.208C23.0882 106.869 22.2381 106.13 21.668 105.581C21.0979 105.022 20.3578 104.213 20.0077 103.774C19.6676 103.335 19.2076 102.706 18.9875 102.377C18.7675 102.047 18.3574 101.348 18.0774 100.829C17.7973 100.31 17.3873 99.4214 17.1572 98.8524C16.9372 98.2933 16.6271 97.305 16.4571 96.6661C16.2971 96.0172 16.1171 95.2285 15.957 94.34H9.75603V109.515H1.55469L1.55469 72.4765ZM33.0098 82.7294C32.6198 82.8192 31.9897 83.0189 31.6096 83.1786C31.2195 83.3284 30.6694 83.6079 30.3694 83.7876C30.0793 83.9573 29.5393 84.3567 29.1792 84.6562C28.8191 84.9557 28.259 85.5147 27.939 85.9041C27.6089 86.2934 27.1689 86.9623 26.9388 87.4016C26.7088 87.8408 26.4287 88.4897 26.3087 88.8491C26.1787 89.2085 26.0287 89.8375 25.9587 90.2468C25.8787 90.716 25.8587 91.4548 25.8887 92.2435C25.9187 93.0721 26.0087 93.731 26.1487 94.2102C26.2687 94.6095 26.4988 95.2384 26.6688 95.6078C26.8388 95.9872 27.1789 96.5962 27.4389 96.9855C27.699 97.3649 28.199 97.9739 28.5591 98.3333C28.9192 98.6927 29.4993 99.1918 29.8593 99.4314C30.2194 99.671 30.8695 100.04 31.3095 100.24C31.7496 100.44 32.5097 100.709 33.0098 100.839C33.7199 101.019 34.18 101.059 35.1602 101.059C35.9403 101.059 36.6804 100.999 37.1305 100.889C37.5306 100.799 38.2107 100.599 38.6307 100.43C39.0608 100.27 39.7709 99.9106 40.211 99.6211C40.6511 99.3316 41.3212 98.8025 41.7012 98.4431C42.0713 98.0837 42.5814 97.5146 42.8114 97.1852C43.0515 96.8558 43.4315 96.2068 43.6516 95.7376C43.8716 95.2684 44.1516 94.5296 44.2617 94.0904C44.3817 93.6511 44.5017 92.8225 44.5317 92.2435C44.5717 91.4648 44.5417 90.9556 44.4117 90.2967C44.3217 89.7976 44.1116 89.0388 43.9516 88.5996C43.7916 88.1603 43.4315 87.4215 43.1415 86.9523C42.8514 86.4831 42.3213 85.7943 41.9613 85.4149C41.6012 85.0455 41.0411 84.5264 40.7111 84.2768C40.381 84.0372 39.7009 83.6379 39.2108 83.3983C38.7108 83.1587 37.9506 82.8691 37.5106 82.7493C36.9605 82.6096 36.3204 82.5297 35.4602 82.5098C34.7701 82.4898 34.1 82.4998 33.96 82.5197C33.82 82.5497 33.3899 82.6395 33.0098 82.7294ZM59.3641 84.3567H74.6666V91.345H66.8654V110.014H59.3641V84.3567Z" fill="#BD9A5F"/>
<path fill-rule="evenodd" clip-rule="evenodd" d="M52.6818 4.01411C53.2315 4.03413 54.0211 4.10421 54.4309 4.15427C54.8406 4.21434 55.5802 4.36451 56.0799 4.49465C56.5797 4.6248 57.3392 4.88509 57.779 5.06529C58.2188 5.25551 58.9584 5.65596 59.4281 5.95629C59.8978 6.25663 60.6074 6.81726 61.0172 7.2077C61.417 7.58813 61.9867 8.21884 62.8162 9.30005L63.8956 9.37013C64.4853 9.40016 65.3548 9.53031 65.8245 9.66046C66.2943 9.78059 67.0539 10.0409 67.5236 10.2411C67.9933 10.4313 68.7129 10.8218 69.1227 11.0921C69.5325 11.3624 70.1821 11.883 70.5519 12.2434C70.9317 12.6038 71.4514 13.1944 71.7213 13.5548C71.9811 13.9152 72.4608 14.6961 72.7907 15.2868C73.1705 16.0076 73.3304 16.398 73.2604 16.4381C73.2004 16.4781 72.261 17.1789 71.1816 18.0098C70.1022 18.8308 69.1827 19.5215 69.1427 19.5315C69.1027 19.5516 68.9528 19.1711 68.8029 18.6806C68.633 18.15 68.3331 17.5193 68.0333 17.0588C67.7635 16.6483 67.2537 16.0376 66.9039 15.7073C66.5441 15.3769 66.0144 14.9564 65.7146 14.7862C65.4148 14.606 64.8651 14.3457 64.4753 14.2156C64.0855 14.0754 63.4059 13.9152 62.9461 13.8652C62.3665 13.7851 61.8867 13.7851 61.307 13.8652C60.8473 13.9152 60.1877 14.0754 59.8279 14.1956C59.4681 14.3257 59.1083 14.4558 59.0283 14.4959C58.9184 14.5359 58.7385 14.2857 58.3287 13.5248C57.9289 12.7639 57.6091 12.3234 57.0794 11.8029C56.6996 11.4124 56.0899 10.8918 55.7301 10.6516C55.3703 10.4113 54.7407 10.0709 54.3309 9.90073C53.9212 9.72052 53.2815 9.51029 52.9017 9.42019C52.5319 9.32007 51.8623 9.21996 51.4125 9.18993C50.8429 9.14988 50.2932 9.17992 49.6535 9.29004C49.1538 9.38014 48.5241 9.5203 48.2643 9.6104C47.9944 9.7005 47.4747 9.92075 47.0849 10.111C46.6952 10.3012 46.0455 10.7116 45.6358 11.042C45.226 11.3724 44.6263 11.963 44.2965 12.3735C43.9767 12.774 43.5469 13.4447 43.337 13.8552C43.1271 14.2656 42.8673 14.9264 42.7474 15.3068C42.6274 15.6872 42.4975 16.418 42.4475 16.9086C42.3976 17.3992 42.3976 18.13 42.4375 18.5104C42.4875 18.8908 42.5475 19.3313 42.5775 19.4815C42.6374 19.7418 42.6074 19.7618 42.2676 19.8219C42.0577 19.8519 41.4981 19.9821 41.0183 20.1222C40.5286 20.2524 39.859 20.5026 39.5191 20.6728C39.1693 20.843 38.6196 21.1734 38.2898 21.4137C37.96 21.6439 37.3504 22.1945 36.9406 22.635C36.5308 23.0755 36.0211 23.7263 35.8112 24.0767C35.6113 24.427 35.3015 25.0678 35.1416 25.4882C34.9717 25.9187 34.7718 26.6596 34.6918 27.1401C34.6119 27.6306 34.5419 28.3114 34.5419 28.6718C34.5419 29.0322 34.6119 29.713 34.6918 30.1935C34.7718 30.6841 34.9717 31.4249 35.1416 31.8454C35.3015 32.2759 35.6113 32.9166 35.8112 33.267C36.0211 33.6174 36.5308 34.2681 36.9406 34.7086C37.3504 35.1491 37.96 35.6997 38.2898 35.94C38.6196 36.1702 39.2693 36.5507 39.739 36.7709C40.2088 36.9912 40.9184 37.2515 42.0378 37.5318V43.088H41.6879C41.4981 43.088 40.8784 42.9979 40.3187 42.8878C39.749 42.7777 38.8795 42.5574 38.3898 42.3872C37.9001 42.217 37.1305 41.9067 36.6907 41.6965C36.251 41.4862 35.4614 41.0257 34.9417 40.6753C34.422 40.3249 33.5525 39.6041 33.0028 39.0835C32.4631 38.5629 31.7335 37.752 31.3837 37.2815C31.0339 36.811 30.5042 35.96 30.2043 35.3794C29.9045 34.7987 29.4947 33.8576 29.3048 33.277C29.1149 32.6963 28.8751 31.7953 28.7851 31.2747C28.6752 30.7041 28.6052 29.7731 28.6052 28.9221C28.5952 28.1012 28.6552 27.2302 28.7351 26.8197C28.8151 26.4293 29.005 25.7385 29.1749 25.268C29.3348 24.7975 29.6047 24.1467 29.7746 23.8164C29.9345 23.486 30.2943 22.8753 30.5741 22.4648C30.844 22.0544 31.6135 21.1734 32.2832 20.5126C32.9728 19.8219 33.8723 19.041 34.392 18.7006C34.8817 18.3602 35.7013 17.8597 36.191 17.5894C37.0405 17.1188 37.0905 17.0688 37.1605 16.6984C37.1904 16.4781 37.3004 15.8174 37.3903 15.2067C37.4803 14.596 37.7002 13.725 37.8601 13.2545C38.03 12.784 38.3198 12.0832 38.5097 11.7028C38.7096 11.3223 39.1094 10.6215 39.4192 10.151C39.719 9.68048 40.3887 8.86957 40.8884 8.34898C41.3981 7.8284 42.2376 7.09758 42.7474 6.72716C43.2671 6.35674 44.1366 5.82615 44.6863 5.55584C45.236 5.28554 46.0455 4.94516 46.4853 4.805C46.925 4.65483 47.7346 4.4446 48.2843 4.33447C48.834 4.22435 49.8234 4.0942 50.4831 4.05416C51.1427 4.0041 52.1321 3.98408 52.6818 4.01411ZM50.633 23.8664H54.6308L54.6408 30.5239L52.7618 31.9855C51.7324 32.7864 50.8229 33.4672 50.7629 33.5073C50.663 33.5673 50.633 32.5762 50.633 28.7219V23.8664ZM75.9589 24.4871C76.0289 24.5071 82.0255 29.0022 102.494 44.4395L102.504 63.6111H49.7335L49.7235 44.4395L62.7862 34.4483C69.9722 28.9521 75.8989 24.4671 75.9589 24.4871ZM97.1072 72.5211V79.1285H87.7124V110.063H80.6163V79.1285H56.2299L55.5702 78.1474C55.2004 77.6168 54.7207 76.9461 54.4908 76.6758C54.271 76.3954 53.7512 75.7948 53.3315 75.3343C52.9217 74.8737 52.1321 74.1129 51.5824 73.6423C51.0328 73.1718 50.513 72.7213 50.4331 72.6512C50.3132 72.5411 54.261 72.5211 97.1072 72.5211ZM108.541 72.5211H116.247L122.733 90.6615C126.301 100.643 129.299 109.022 129.589 109.763H120.944L118.395 101.954L106.552 102.004L104.153 109.763H95.508L95.7379 109.132C95.8678 108.792 98.7962 100.412 102.254 90.5113L108.541 72.5211ZM111.409 82.7125C111.349 82.9228 110.66 85.7159 109.86 88.9195C109.061 92.1231 108.401 94.8161 108.401 94.8962C108.401 95.0364 108.921 95.0464 112.449 95.0464C115.617 95.0464 116.496 95.0264 116.496 94.9263C116.496 94.8562 115.817 91.9429 114.987 88.439C114.168 84.9451 113.468 82.0118 113.438 81.9116C113.408 81.7615 113.278 81.7314 112.708 81.7314C112.059 81.7314 111.999 81.7615 111.759 82.0318C111.619 82.202 111.459 82.5023 111.409 82.7125ZM134.037 72.5211L134.227 72.9015C134.326 73.1118 135.136 74.8537 136.016 76.7759C137.145 79.2587 138.044 81.4311 140.553 88.0886L141.163 88.1186C141.732 88.1386 141.802 88.1186 142.062 87.8483C142.242 87.6481 143.321 85.1553 148.529 72.5311H153.006C157.214 72.5311 157.474 72.5411 157.424 72.7013C157.384 72.8014 153.596 81.1808 140.633 109.773H136.365C132.338 109.773 132.088 109.753 132.138 109.593C132.158 109.493 133.347 106.87 137.355 98.0998L131.178 85.3355C127.77 78.3176 124.992 72.5611 124.992 72.5511C124.992 72.5411 127.031 72.5211 134.037 72.5211ZM162.171 72.5211H170.267V87.3377L183.409 87.2877L183.459 72.5211H191.555V109.763H183.459V95.0464H170.267V109.763H162.171V72.5211ZM67.4236 118.072C67.5136 118.262 67.7235 118.533 67.8834 118.653C68.1033 118.833 68.3032 118.883 68.7029 118.883C69.1227 118.883 69.2826 118.823 69.5425 118.603C69.7124 118.453 69.9123 118.182 69.9922 118.002C70.0922 117.752 70.1721 117.692 70.322 117.722C70.432 117.752 70.5219 117.842 70.5219 117.922C70.5219 118.012 70.462 118.222 70.382 118.403C70.312 118.583 70.1222 118.853 69.9622 118.993C69.8023 119.143 69.5525 119.314 69.4025 119.374C69.2426 119.434 68.9328 119.474 68.7029 119.474C68.4631 119.474 68.0833 119.374 67.8334 119.254C67.5836 119.133 67.3137 118.913 67.2337 118.773C67.1438 118.643 67.0239 118.373 66.9639 118.172C66.854 117.852 66.854 117.822 67.0539 117.772C67.2138 117.722 67.2937 117.782 67.4236 118.072ZM15.5425 120.175C15.6624 120.175 16.1521 121.406 17.5813 125.31C18.6108 128.134 19.4803 130.546 19.5003 130.666C19.5403 130.867 19.5103 130.897 18.9006 130.897L17.3615 126.662C16.5219 124.339 15.7623 122.277 15.6824 122.077C15.5725 121.816 15.5225 121.766 15.4625 121.877C15.4125 121.967 14.663 124.049 12.2043 130.997H11.8845C11.6846 130.997 11.5547 130.937 11.5547 130.867C11.5547 130.797 12.4142 128.364 13.4636 125.461C14.9128 121.486 15.4225 120.175 15.5425 120.175ZM177.053 120.205C177.163 120.225 177.782 121.786 179.132 125.491C180.181 128.374 181.051 130.777 181.051 130.817C181.061 130.857 180.901 130.877 180.341 130.837L178.722 126.261C177.842 123.739 177.093 121.676 177.063 121.676C177.033 121.686 176.293 123.749 173.815 130.837L173.435 130.867C173.225 130.877 173.055 130.847 173.045 130.777C173.035 130.716 173.865 128.384 174.884 125.601C175.913 122.808 176.783 120.445 176.823 120.355C176.863 120.255 176.963 120.185 177.053 120.205ZM22.2487 120.375H22.8484L22.8284 124.69C22.8084 127.052 22.8184 128.995 22.8484 128.995C22.8784 128.995 24.2476 127.062 25.8967 124.69C27.8956 121.816 28.955 120.385 29.075 120.385C29.2349 120.385 29.2449 120.695 29.2449 130.887H28.5452L28.4953 122.087L25.477 126.492C23.8079 128.914 22.4087 130.887 22.3487 130.887C22.2787 130.887 22.2487 129.075 22.2487 125.631V120.375ZM32.7629 120.395C32.8229 120.415 33.6724 121.806 34.6519 123.478C35.6413 125.16 36.4808 126.572 36.5208 126.612C36.5608 126.652 37.2804 125.511 38.1299 124.059C38.9795 122.617 39.819 121.196 40.0089 120.905C40.1888 120.615 40.3887 120.375 40.4386 120.375C40.5086 120.375 40.5386 122.217 40.5386 130.987H40.0389V126.782C40.0389 124.079 39.9989 122.567 39.9389 122.527C39.8889 122.507 39.1494 123.669 38.2998 125.11C37.4503 126.552 36.7207 127.753 36.6707 127.773C36.6308 127.783 35.8812 126.602 35.0217 125.14C34.1521 123.679 33.4025 122.477 33.3426 122.477C33.2826 122.477 33.2426 123.969 33.2426 130.987L32.593 130.937L32.563 125.781C32.553 122.948 32.563 120.575 32.603 120.495C32.633 120.425 32.7029 120.375 32.7629 120.395ZM44.2365 120.375H50.8329V130.987H50.2332V121.076H44.9361L44.8862 130.937L44.2365 130.987V120.375ZM54.5308 120.375H55.1305L55.1805 129.025L58.1788 124.7C60.1877 121.806 61.2371 120.385 61.357 120.385C61.5169 120.385 61.5269 120.695 61.5269 130.887H60.8273L60.7773 122.087L57.759 126.492C56.0899 128.914 54.6907 130.887 54.6308 130.887C54.5608 130.887 54.5308 129.075 54.5308 125.631V120.375ZM65.025 120.375H65.7446L65.7146 124.68C65.6946 127.052 65.7046 128.985 65.7546 128.985C65.7946 128.985 67.0039 127.293 68.4431 125.21C69.8823 123.128 71.2315 121.196 71.4414 120.905C71.6513 120.615 71.8712 120.375 71.9212 120.375C71.9911 120.375 72.0211 122.217 72.0211 130.987L71.3715 130.937L71.2715 122.157L68.2232 126.572C66.5441 129.005 65.1449 130.997 65.1049 130.997C65.055 130.997 65.025 128.604 65.025 125.681V120.375ZM86.1133 120.375H86.8129V125.531L87.6624 125.461C88.1321 125.421 88.6618 125.33 88.8417 125.25C89.0117 125.18 89.2815 124.98 89.4414 124.8C89.6113 124.6 89.8212 124.119 90.0111 123.508C90.171 122.968 90.3709 122.287 90.4509 121.977C90.5308 121.676 90.7007 121.276 90.8306 121.076C90.9606 120.885 91.2204 120.655 91.4103 120.555C91.6102 120.455 91.99 120.385 92.2898 120.385C92.7995 120.385 92.8095 120.385 92.8095 120.675C92.8095 120.966 92.7896 120.976 92.3598 120.976C92.01 120.976 91.8401 121.046 91.6002 121.256C91.4303 121.406 91.2404 121.706 91.1605 121.927C91.0905 122.147 90.8706 122.848 90.6707 123.478C90.4808 124.119 90.211 124.8 90.0711 125.01C89.9311 125.22 89.8112 125.431 89.8112 125.481C89.8112 125.541 90.5308 126.752 91.4103 128.184C92.2898 129.615 93.0094 130.817 93.0094 130.837C93.0094 130.867 92.8395 130.897 92.2598 130.897L90.7107 128.364C89.4414 126.312 89.1116 125.841 88.9617 125.871C88.8517 125.881 88.332 125.931 86.8628 126.031L86.8129 130.887H86.1133V120.375ZM95.608 120.375H96.2077L96.2576 129.025L99.256 124.7C101.255 121.823 102.314 120.385 102.434 120.385C102.594 120.385 102.604 120.695 102.604 130.887H101.904L101.855 122.097L98.8362 126.492C97.1671 128.914 95.7679 130.887 95.7079 130.887C95.638 130.887 95.608 129.075 95.608 125.631V120.375ZM106.002 120.375H111.199V121.076H106.702V125.18H110.999V125.781H106.702V130.286H111.299L111.249 130.937L106.002 130.987V120.375ZM118.605 120.365L119.245 120.425L119.295 125.531L120.074 125.461C120.494 125.421 121.014 125.34 121.224 125.29C121.484 125.22 121.684 125.06 121.903 124.76C122.063 124.53 122.313 123.979 122.443 123.528C122.573 123.088 122.773 122.407 122.883 122.007C123.013 121.576 123.213 121.146 123.373 120.956C123.532 120.775 123.792 120.575 123.952 120.505C124.112 120.425 124.472 120.385 124.742 120.405C125.202 120.425 125.242 120.445 125.272 120.705C125.292 120.966 125.272 120.976 124.892 120.976C124.672 120.976 124.362 121.046 124.192 121.126C124.032 121.216 123.822 121.416 123.742 121.576C123.662 121.746 123.433 122.427 123.243 123.078C123.053 123.739 122.803 124.479 122.683 124.71C122.563 124.94 122.403 125.21 122.333 125.31C122.213 125.471 122.363 125.771 123.792 128.084C124.672 129.515 125.391 130.737 125.391 130.787C125.391 130.847 125.232 130.877 125.022 130.867C124.662 130.847 124.652 130.837 123.123 128.334C121.963 126.442 121.554 125.841 121.414 125.871C121.324 125.891 120.804 125.921 119.295 125.981V130.887H118.595L118.605 120.365ZM127.89 120.385H129.559C130.479 120.385 131.528 120.435 131.888 120.485C132.268 120.545 132.717 120.705 132.987 120.865C133.297 121.056 133.517 121.296 133.727 121.686C133.937 122.077 134.027 122.417 134.067 122.888C134.097 123.308 134.057 123.739 133.947 124.109C133.827 124.52 133.667 124.8 133.387 125.09C133.167 125.31 132.987 125.511 132.987 125.541C132.987 125.571 133.047 125.591 133.137 125.591C133.217 125.591 133.447 125.731 133.647 125.911C133.847 126.091 134.097 126.422 134.217 126.642C134.35 126.909 134.433 127.309 134.466 127.843C134.496 128.414 134.466 128.784 134.346 129.145C134.257 129.415 134.037 129.825 133.857 130.046C133.657 130.276 133.287 130.546 132.977 130.686C132.458 130.917 132.318 130.937 127.89 130.997V120.385ZM128.59 125.19C131.028 125.19 131.918 125.14 132.138 125.07C132.358 125.01 132.677 124.82 132.847 124.65C133.017 124.479 133.207 124.159 133.267 123.939C133.337 123.719 133.377 123.338 133.377 123.088C133.377 122.838 133.307 122.457 133.227 122.237C133.147 122.017 133.007 121.746 132.907 121.646C132.817 121.536 132.557 121.376 132.338 121.276C131.998 121.116 131.668 121.086 130.259 121.086H128.59V125.19ZM128.69 130.296C131.938 130.236 132.308 130.196 132.677 130.036C132.917 129.926 133.247 129.695 133.397 129.515C133.557 129.335 133.737 129.005 133.797 128.764C133.857 128.534 133.877 128.104 133.847 127.813C133.807 127.523 133.717 127.162 133.647 127.012C133.567 126.862 133.377 126.622 133.217 126.472C133.057 126.322 132.757 126.121 132.537 126.021C132.228 125.891 131.758 125.841 130.419 125.811L128.71 125.761L128.69 130.296ZM140.623 120.415C140.683 120.445 141.662 122.808 142.802 125.681C144.271 129.365 144.841 130.917 144.751 130.957C144.691 130.987 144.521 130.997 144.381 130.987C144.161 130.957 144.071 130.777 142.932 127.893L138.134 127.903L137.535 129.425C136.945 130.937 136.935 130.957 136.605 130.977C136.405 130.997 136.285 130.957 136.285 130.877C136.285 130.807 137.195 128.474 138.314 125.691C139.434 122.918 140.383 120.585 140.423 120.505C140.473 120.435 140.563 120.395 140.623 120.415ZM138.484 127.223C138.484 127.263 139.454 127.293 140.633 127.293C142.632 127.293 142.782 127.283 142.722 127.122C142.692 127.022 142.232 125.791 141.702 124.369C141.163 122.948 140.673 121.786 140.613 121.786C140.553 121.786 140.053 122.998 139.494 124.469C138.934 125.941 138.484 127.183 138.484 127.223ZM149.608 120.405C151.597 120.445 151.757 120.465 152.267 120.695C152.566 120.835 152.966 121.116 153.176 121.336C153.376 121.556 153.646 122.007 153.766 122.337C153.946 122.798 154.006 123.158 154.006 123.839C154.012 124.446 153.959 124.913 153.846 125.24C153.756 125.521 153.506 125.971 153.296 126.241C153.036 126.582 152.726 126.842 152.326 127.042C151.747 127.343 151.727 127.353 148.079 127.393V130.997L147.429 130.947L147.399 125.791C147.389 122.958 147.399 120.575 147.439 120.505C147.489 120.395 147.889 120.375 149.608 120.405ZM148.129 126.642C150.378 126.692 151.247 126.662 151.527 126.602C151.837 126.542 152.177 126.372 152.426 126.161C152.656 125.971 152.926 125.601 153.066 125.29C153.266 124.85 153.316 124.58 153.306 123.889C153.306 123.238 153.256 122.928 153.086 122.537C152.966 122.267 152.746 121.917 152.596 121.756C152.446 121.596 152.147 121.386 151.927 121.276C151.587 121.126 151.267 121.096 149.798 121.096L148.079 121.086L148.129 126.642ZM167.028 120.385C167.108 120.385 167.178 120.445 167.208 120.515C167.228 120.585 168.148 122.928 169.257 125.721C170.356 128.514 171.266 130.847 171.266 130.897C171.266 130.957 171.116 130.987 170.936 130.977C170.616 130.957 170.606 130.927 169.397 127.943L164.52 127.893L163.32 130.947L162.971 130.987C162.661 131.017 162.631 131.007 162.701 130.837C162.741 130.737 163.7 128.344 164.84 125.521C166.139 122.287 166.948 120.385 167.028 120.385ZM165.899 124.54C165.369 125.911 164.939 127.102 164.949 127.173C164.959 127.273 165.429 127.293 167.068 127.293C168.677 127.293 169.167 127.273 169.167 127.173C169.167 127.102 168.707 125.901 168.158 124.489C167.608 123.088 167.118 121.897 167.078 121.847C167.038 121.796 166.978 121.816 166.938 121.897C166.898 121.977 166.439 123.168 165.899 124.54Z" fill="black"/>
</svg>