<svg xmlns="http://www.w3.org/2000/svg" width="237" height="51" viewBox="0 0 237 51" fill="none">
  <path fill-rule="evenodd" clip-rule="evenodd" d="M212.961 0.0347908C213.54 0.127566 214.425 0.436818 214.912 0.715145C215.4 0.993471 216.071 1.6429 216.437 2.10678C216.864 2.72528 217.077 3.43656 217.077 4.42617C217.077 5.41577 216.864 6.1889 216.376 6.90018C216.01 7.42591 215.248 8.13719 214.699 8.41551C214.181 8.69384 213.113 8.91032 212.351 8.91032C211.497 8.91032 210.552 8.66292 209.82 8.26089C209.211 7.88979 208.54 7.27128 208.326 6.86926C208.143 6.49815 207.869 5.84872 207.747 5.41577C207.625 4.98282 207.656 4.11691 207.808 3.46749C207.96 2.84898 208.387 1.98308 208.784 1.55012C209.15 1.11717 210.003 0.560519 210.674 0.313117C211.375 0.0347908 212.351 -0.0579847 212.961 0.0347908ZM208.845 2.72528C208.601 3.18916 208.387 4.08599 208.387 4.73542C208.418 5.63225 208.662 6.12705 209.546 7.02388C210.552 8.04441 210.857 8.16811 212.199 8.16811C213.052 8.19904 213.937 8.04441 214.181 7.88979C214.486 7.68362 214.516 7.58053 214.272 7.58053C214.059 7.58053 213.327 6.99296 212.656 6.25075L211.467 4.95189C211.436 7.20943 211.314 7.58053 210.979 7.58053C210.613 7.58053 210.522 7.05481 210.522 4.64264C210.522 3.00361 210.644 1.6429 210.827 1.55012C210.979 1.45735 211.772 1.5192 212.595 1.70475C213.388 1.85938 214.12 2.16863 214.242 2.3851C214.364 2.60158 214.486 3.03453 214.486 3.34378C214.486 3.62211 214.303 4.05506 214.12 4.27154C213.906 4.48802 213.51 4.73542 213.266 4.85912C212.9 4.98282 213.052 5.26115 213.876 6.15798C214.455 6.77648 215.034 7.27128 215.187 7.27128C215.309 7.27128 215.614 6.83833 215.858 6.34353C216.102 5.84872 216.315 4.98282 216.315 4.48802C216.315 3.96229 216.102 3.15823 215.858 2.63251C215.614 2.10678 214.973 1.48827 214.486 1.24087C213.998 0.993471 212.991 0.776995 212.26 0.776995C211.558 0.776995 210.613 1.0244 210.156 1.33365C209.698 1.61197 209.119 2.23048 208.845 2.72528ZM212.138 4.17876C212.504 4.20969 213.022 3.96229 213.266 3.68396C213.662 3.25101 213.662 3.12731 213.113 2.75621C212.778 2.50881 212.26 2.32325 211.955 2.32325C211.589 2.32325 211.436 2.57066 211.436 3.25101C211.436 3.99321 211.558 4.17876 212.107 4.17876H212.138ZM0.5 34.4545L4.2199 34.6401L4.98217 36.0317C5.37855 36.8048 6.44574 38.5366 7.32997 39.8973C8.2447 41.2581 9.46434 42.8662 10.0742 43.4537C10.6535 44.0413 11.1413 44.6289 11.1413 44.7526C11.1413 44.9072 10.4705 45 9.6168 45C8.21421 45 7.97028 44.8763 6.53721 43.5156C5.68346 42.7115 4.37235 41.2271 3.67106 40.2066C2.96977 39.1861 1.93307 37.4852 1.41473 36.4028L0.5 34.4545ZM216.376 34.4854L236.348 34.6401L236.5 45H226.895C221.62 45 217.077 44.9381 216.833 44.8454C216.437 44.7217 216.376 43.8558 216.376 39.5881V34.4854Z" fill="#1F4C95"/>
  <path fill-rule="evenodd" clip-rule="evenodd" d="M20.8145 0.122688C23.5575 0.214705 24.0756 0.306721 25.9957 1.22688C27.5805 1.99369 28.7387 2.91385 30.5673 4.75417C32.335 6.56383 33.3103 7.88272 34.1332 9.53902C34.7732 10.7966 35.5657 13.005 35.9314 14.4465C36.48 16.6549 36.5714 17.6364 36.419 20.7343C36.3581 22.7587 36.0533 25.1204 35.8095 25.9486C35.5352 26.8074 34.8647 28.157 34.3161 29.0158C33.7675 29.8439 32.7617 30.8561 32.0912 31.2242C31.3902 31.6229 30.354 31.9296 29.653 31.9296C28.952 31.9296 27.7634 31.6229 26.91 31.1935C26.0871 30.7641 24.868 29.8746 24.228 29.1998C23.6185 28.4944 22.7651 27.2982 22.3689 26.5007C21.9727 25.6725 21.485 24.2616 21.3326 23.3415C21.1498 22.4213 21.0888 21.0717 21.2107 20.3356C21.3326 19.6301 21.4545 19.0474 21.5155 19.0474C21.546 19.0474 22.0946 19.3848 22.7346 19.8142C23.3442 20.2436 24.2585 20.673 24.7766 20.7957C25.3861 20.9184 26.0262 20.7957 26.7576 20.3969C27.3367 20.0595 28.0682 19.3234 28.3425 18.7406C28.6473 18.1272 28.8911 16.9923 28.8911 16.1335C28.8911 15.3054 28.7692 14.1092 28.5863 13.5264C28.4339 12.9436 27.7024 11.8701 27.0015 11.1646C26.27 10.4592 25.1728 9.66171 24.5633 9.38566C23.9232 9.14028 22.6127 8.92558 21.6679 8.92558C20.3269 8.92558 19.4735 9.14028 18.0715 9.81507C16.8829 10.3978 15.5724 11.4407 14.3533 12.7289C13.1037 14.0171 12.0674 15.5507 11.3969 16.9923C10.8179 18.1885 10.1778 19.8142 10.0255 20.581C9.84259 21.3478 9.6902 23.6482 9.6902 25.7339C9.6902 27.7889 9.84259 30.212 10.0255 31.1015C10.2083 31.9603 10.7569 33.5246 11.2141 34.5368C11.7017 35.5489 12.738 37.2666 13.5304 38.3708C14.3228 39.475 15.8771 41.3153 16.9743 42.4808C18.0715 43.6157 19.7478 45.18 20.6621 45.8854C21.5765 46.6216 23.4356 47.7871 24.7766 48.5232C26.1176 49.2594 28.0987 50.0875 29.1958 50.3636C30.293 50.6703 30.9635 50.9463 30.7197 50.977C30.4759 51.0077 29.714 51.0077 29.0435 50.977C28.373 50.9463 26.7272 50.7009 25.3861 50.4249C24.0451 50.1795 21.9727 49.6274 20.8145 49.198C19.6564 48.7993 17.7972 47.9711 16.7 47.3884C15.6028 46.7749 13.8656 45.5787 12.7989 44.6892C11.7322 43.8304 10.2083 42.2968 9.4159 41.2846C8.62348 40.2724 7.55677 38.8309 7.03865 38.064C6.52053 37.2972 5.69764 35.8557 5.20999 34.8435C4.69188 33.8313 3.89946 31.8376 3.41182 30.396C2.64988 28.0343 2.55845 27.3595 2.55845 23.3415C2.52797 19.9062 2.68036 18.4032 3.10704 16.747C3.41182 15.5814 4.1128 13.5571 4.63092 12.2995C5.17952 11.0419 6.1548 9.17095 6.82531 8.15877C7.52629 7.14659 8.8673 5.52097 9.87306 4.53947C10.8483 3.55796 12.4941 2.33108 13.4999 1.80965C14.5057 1.28823 15.8771 0.644114 16.5477 0.429409C17.3096 0.184032 18.8944 0.0613442 20.8145 0.122688ZM60.4963 0.0306721C62.7517 0.0306721 63.3612 0.122688 63.4831 0.490753C63.5746 0.73613 63.6355 5.33694 63.605 20.4276L66.3785 16.9003C67.9024 14.968 70.3406 11.594 71.773 9.38566C73.2055 7.20794 75.156 4.23275 77.8076 0.184032L79.4838 0.0920162C80.6014 0.0306721 81.2312 0.132912 81.3735 0.398737C81.4954 0.613442 81.6173 7.45331 81.6173 30.396H78.8743C77.3809 30.396 75.918 30.3347 75.6741 30.2427C75.2779 30.12 75.217 28.7397 75.2475 10.3058L72.7483 13.373C71.3768 15.06 69.2739 17.7591 68.0852 19.3541C66.8966 20.949 65.0984 23.5868 64.1231 25.1818C63.1479 26.7767 61.9288 28.6171 61.4716 29.2612C60.7097 30.2427 60.4049 30.396 59.3686 30.396C58.6981 30.396 57.9362 30.3347 57.6924 30.2427C57.2962 30.12 57.2352 28.1263 57.1743 15.2747C57.1438 7.11592 57.2352 0.337393 57.3876 0.245377C57.54 0.122688 58.9115 0.0306721 60.4963 0.0306721ZM93.1988 0.0306721H103.256C111.912 0.0306721 113.344 0.0920163 113.466 0.490753C113.558 0.73613 113.619 1.77898 113.619 2.79116C113.619 4.38611 113.558 4.60081 113.101 4.5088C112.796 4.41678 111.485 4.20208 110.205 4.04871C108.895 3.86468 107.554 3.71132 107.218 3.71132C106.609 3.71132 106.609 3.92602 106.609 30.396H103.805C101.915 30.396 100.838 30.2733 100.574 30.028C100.3 29.7212 100.209 26.7154 100.209 3.71132L99.3857 3.74199C98.8981 3.74199 97.4047 3.89535 96.0027 4.11006C94.6007 4.32476 93.4121 4.41678 93.3207 4.32476C93.2597 4.23275 93.1988 3.25124 93.1988 2.11637V0.0306721ZM132.728 0C133.795 0 134.618 0.15336 134.831 0.398737C135.014 0.613442 137.483 7.20794 140.287 15.06C143.091 22.8814 145.437 29.5372 145.498 29.8439C145.59 30.3347 145.285 30.3654 142.115 30.3654C138.763 30.3654 138.58 30.3654 138.336 29.6906C138.184 29.3225 137.544 27.3288 135.715 21.6238L126.876 21.4705L125.535 25.5498C124.774 27.7889 124.133 29.7826 124.073 29.9973C124.012 30.2427 123.372 30.3654 122.305 30.3654C121.238 30.3654 120.568 30.2427 120.446 29.9973C120.385 29.7826 122.64 23.1267 125.475 15.1827C128.339 7.26928 130.747 0.613442 130.808 0.398737C130.9 0.15336 131.6 0 132.728 0V0ZM128.339 18.0352C128.278 18.3112 129.04 18.4339 131.448 18.4339C133.856 18.4339 134.618 18.3112 134.526 18.0352C134.465 17.8205 133.795 15.6734 133.033 13.281C132.271 10.8886 131.57 8.8949 131.509 8.8949C131.448 8.92558 130.717 10.8886 129.924 13.281C129.101 15.6734 128.4 17.8205 128.339 18.0352ZM157.202 0L163.145 0.15336L163.45 13.189L164.669 11.594C165.37 10.7046 167.595 7.72936 173.355 0H175.244C176.616 0 177.256 0.122688 177.53 0.460081C177.865 0.858818 177.469 1.44159 174.94 4.23275C173.294 6.0424 170.978 8.71087 169.758 10.1218C168.57 11.5634 167.564 12.8516 167.564 12.9743C167.564 13.097 170.033 16.9923 173.05 21.6238C176.067 26.286 178.536 30.1507 178.536 30.212C178.536 30.304 177.012 30.3654 175.183 30.3654C172.806 30.3654 171.709 30.2733 171.435 29.9666C171.221 29.7519 169.332 26.8074 163.45 17.207L163.297 30.3654L157.354 30.212L157.202 0ZM200.693 0.0306721C201.76 0.0306721 202.552 0.15336 202.766 0.398737C202.949 0.613442 205.417 7.29995 208.221 15.2134C211.025 23.1574 213.372 29.8133 213.463 30.028C213.524 30.304 212.732 30.396 206.423 30.2427L203.619 21.6545L194.811 21.4705L193.47 25.5498C192.739 27.7889 192.068 29.8133 192.038 30.028C191.946 30.2733 191.337 30.396 190.239 30.396C189.203 30.396 188.502 30.2733 188.411 30.028C188.319 29.8133 190.514 23.2188 193.318 15.3667C196.091 7.51466 198.499 0.858818 198.651 0.58277C198.895 0.15336 199.352 0.0306721 200.693 0.0306721ZM196.182 18.2192C196.182 18.3419 197.615 18.4339 199.383 18.4339C201.79 18.4339 202.552 18.3419 202.461 18.0659C202.4 17.8512 201.76 15.7654 201.028 13.465C200.297 11.134 199.535 9.2323 199.352 9.2323C199.169 9.2323 198.407 11.1953 197.615 13.6184C196.823 16.0108 196.182 18.0965 196.182 18.2192ZM28.3425 13.9865C28.4949 14.5079 28.5558 15.6121 28.4339 16.4402C28.3425 17.2991 27.9767 18.4339 27.6415 18.986C27.3062 19.5381 26.7272 20.1209 26.3614 20.3049C25.9652 20.4889 25.2947 20.581 24.8376 20.4583C24.3804 20.3663 23.6185 19.9369 22.3079 18.7713H23.6185C24.6547 18.7406 25.1423 18.5566 25.7824 17.9125C26.2395 17.4524 26.8796 16.3789 27.1843 15.5201C27.4586 14.6919 27.7939 13.7718 27.8548 13.5264C27.9564 13.2197 28.119 13.373 28.3425 13.9865ZM18.2239 14.4465C18.3763 14.4465 18.742 14.9066 19.0163 15.4587C19.2906 16.0108 19.9002 16.9617 20.3878 17.6058C21.1498 18.6486 21.2107 18.7713 20.7536 19.1394C20.4793 19.3541 19.9002 20.2129 19.4735 21.041C18.8639 22.2373 18.7116 23.0347 18.7116 24.5683C18.7116 25.8872 18.9554 27.1755 19.4125 28.4023C19.8088 29.4145 20.205 30.304 20.2964 30.396C20.4183 30.488 20.9059 31.1628 21.3936 31.899C21.9117 32.6351 23.4661 34.3527 24.8985 35.733C26.331 37.1132 28.4644 38.8922 29.6225 39.659C30.8112 40.4565 32.8532 41.6527 34.1942 42.3275C35.5352 43.0023 37.6991 43.8611 39.0096 44.2598C40.2897 44.6586 41.3564 45.1186 41.3564 45.272C41.3564 45.4867 40.3811 45.5174 38.5525 45.364C36.9981 45.2413 34.7428 44.8733 33.5237 44.5052C32.3046 44.1678 30.3845 43.4623 29.2568 42.9716C28.1291 42.4502 26.0871 41.2846 24.7461 40.3951C23.4051 39.475 21.2107 37.604 19.8697 36.1624C18.5287 34.7515 17.0048 32.8498 16.4562 31.9296C15.9076 31.0095 15.1762 29.4145 14.78 28.4023C14.2923 26.9914 14.1094 25.8872 14.1094 23.6482C14.079 21.0717 14.2009 20.5196 14.9323 18.894C15.42 17.8818 16.2734 16.4709 16.8524 15.7654C17.462 15.0293 18.0715 14.4465 18.2239 14.4465ZM74.577 33.8006C74.8208 33.8006 75.5827 33.9233 76.2532 34.1073C76.9237 34.2914 77.8076 34.7515 78.2038 35.1195C78.6 35.4876 79.1791 36.3157 79.4838 36.9905C79.7886 37.6653 80.0629 38.6775 80.0629 40.2111H76.558C73.9674 40.2111 73.0531 40.3031 73.0531 40.6098C73.0531 40.8245 73.175 41.1313 73.2969 41.3153C73.4188 41.4993 73.815 41.806 74.2112 42.0207C74.577 42.2048 75.0341 42.3581 75.217 42.3581C75.3694 42.3581 75.8265 42.0514 76.1923 41.6527C76.7713 41.0392 77.0761 40.9472 78.3257 41.1006C79.3315 41.2233 79.7886 41.438 79.7886 41.7447C79.7886 41.9901 79.5143 42.5422 79.2095 42.9716C78.9048 43.401 78.2343 43.9224 77.7466 44.1678C77.198 44.4132 76.1008 44.5052 74.8817 44.4438C73.3883 44.3825 72.6569 44.1678 71.8644 43.585C71.2854 43.1556 70.5539 42.2661 70.2796 41.5913C69.9748 40.9166 69.731 39.8124 69.731 39.1376C69.7005 38.4628 69.9748 37.3586 70.3101 36.6838C70.6149 36.009 71.133 35.2422 71.4073 34.9968C71.7121 34.7515 72.4435 34.3834 73.0531 34.1687C73.6321 33.9847 74.3331 33.8006 74.577 33.8006ZM73.4188 37.4813C73.0835 38.0334 73.1445 38.064 75.0341 38.064C76.9847 38.064 77.0152 38.0641 76.6799 37.3893C76.4666 36.9905 76.1618 36.5918 75.9789 36.4691C75.7961 36.3464 75.4303 36.2544 75.1865 36.2544C74.9427 36.2544 74.516 36.3771 74.2417 36.5611C73.9674 36.7452 73.6017 37.1439 73.4188 37.4813ZM172.41 33.8006C172.654 33.8006 173.416 33.9233 174.086 34.1073C174.757 34.3221 175.702 34.7208 176.159 35.0275C176.616 35.3649 177.256 36.1624 177.591 36.8372C177.957 37.5426 178.201 38.7082 178.201 39.5363C178.231 40.5485 178.018 41.3153 177.53 42.0207C177.134 42.6035 176.433 43.3703 175.976 43.7077C175.336 44.1678 174.543 44.3825 173.08 44.4438C171.404 44.5359 170.795 44.4438 169.667 43.8304C168.814 43.3703 168.052 42.6342 167.625 41.8674C167.168 41.1006 166.924 40.1497 166.924 39.1376C166.924 38.0334 167.107 37.3279 167.595 36.5611C167.991 35.9783 168.631 35.2729 169.057 34.9355C169.484 34.6288 170.307 34.23 170.886 34.1073C171.465 33.954 172.166 33.8313 172.41 33.8006ZM170.246 39.5056C170.277 40.3951 170.49 41.0392 170.886 41.438C171.221 41.7754 171.892 42.0514 172.349 42.0821C172.806 42.0821 173.568 41.806 174.025 41.4687C174.726 40.9166 174.848 40.6098 174.848 39.3829C174.848 38.5855 174.665 37.604 174.391 37.2359C174.056 36.7145 173.66 36.5304 172.745 36.5304C171.8 36.5304 171.404 36.7145 170.886 37.3586C170.398 37.9107 170.216 38.5241 170.246 39.5056ZM185.515 33.954C186.277 34.046 187.313 34.3834 187.801 34.6595C188.319 34.9662 188.959 35.641 189.264 36.1624C189.538 36.7145 189.752 37.2359 189.721 37.2972C189.66 37.3893 189.02 37.5426 188.258 37.6653C187.161 37.788 186.856 37.7267 186.673 37.3279C186.552 37.0825 186.125 36.7145 185.759 36.5918C185.363 36.4384 184.692 36.4384 184.235 36.5918C183.626 36.7758 183.29 37.1439 183.047 38.0027C182.864 38.6161 182.803 39.659 182.894 40.3031C183.016 41.0086 183.321 41.5607 183.687 41.7447C184.022 41.9287 184.601 42.0514 184.997 42.0514C185.363 42.0514 185.912 41.806 186.216 41.4993C186.521 41.2233 186.765 40.8245 186.765 40.6098C186.734 40.3338 187.131 40.2724 188.197 40.4258C188.99 40.5178 189.721 40.7632 189.843 40.9472C189.965 41.1313 189.752 41.806 189.386 42.4502C189.02 43.0943 188.289 43.7997 187.74 44.0758C187.192 44.3212 185.942 44.5052 184.997 44.5052C183.717 44.5052 182.894 44.2905 182.01 43.7691C181.279 43.3703 180.547 42.5728 180.212 41.8674C179.816 41.1313 179.603 40.0577 179.603 38.9842C179.603 37.8596 179.796 36.9905 180.182 36.3771C180.487 35.8863 181.035 35.2422 181.37 34.9968C181.706 34.7515 182.468 34.3834 183.077 34.1687C183.656 33.954 184.753 33.862 185.515 33.954ZM16.822 34.1073L19.4125 36.8065C20.8755 38.3401 23.0699 40.2111 24.4413 41.1006C25.7824 41.9901 27.5501 43.0023 28.3425 43.3703C29.1349 43.7384 29.8054 44.1678 29.7749 44.2905C29.7749 44.4132 27.5501 44.5052 19.8697 44.5052L17.5839 42.1128C16.3343 40.8245 14.5057 38.5855 13.5609 37.1439C12.616 35.7023 11.8236 34.4447 11.7932 34.3221C11.7932 34.1994 12.9208 34.0767 16.822 34.1073ZM53.395 34.23L53.5474 44.5052L47.2386 44.4132C41.6917 44.3212 40.6554 44.1985 38.7658 43.6157C37.6077 43.217 35.6876 42.4195 34.4989 41.8367C33.3408 41.2233 31.5426 40.1804 30.5369 39.5056C29.5311 38.8309 27.7329 37.4199 26.5138 36.4078C25.2947 35.3956 24.289 34.4447 24.289 34.3221C24.289 34.1687 30.8416 34.1074 53.395 34.23ZM35.5657 37.4506C35.2304 37.4506 34.9561 37.604 34.9561 37.7573C34.9561 37.9414 35.2304 38.064 35.5657 38.064C36.1143 38.064 36.1752 38.2788 36.1752 39.751C36.1752 41.2539 36.2666 41.438 36.7848 41.438C37.3334 41.438 37.3943 41.2539 37.3943 39.1376C37.3943 37.3279 37.3029 36.8372 36.9676 36.8372C36.7238 36.8372 36.4495 36.9905 36.3581 37.1439C36.2666 37.3279 35.9009 37.4506 35.5657 37.4506ZM37.9429 38.1561C37.9734 38.5241 38.1563 39.0149 38.3696 39.2296C38.6134 39.475 39.2534 39.5977 39.924 39.5363C40.5335 39.5056 41.0516 39.5977 41.0821 39.751C41.0821 39.9351 40.8688 40.2724 40.5945 40.5178C40.1678 40.9472 40.0459 40.9472 39.3754 40.5178C38.9487 40.2724 38.522 40.1804 38.4001 40.3338C38.2782 40.4565 38.4305 40.7632 38.7658 41.0086C39.1011 41.2539 39.6497 41.4687 39.9849 41.4687C40.3202 41.4687 40.9297 41.1926 41.3564 40.8859C41.9355 40.4258 42.1183 39.9964 42.1183 39.0762C42.1183 38.4014 41.905 37.6346 41.6612 37.3279C41.3869 37.0212 40.7773 36.8372 40.1373 36.8372C39.5582 36.8372 38.8268 36.9905 38.4915 37.1746C38.1563 37.3586 37.9124 37.788 37.9429 38.1561ZM42.8193 38.2174C42.8498 38.5548 43.0327 39.0149 43.246 39.2296C43.4898 39.475 44.1299 39.5977 44.8004 39.5363C45.4099 39.5056 45.928 39.5977 45.9585 39.751C45.9585 39.9351 45.7452 40.2418 45.5014 40.4565C45.1051 40.7632 44.8308 40.7632 44.0994 40.4565C43.6117 40.2418 43.1241 40.1804 43.0327 40.3031C42.9412 40.4258 43.0936 40.7325 43.3374 40.9779C43.5813 41.2233 44.2213 41.438 44.7089 41.438C45.2271 41.438 45.8976 41.1619 46.2328 40.8245C46.6392 40.4156 46.8424 39.8021 46.8424 38.9842C46.8424 38.3094 46.6595 37.5733 46.3852 37.2972C46.1414 37.0519 45.4099 36.8372 44.7699 36.8372C44.1299 36.8372 43.4289 37.0212 43.1851 37.2052C42.9412 37.4199 42.7888 37.8493 42.8193 38.2174ZM47.5433 38.0027C47.6957 38.1254 48.0615 38.0641 48.3967 37.8493C48.7015 37.6346 49.2501 37.4506 49.5853 37.4506C49.9206 37.4506 50.1949 37.6653 50.1949 37.9107C50.1949 38.1561 49.9206 38.4321 49.5853 38.5241C49.2501 38.6161 48.9758 38.8309 48.9758 38.9842C48.9758 39.1682 49.2501 39.2909 49.5853 39.2909C50.0425 39.2909 50.1949 39.475 50.1339 39.9964C50.073 40.4462 49.819 40.7018 49.372 40.7632C48.9758 40.7939 48.6101 40.6405 48.5186 40.3645C48.4272 40.1191 48.1529 39.9044 47.9091 39.9044C47.6653 39.9044 47.4519 40.1191 47.4519 40.3645C47.4519 40.6098 47.7262 40.9779 48.0615 41.1313C48.3967 41.3153 48.9758 41.438 49.372 41.438C49.7377 41.438 50.3473 41.2539 50.7435 40.9779C51.1092 40.7325 51.414 40.2418 51.414 39.9044C51.414 39.567 51.1702 39.2296 50.8959 39.1376C50.4692 39.0149 50.4387 38.8922 50.7435 38.5855C50.9568 38.4014 51.1092 37.972 51.1092 37.696C51.1092 37.3893 50.8959 37.0825 50.6521 36.9905C50.4082 36.8985 49.7377 36.8372 49.1587 36.8372C48.6101 36.8372 47.9396 37.0519 47.7262 37.2972C47.4824 37.5733 47.4214 37.88 47.5433 38.0027ZM57.2047 34.0767H58.7286C59.8258 34.0767 60.3134 34.23 60.4049 34.5368C60.4963 34.7821 60.5573 35.6103 60.5573 37.7573H64.2146V34.0767L67.1099 34.23L67.2623 44.5052L64.367 44.3518L64.2146 40.2111H60.5573L60.4049 44.3518H57.3571L57.2047 34.0767ZM93.0464 34.23L93.1073 38.0027C93.1683 41.4687 93.2292 41.7754 93.8083 41.8981C94.2655 42.0208 94.4179 42.3275 94.4179 44.5052L81.4649 44.3518L81.3735 43.0636C81.3125 41.8367 81.3735 41.7447 82.0744 41.7447C82.684 41.7447 82.9278 41.4993 83.324 40.4565C83.5678 39.7203 83.8726 38.1867 83.9336 36.9905C84.025 35.825 84.1469 34.6595 84.2383 34.4447C84.3298 34.1687 85.366 34.0767 93.0464 34.23ZM86.9204 38.3094C86.7985 39.1069 86.5242 40.2111 86.2803 40.7632L85.8841 41.7447H90.151V36.8372H87.1337L86.9204 38.3094ZM96.8256 34.1073H100.483C102.86 34.1073 104.506 34.23 105.146 34.5061C105.695 34.7515 106.335 35.1809 106.578 35.4876C106.853 35.7943 107.036 36.4998 107.036 37.0825C107.036 37.788 106.822 38.3401 106.365 38.7388C105.816 39.1989 105.756 39.3523 106.121 39.475C106.396 39.5363 106.822 40.0577 107.097 40.6098C107.493 41.438 107.523 41.7754 107.249 42.5422C107.066 43.0329 106.548 43.6464 106.091 43.9224C105.481 44.2598 104.262 44.3825 96.978 44.3825L96.8256 34.1073ZM99.9038 37.1439C99.9038 38.064 99.9038 38.0947 101.489 38.0947C102.373 38.064 103.287 37.972 103.5 37.8493C103.714 37.7267 103.866 37.3586 103.805 37.0212C103.714 36.4998 103.439 36.3771 101.824 36.3157L99.9343 36.2237L99.9038 37.1439ZM99.8733 42.3581C102.403 42.3888 103.348 42.1741 103.683 41.9287C104.171 41.5607 104.232 41.3766 103.957 40.9166C103.714 40.5178 103.165 40.3645 101.763 40.2724L99.9038 40.1804L99.8733 42.3581ZM111.668 34.0767C112.796 34.0767 113.009 34.1994 113.131 34.7821C113.223 35.1502 113.314 36.3771 113.436 39.4443L117.093 34.0767L120.141 34.23L120.293 44.5052L117.398 44.3518L117.246 38.6775L115.204 41.53C113.497 43.8611 112.979 44.3825 112.217 44.4438C111.729 44.5052 110.998 44.4745 110.632 44.3825C109.961 44.1985 109.931 44.1064 109.9 39.3523C109.87 36.6838 109.961 34.4141 110.083 34.2914C110.236 34.1687 110.937 34.0767 111.668 34.0767ZM123.554 34.0767C124.255 34.0767 125.048 34.3221 125.566 34.6901C126.023 35.0275 126.633 35.9477 126.937 36.7145C127.242 37.4813 127.577 38.0947 127.699 38.0947C127.821 38.064 127.913 37.1746 127.913 34.0767L131.113 34.23L131.448 38.2174L132.271 36.4691C132.85 35.2115 133.368 34.5981 133.947 34.3834C134.404 34.1994 135.197 34.1074 135.684 34.138C136.477 34.23 136.629 34.3834 136.69 35.2422C136.751 36.0704 136.66 36.2544 136.111 36.3157C135.654 36.3464 135.136 36.8985 134.587 37.8493C133.795 39.1682 133.764 39.3216 134.222 39.6897C134.465 39.9044 135.227 41.0086 135.898 42.1434C136.538 43.2783 137.056 44.2905 137.056 44.3518C137.056 44.4438 136.355 44.4745 133.856 44.3518L133.033 42.6649C132.545 41.7447 131.966 40.7939 131.722 40.5178C131.326 40.1191 131.265 40.3338 131.265 44.5052H130.046C129.376 44.5052 128.644 44.4438 128.37 44.3518C128.035 44.2598 127.913 43.7384 127.913 42.3581C127.913 41.346 127.791 40.5178 127.608 40.5178C127.456 40.5178 126.907 41.438 125.475 44.5052H123.951C123.128 44.5052 122.366 44.4132 122.305 44.2905C122.213 44.1678 122.549 43.309 123.036 42.3581C123.524 41.438 124.255 40.3338 125.475 39.1376L124.743 37.7573C124.286 36.9292 123.707 36.3157 123.28 36.2237C122.762 36.101 122.579 35.7943 122.488 35.0582C122.396 34.1074 122.427 34.0767 123.554 34.0767ZM138.915 34.046L141.78 34.23L142.085 39.7203L146.047 34.0767H147.51C148.759 34.0767 148.973 34.1687 149.125 34.7821C149.217 35.1502 149.247 37.4813 149.095 44.3518L148.18 44.4438C147.693 44.5052 146.961 44.4745 146.595 44.3825C145.955 44.2291 145.894 44.0144 145.742 39.0456L141.932 44.5052L139.037 44.3518L138.915 34.046ZM152.6 34.0767H154.367C155.983 34.0767 156.165 34.138 156.531 34.9355C156.744 35.3956 157.354 36.8678 157.872 38.2174C158.634 40.2418 158.847 40.5792 159.061 40.0577C159.213 39.7203 159.792 38.2788 161.316 34.23L163.236 34.1687C164.973 34.1074 165.126 34.138 165.278 34.7821C165.37 35.1502 165.4 37.4813 165.278 44.3518L164.516 44.4745C164.09 44.5052 163.45 44.4745 163.053 44.3825C162.413 44.2291 162.383 44.0451 162.352 39.1376L160.249 44.5052L159.091 44.5359C158.482 44.5359 157.811 44.3518 157.628 44.1371C157.415 43.9224 156.866 42.6342 155.373 38.8309V44.5052L152.782 44.3518L152.6 34.0767ZM196.182 34.0767C200.266 34.0767 201.089 34.1687 201.211 34.5368C201.303 34.8128 201.364 35.3649 201.364 35.7636C201.364 36.4998 201.303 36.5304 197.706 36.5304V44.5052L194.811 44.3518L194.659 36.5304L192.921 36.4691C191.306 36.4078 191.154 36.3157 191.062 35.6103C191.001 35.2115 191.032 34.6901 191.123 34.4754C191.245 34.1994 192.556 34.0767 196.182 34.0767ZM202.888 34.0767H205.935V36.2237C205.935 38.1561 205.996 38.3708 206.484 38.1867C206.758 38.064 208.038 38.0947 209.288 38.2174C211.36 38.4321 211.696 38.5548 212.579 39.5056C213.158 40.0884 213.555 40.8552 213.555 41.2846C213.555 41.714 213.402 42.4195 213.189 42.8489C212.976 43.2476 212.397 43.7691 211.878 43.9838C211.33 44.2291 209.44 44.3518 203.04 44.3518L202.888 34.0767ZM205.966 42.3581C208.739 42.3581 209.654 42.2048 209.867 41.9901C210.08 41.7754 210.233 41.3766 210.233 41.0699C210.233 40.7632 210.019 40.4565 209.775 40.3645C209.501 40.3031 208.556 40.2111 207.642 40.2111H205.966V42.3581Z" fill="#1F4C95"/>
  <path d="M40.4418 38.9678C39.6573 39.0311 39.5265 38.9467 39.5592 38.4827C39.5592 38.0397 39.6899 37.9554 40.4418 38.0186C41.0629 38.0608 41.3244 38.2085 41.3244 38.5038C41.3244 38.8202 41.0956 38.9467 40.4418 38.9678Z" fill="#1F4C95"/>
  <path d="M44.5933 38.8413C44.3972 38.7147 44.3972 38.4827 44.528 38.2928C44.6914 38.0608 45.1164 37.9764 45.6721 38.0186C46.2932 38.0608 46.5547 38.2085 46.5547 38.5038C46.5547 38.7991 46.2932 38.9467 45.7375 38.9889C45.2798 39.0311 44.7895 38.9467 44.5933 38.8413Z" fill="#1F4C95"/>
</svg>