<svg xmlns="http://www.w3.org/2000/svg" width="227" height="113" viewBox="0 0 227 113" fill="none">
  <path d="M25.8195 12.9417C25.3037 12.9417 24.8817 12.7534 24.8349 12.5179C24.8349 12.2354 25.3037 12.1883 26.1477 12.4709C26.851 12.7063 28.3046 13.8364 29.3361 14.9193C30.4145 16.0494 32.4307 19.2513 33.8373 22.1235C35.2909 24.9487 37.3071 29.2807 38.2917 31.7291C39.2763 34.1305 40.4485 36.3907 40.8237 36.7674C41.1988 37.097 42.1365 37.5207 42.9336 37.662C43.7776 37.8503 44.7154 37.7091 45.2311 37.3324C45.8876 36.8615 46.0282 36.3436 45.8407 35.0723C45.6531 34.1776 44.5278 31.8233 43.2618 29.8928C41.9958 27.9622 40.7768 25.9375 40.4485 25.4196C40.1672 24.9016 39.6515 23.3007 39.2763 21.8881C38.7606 20.0517 38.6668 18.6862 38.995 17.1795C39.2763 15.6727 39.839 14.6368 41.0581 13.5068C42.1521 12.5023 43.168 12 44.1058 12C44.9967 12 46.0751 12.5179 48.5602 14.731L47.9037 18.1683C47.5286 20.0988 47.2473 24.1953 47.2473 27.303C47.2473 31.6821 47.388 33.283 47.9975 34.4601C48.4195 35.3077 49.2166 36.2023 49.7324 36.4848C50.3575 36.7988 50.9827 36.7988 51.6079 36.4848C52.1237 36.2023 52.7801 35.496 53.0145 34.8368C53.249 34.1776 53.4834 32.1529 53.4834 30.3636C53.4834 28.5744 53.249 25.9846 53.0145 24.7133C52.7019 23.1437 52.7019 22.0451 53.0145 21.4172C53.249 20.8993 53.9523 20.2401 54.5149 19.9576C55.1245 19.6751 56.2967 19.5809 57.0938 19.7221C58.266 19.9105 58.7349 20.3343 59.0631 21.276C59.2975 22.0294 59.2975 23.7716 59.0631 25.2783C58.8286 26.7851 57.8909 30.0811 57 32.5767C56.0622 35.1193 55.3589 37.8033 55.4527 38.5566C55.5465 39.31 55.9685 40.1576 56.3905 40.4401C56.9531 40.8168 57.6095 40.8168 58.5004 40.4872C59.2037 40.2047 60.2822 39.2629 60.8448 38.3683C61.4544 37.4737 62.3921 35.5431 62.9548 34.1305C63.4705 32.7179 64.5021 29.0923 65.2523 26.1259C66.2838 21.9823 66.8934 20.4284 67.9249 19.3925C68.6282 18.6862 69.7066 17.8858 70.3631 17.6033C71.0195 17.3207 72.2855 17.2266 73.1763 17.3678C74.0672 17.5091 75.1925 17.98 75.6145 18.4508C76.0365 18.9217 76.5054 19.8163 76.6929 20.4755C76.8805 21.1347 76.7867 22.5002 76.5054 23.5361C76.271 24.572 75.3801 26.3142 74.583 27.3972C73.8328 28.5273 72.2855 29.9869 71.1602 30.6462C70.0817 31.3524 68.3938 32.6709 67.4091 33.6126C66.4245 34.5543 65.2523 35.9198 64.8772 36.7203C64.5021 37.5207 64.127 38.6979 64.0801 39.3571C64.0801 40.0163 64.3614 40.958 64.7365 41.3818C65.2054 41.9155 66.1432 42.1823 67.5498 42.1823C68.722 42.1352 71.0195 41.7114 72.7075 41.1464C74.3954 40.6284 76.6929 39.6867 77.8651 39.1217C79.0373 38.5566 82.929 36.0611 86.5394 33.5655C91.6033 30.1282 93.6664 28.951 95.6826 28.5273C97.0892 28.2448 99.0116 28.1035 99.9025 28.2918C100.793 28.4802 102.153 28.951 102.95 29.4219C103.747 29.8928 104.732 31.0699 105.248 32.0587C105.857 33.4242 106.045 34.5072 105.857 36.2494C105.67 38.18 105.295 38.8862 103.935 40.1105C102.997 40.958 101.122 41.9939 99.8087 42.4177C97.9801 42.9827 94.9793 43.2182 88.6494 43.3124C83.8668 43.3594 78.7091 43.5949 77.1618 43.7832C75.6145 43.9716 72.9888 44.5366 71.3008 45.0545C69.6129 45.5254 68.3938 46.0904 68.6282 46.2788C68.8158 46.4671 69.7535 46.3259 70.7382 45.9492C71.6759 45.6196 72.9888 45.4312 73.6452 45.5725C74.3017 45.7138 78.0996 45.5254 82.0851 45.1016C86.3519 44.6308 90.1029 44.4895 91.2282 44.6779C92.4786 44.929 93.6508 45.6196 94.7448 46.7497C95.7764 47.8326 96.6203 49.3394 96.9954 50.7049C97.3237 51.9762 97.4174 53.6713 97.2768 54.4718C97.0892 55.3193 97.0892 55.9315 97.2299 55.7902C97.3705 55.649 97.9332 53.9068 98.449 51.882C99.0116 49.9044 99.8556 47.4089 100.371 46.373C100.887 45.3371 101.778 44.1599 102.341 43.7832C102.95 43.4065 104.31 43.0769 105.388 43.0769C106.889 43.0769 107.686 43.3594 108.577 44.2541C109.233 44.9133 109.89 46.0904 110.124 46.8909C110.312 47.6914 110.593 48.4448 110.78 48.5389C111.015 48.6331 111.156 48.3035 111.156 47.7855C111.156 47.2676 111.765 46.1375 112.515 45.29C113.641 44.0657 114.25 43.7832 115.704 43.8303C116.688 43.8303 119.267 44.0187 121.471 44.207C123.675 44.3953 125.878 44.5837 126.394 44.5366C126.91 44.4895 129.395 44.3953 136.475 44.0187L138.116 45.6667C139.382 46.938 139.757 47.6914 139.757 49.0569C139.804 50.1399 139.429 51.3641 138.82 52.1175C138.304 52.8709 137.882 54.1422 137.882 54.9427C137.929 56.4965 137.929 56.4965 138.773 54.3776C139.241 53.2005 140.039 51.1758 140.507 49.9044C140.929 48.586 142.102 46.7496 143.039 45.7608C144.493 44.3012 145.149 44.0187 146.744 44.0187C148.244 44.0187 148.947 44.3012 150.073 45.4312C150.823 46.2317 151.479 47.3147 151.479 47.8797C151.479 48.4918 151.714 49.2923 151.948 49.669C152.323 50.2811 152.417 50.234 152.417 49.5277C152.417 49.104 153.12 48.0681 153.917 47.2205C155.418 45.8079 155.559 45.7608 158.278 46.0434C159.825 46.2317 162.545 46.42 164.373 46.4671C166.859 46.5613 167.984 46.8438 169.062 47.6443C170.281 48.5389 170.703 48.586 172.11 48.1622C173.376 47.7855 174.314 47.8326 176.33 48.4448C177.737 48.8214 180.597 49.2923 182.66 49.4807C184.723 49.6219 186.88 50.0928 187.442 50.4224C188.052 50.7991 188.661 50.9874 188.849 50.8462C189.083 50.752 190.021 50.8462 190.959 51.0816C191.99 51.3641 193.163 52.1175 193.725 52.8238C194.476 53.8597 194.663 54.566 194.429 56.0256C194.288 57.0615 193.772 58.2858 193.35 58.7566C192.881 59.2275 191.662 59.8396 190.631 60.1221C189.599 60.4047 188.286 60.9226 187.677 61.2522C186.833 61.7702 186.739 62.0998 187.067 62.9473C187.302 63.5594 187.63 64.5953 187.771 65.3016C187.958 66.1492 188.661 66.9496 189.693 67.5618C190.584 68.0797 191.662 69.2098 192.084 70.0103C192.584 71.0462 192.741 72.1134 192.553 73.2121C192.412 74.1068 191.897 75.2368 191.428 75.7077C190.678 76.4611 190.678 76.5552 191.568 77.2145C192.084 77.5911 192.647 77.9207 192.834 77.9207C193.069 77.9207 193.632 78.627 194.147 79.4275C194.663 80.2751 195.085 81.7818 195.085 82.7235C195.085 83.9949 194.757 84.8424 193.913 85.69C193.303 86.3492 192.459 86.8671 192.037 86.8671C191.662 86.8671 191.334 87.1967 191.334 87.5734C191.334 88.1385 191.85 87.9972 193.632 86.9613C194.851 86.255 196.632 84.8424 197.476 83.7594C198.367 82.6765 199.493 81.2168 200.055 80.4634C200.946 79.2392 201.321 79.0979 203.666 79.0979C205.916 79.0979 206.479 79.2862 207.745 80.5105C208.589 81.311 209.292 82.6294 209.433 83.5711C209.62 84.6541 209.48 85.7371 208.964 86.7259C208.542 87.5734 208.214 88.8918 208.214 89.6923C208.214 91.0578 208.261 91.0578 209.245 90.3986C210.042 89.8807 211.402 89.7394 214.356 89.8336C217.122 89.8807 218.67 90.1632 219.232 90.634C219.701 91.0107 220.358 92.0466 220.733 92.8471C221.061 93.6946 222.093 95.3897 223.03 96.614C223.968 97.8853 225.14 99.6746 225.609 100.616C226.125 101.605 226.5 102.924 226.5 103.583C226.5 104.242 226.172 105.419 225.797 106.172C225.422 106.926 224.531 107.868 223.781 108.244C223.077 108.574 221.764 109.045 220.873 109.233C219.983 109.421 218.107 110.316 216.7 111.258C214.731 112.623 213.746 113 212.105 113C210.417 113 209.808 112.765 209.011 111.823C208.448 111.164 207.651 110.457 207.276 110.316C206.901 110.128 205.635 110.457 204.463 110.975C202.54 111.87 202.118 111.917 199.774 111.399C198.367 111.069 196.351 110.834 195.32 110.834C194.194 110.881 192.834 110.504 191.897 109.939C191.1 109.421 190.115 108.291 189.74 107.491C189.365 106.643 189.177 105.231 189.459 102.876L187.677 103.818C186.739 104.336 185.192 105.513 184.301 106.455C183.082 107.679 182.144 108.15 180.55 108.386C179.096 108.574 177.971 108.433 176.893 107.868C175.955 107.397 175.251 106.643 175.064 105.843C174.876 105.09 174.642 104.383 174.595 104.195C174.501 103.959 174.454 103.63 174.454 103.347C174.454 103.065 174.126 103.018 173.61 103.3C173.188 103.536 171.5 104.054 169.859 104.477C168.265 104.901 166.249 105.231 165.405 105.231C164.608 105.231 163.014 104.807 161.888 104.289C160.2 103.489 159.638 103.441 158.137 103.865C156.731 104.289 155.934 104.242 153.824 103.583C151.995 103.018 150.541 102.829 148.9 103.065C147.072 103.3 146.181 103.159 144.915 102.5C143.743 101.841 142.993 101.699 142.195 101.982C141.633 102.217 139.007 102.264 136.381 102.076C133.709 101.935 128.27 101.841 124.284 101.841C119.736 101.888 115.469 101.652 112.937 101.228C109.796 100.71 107.873 100.616 104.92 100.946C101.497 101.37 100.887 101.323 97.5581 99.5804L96.2452 100.805C95.1668 101.841 94.6979 101.982 92.8693 101.746C91.6971 101.605 90.4311 101.417 90.056 101.417C89.6809 101.37 87.8523 101.464 86.0705 101.699C82.9759 102.029 82.6946 101.982 79.9751 99.7217L78.0996 101.087C77.068 101.841 74.6299 102.924 72.7075 103.536C70.7851 104.148 67.6905 104.854 65.8618 105.042C64.0332 105.278 61.7826 105.325 60.9386 105.137C60.0477 104.948 58.5942 104.054 57.7033 103.159C56.0622 101.558 56.0622 101.558 54.5149 102.311C53.1552 103.018 53.0145 103.253 53.2958 104.524C53.4834 105.419 53.2958 106.502 52.827 107.491C52.405 108.291 51.5141 109.233 50.7639 109.516C50.0606 109.798 47.7162 110.128 45.5124 110.222C43.3087 110.316 41.3394 110.599 41.105 110.881C40.8237 111.117 39.8859 111.352 38.995 111.352C38.0104 111.399 36.7444 110.975 35.9942 110.41C35.2909 109.892 34.5407 108.762 34.2593 107.962C33.978 106.973 33.4154 106.267 32.7589 106.078C31.9149 105.796 31.4461 106.031 30.6021 107.114C29.9456 108.009 29.0079 108.621 28.0232 108.762C27.2261 108.903 26.1946 109.327 25.8195 109.751C25.4444 110.128 24.3191 110.693 23.3344 110.928C21.834 111.305 21.2245 111.164 18.6925 109.892C17.0515 109.092 15.3166 108.197 14.8008 107.962C14.2851 107.679 13.1598 107.397 12.3627 107.303C11.5187 107.208 10.2996 106.738 9.59627 106.314C8.93983 105.843 8.18963 104.713 7.9083 103.818C7.67386 102.924 7.58008 101.699 7.72075 101.087C7.86141 100.522 8.79917 99.1566 9.78382 98.0266C10.7685 96.9436 12.4095 94.6835 13.4411 93.0354C14.4257 91.3874 15.6917 89.7394 16.2075 89.4098C16.7232 89.0331 17.8017 88.7506 18.5519 88.7506C19.3021 88.7506 21.0838 88.4681 22.4436 88.1385C23.7564 87.8559 24.8817 87.3851 24.8817 87.1026C24.8349 86.82 25.2568 86.0667 25.8195 85.3604C26.4759 84.4186 26.6635 83.6653 26.4759 82.7706C26.2884 82.0173 26.2884 80.8872 26.4759 80.1809C26.6166 79.4275 27.5544 78.0149 28.4921 76.9319C29.4768 75.8489 32.0556 73.9184 34.2124 72.5529C36.3693 71.2345 38.5261 69.6336 39.0419 68.9744C39.5108 68.3152 39.9328 67.4676 39.9328 67.0909C39.9328 66.7142 39.4639 65.9608 37.9635 64.5012L35.5253 67.1851C33.8373 69.0685 32.7589 69.9161 31.9149 69.9161C31.2585 69.9161 30.2739 69.5865 29.7112 69.2098C29.1017 68.8331 28.3983 68.0797 28.1639 67.5618C27.8357 66.9026 27.8826 66.1492 28.4452 64.8779C28.8672 63.889 29.5705 62.5706 30.0863 61.9114C30.6021 61.2522 31.0241 60.3576 30.9772 59.9338C30.9772 59.4629 30.4614 58.5683 29.805 57.9091C28.9141 57.0145 28.117 56.7319 26.6635 56.7319C25.5382 56.7319 23.0531 57.1086 21.1307 57.6266C19.2083 58.0974 15.8324 59.4159 13.6286 60.5459C10.5809 62.0998 9.0805 62.5706 7.29876 62.5706C5.75145 62.6177 4.43859 62.3352 3.64149 61.8173C2.93817 61.3464 1.95353 60.2634 1.43776 59.4629C0.921992 58.6154 0.5 57.1086 0.5 56.1669C0.5 55.1781 0.73444 53.8597 0.96888 53.2005C1.25021 52.5413 2.14108 51.5995 2.98506 51.0816C3.78216 50.5636 5.5639 50.0457 6.82988 49.8573C8.14274 49.7161 10.8622 49.8103 12.9253 50.1399C14.9884 50.4695 19.0207 51.4583 21.834 52.3058C24.6473 53.2005 28.1639 54.0009 29.5705 54.0009C30.9772 54.048 32.7589 53.8597 33.556 53.5301C34.3531 53.2476 35.2909 52.4 35.666 51.7408C36.0411 51.0345 36.3693 49.8103 36.3693 49.0098C36.3693 48.1622 35.9942 46.938 35.5722 46.2317C35.0095 45.4312 33.9311 44.6779 32.5245 44.2541C31.2585 43.8774 28.8203 43.5478 26.9917 43.5478C25.1631 43.5478 22.7718 43.2182 21.5996 42.8415C20.4274 42.4177 18.9739 41.6173 18.3643 41.0522C17.7548 40.4872 16.9577 39.31 16.6295 38.5096C16.0668 37.1911 16.0668 36.7203 16.6763 35.3077C17.0983 34.366 17.8017 33.5184 18.4581 33.3772C19.0207 33.2359 20.0523 33.2359 20.8025 33.3772C21.5058 33.5184 23.5689 35.0252 25.3506 36.7203C27.1793 38.4154 29.383 40.1105 30.2739 40.4872C31.1647 40.8639 32.5245 41.1935 33.3216 41.1935C34.1187 41.1935 35.3378 40.8639 36.1349 40.4872C37.3539 39.8751 37.5415 39.5455 37.5415 37.8033C37.5415 36.6732 37.1664 35.0723 36.6975 34.1776C36.2755 33.283 35.3846 32.1529 34.7282 31.6821C34.0718 31.2112 30.8365 29.6573 27.4606 28.1977C24.0846 26.7851 20.6618 25.09 19.8647 24.4308C18.9739 23.7716 18.1299 22.5944 17.8485 21.6527C17.5203 20.5226 17.5203 19.4867 17.8954 18.2625C18.2236 17.2737 18.8332 15.9082 19.349 15.1548C19.8178 14.4485 20.8494 13.5538 21.6465 13.1301C22.3967 12.7534 23.4282 12.5179 23.8502 12.6121C24.4598 12.8005 24.4129 12.8476 23.6627 12.8946C23.1 12.8946 21.9747 13.5068 21.1307 14.2601C20.2867 14.9664 19.3021 16.0965 18.9739 16.8499C18.5988 17.5562 18.3174 19.0159 18.3174 20.1459C18.3174 21.6998 18.5519 22.4061 19.5834 23.3478C20.3336 24.0541 21.7402 25.0429 22.7718 25.5608C23.8033 26.0788 26.3353 27.1618 28.3983 28.0093C30.4614 28.8098 33.0402 29.9869 34.1656 30.6462C35.6191 31.4466 36.4162 32.3883 37.1195 34.0364C37.6822 35.2606 38.1041 37.0028 38.1041 37.8974C38.0573 38.8392 37.6822 39.9221 37.2133 40.393C36.7444 40.911 35.3846 41.3818 34.0249 41.5231C32.2432 41.7114 31.2585 41.5702 29.805 40.8168C28.7734 40.2988 27.1793 39.0746 26.2884 38.1329C25.3975 37.1441 23.8033 35.7315 22.7718 34.9781C21.7402 34.2247 20.3336 33.6597 19.6303 33.6597C18.7863 33.6597 18.0361 34.0364 17.6141 34.7427C17.239 35.3077 16.9108 36.4848 16.9108 37.3324C16.9108 38.3212 17.3328 39.2629 18.083 40.0163C18.7394 40.6755 20.1461 41.6173 21.2714 42.1352C22.678 42.7944 24.2722 43.0769 26.7573 43.0769C28.6797 43.0769 31.071 43.3124 32.0556 43.5478C32.9934 43.8303 34.3531 44.5366 35.1033 45.1016C35.8066 45.7608 36.51 46.9851 36.7444 47.9268C36.9788 49.104 36.8382 50.1869 36.3693 51.317C35.9942 52.2117 35.1033 53.3417 34.4 53.7655C33.5091 54.3305 32.1963 54.566 30.2739 54.5189C28.7266 54.5189 26.2884 54.1422 24.8817 53.7655C23.4751 53.3417 20.8494 52.5883 19.0207 52.0704C17.239 51.5054 14.1444 50.8462 12.222 50.6107C9.83071 50.2811 7.86141 50.2811 6.12656 50.6107C4.20415 50.9403 3.2195 51.4583 2.28174 52.4942C1.34398 53.483 0.96888 54.4247 0.96888 55.5548C0.96888 56.4494 1.2971 57.9091 1.6722 58.7566C2.0473 59.5571 3.03195 60.6872 3.87593 61.158C4.71992 61.676 6.26722 62.0998 7.29876 62.0998C8.56473 62.0998 10.4402 61.4876 13.1598 60.1221C15.3635 59.0392 18.8332 57.7207 20.8963 57.2028C22.9593 56.6848 25.5382 56.2611 26.6635 56.2611C28.0701 56.2611 29.0079 56.5907 30.0394 57.4382C30.8365 58.0974 31.4461 59.0863 31.4461 59.6984C31.4461 60.2634 30.7896 61.8172 29.9456 63.0886C29.1485 64.407 28.4921 65.9608 28.4921 66.62C28.539 67.2793 29.0079 68.1739 29.6174 68.6448C30.227 69.1156 31.1647 69.4923 31.6805 69.4923C32.1963 69.4452 32.9465 69.2098 33.3685 68.8802C33.7436 68.5506 34.7751 67.3734 35.5722 66.2904C36.4162 65.1604 37.4008 64.2657 37.7759 64.2657C38.151 64.2657 38.9012 64.6895 39.417 65.2075C39.9328 65.7254 40.3548 66.6671 40.3548 67.3263C40.3548 67.9855 39.7921 69.0685 39.0419 69.8219C38.2917 70.5282 35.8535 72.2233 33.6498 73.5888C31.3992 74.9072 29.0548 76.7436 28.4452 77.5911C27.7888 78.3916 27.1324 79.6159 26.9917 80.2751C26.8041 80.9343 26.8979 82.1585 27.1793 83.0061C27.6012 84.2774 27.5544 84.607 26.8979 85.1249C26.4759 85.4075 25.8664 86.3963 25.4913 87.2438C25.0693 88.3268 24.6004 88.7506 23.8502 88.7035C23.2407 88.7035 21.5058 88.8448 19.9585 89.0331C18.4112 89.2215 16.7701 89.5511 16.3481 89.7394C15.8793 89.9748 15.129 90.9636 14.6133 91.9525C14.1444 92.8942 13.1129 94.6364 12.3158 95.8135C11.5656 96.9907 10.4402 98.3562 9.87759 98.8741C9.31494 99.3921 8.65851 100.334 8.42407 100.993C8.14274 101.746 8.14274 102.735 8.47095 103.724C8.70539 104.524 9.40871 105.56 10.0183 105.937C10.5809 106.314 11.4718 106.643 11.9876 106.643C12.5033 106.643 14.0975 107.114 15.5041 107.726C16.9108 108.291 18.5988 109.139 19.2552 109.61C19.9116 110.034 21.1776 110.41 22.0685 110.41C22.9593 110.41 24.4129 109.986 25.2568 109.469C26.0539 108.951 27.0855 108.527 27.4606 108.527C27.8357 108.527 28.8203 108.009 29.5705 107.35C30.3676 106.69 30.9772 105.843 30.9772 105.466C30.9772 105.09 31.071 104.76 31.2116 104.76C31.3523 104.76 32.1963 105.137 33.0871 105.607C34.1656 106.125 34.7751 106.832 34.9627 107.726C35.1033 108.433 35.666 109.421 36.2755 109.939C36.8382 110.457 37.8697 110.881 38.6199 110.881C39.3232 110.881 40.3548 110.646 40.9643 110.363C41.527 110.034 43.6838 109.751 45.7469 109.751C48.3257 109.657 49.873 109.421 50.8108 108.856C51.5141 108.433 52.3112 107.491 52.5925 106.785C52.9676 105.843 52.9676 105.09 52.5925 104.195C52.1236 102.924 52.1705 102.829 56.0622 100.993L57.4689 102.406C58.266 103.159 59.4851 104.007 60.2822 104.289C61.173 104.666 63.0485 104.713 65.4398 104.524C67.8311 104.336 70.5506 103.724 72.9419 102.876C75.005 102.076 77.4432 100.852 79.9751 98.78L81.3817 100.193C82.7415 101.558 82.8353 101.605 86.0705 101.228C87.8523 101.04 89.6809 100.899 90.056 100.899C90.4311 100.946 91.6033 101.087 92.6817 101.276C94.1822 101.464 94.8386 101.323 95.8232 100.569C96.5266 100.004 97.0892 99.2037 97.0892 98.78C97.0892 98.0737 97.3237 98.1678 98.3552 99.2508C99.1992 100.051 100.184 100.569 101.075 100.569C101.872 100.569 103.982 100.475 105.763 100.334C107.639 100.193 110.827 100.381 113.266 100.758C116.032 101.228 119.502 101.37 123.487 101.228C126.769 101.087 129.629 100.899 129.911 100.758C130.192 100.616 130.802 100.71 131.317 100.993C131.833 101.276 134.084 101.558 136.381 101.699C138.632 101.841 141.164 101.746 142.008 101.464C143.227 101.087 143.743 101.134 144.774 101.841C145.665 102.406 147.072 102.641 149.604 102.688C151.526 102.688 153.964 102.924 154.996 103.206C156.262 103.583 157.246 103.583 158.044 103.253C158.934 102.924 159.966 103.065 162.357 103.912C165.499 104.995 165.499 104.995 168.922 104.148C170.797 103.724 172.907 103.018 173.657 102.641C174.361 102.264 175.017 102.076 175.158 102.311C175.298 102.5 175.392 103.347 175.392 104.195C175.392 105.199 175.783 106.094 176.564 106.879C177.408 107.726 178.252 108.056 179.518 108.056C180.597 108.056 181.91 107.632 183.035 106.879C183.973 106.22 184.77 105.513 184.77 105.231C184.77 104.948 185.661 104.289 186.786 103.771C187.864 103.206 189.974 101.841 191.475 100.71C192.928 99.5804 194.241 98.6387 194.382 98.6387C194.522 98.6387 194.616 99.0625 194.616 99.5804C194.616 100.24 194.241 100.569 193.21 100.758C192.412 100.899 191.381 101.558 190.865 102.311C190.256 103.065 189.88 104.289 189.88 105.466C189.88 106.879 190.209 107.679 191.193 108.668C191.897 109.374 193.163 110.034 193.913 110.128C194.663 110.222 195.835 110.316 196.492 110.363C197.148 110.363 199.117 110.504 200.946 110.693C203.806 110.928 204.369 110.834 205.166 110.034C205.916 109.327 206.291 109.233 207.041 109.61C207.557 109.845 208.683 110.693 209.527 111.446C210.324 112.152 211.496 112.765 212.105 112.765C212.668 112.765 214.497 111.917 216.185 110.928C217.873 109.892 220.17 108.809 221.342 108.527C222.515 108.197 223.921 107.491 224.531 106.973C225.093 106.408 225.703 105.278 225.89 104.524C226.078 103.536 225.797 102.406 225.046 100.805C224.437 99.5333 223.218 97.697 222.421 96.7082C221.577 95.6723 220.873 94.7776 220.873 94.6364C220.873 94.4951 220.498 93.6476 220.076 92.7529C219.607 91.8112 218.904 90.9636 218.529 90.8224C218.154 90.6811 216.185 90.4457 214.215 90.3515C210.839 90.1632 210.464 90.2573 207.745 92.5175V90.5399C207.745 89.4098 208.073 87.6676 208.495 86.6317C209.105 85.1249 209.151 84.4186 208.729 83.0061C208.401 81.8289 207.698 80.8872 206.713 80.2751C205.869 79.7571 204.463 79.3333 203.619 79.3333C202.446 79.3333 201.696 79.71 200.805 80.6988C200.102 81.4993 198.883 82.8648 198.133 83.8536C197.383 84.7953 195.46 86.3963 193.913 87.4322C192.366 88.421 191.053 89.2685 191.006 89.2214C190.912 89.2214 190.865 88.6093 190.865 87.8089C190.865 86.7259 191.053 86.3963 191.803 86.3963C192.319 86.3963 193.163 85.8312 193.678 85.1249C194.241 84.3716 194.663 83.1002 194.616 82.2998C194.616 81.2168 194.147 80.2751 193.116 79.1921C192.272 78.2974 191.146 77.3557 190.631 77.0732C189.74 76.6023 189.74 76.5082 190.49 75.9431C190.912 75.6135 191.522 74.766 191.803 74.0597C192.037 73.3063 192.131 72.1762 191.99 71.4699C191.803 70.7166 191.334 69.7748 190.912 69.2569C190.49 68.786 189.599 68.1268 188.896 67.7501C188.099 67.3734 187.489 66.573 187.302 65.8196C187.161 65.0662 186.833 63.9361 186.598 63.2298C186.27 62.1469 186.364 61.7702 187.255 60.9697C187.817 60.4517 188.802 59.9338 189.459 59.7455C190.115 59.6042 191.146 59.2746 191.803 59.0392C192.459 58.8037 193.256 58.0974 193.585 57.4382C193.866 56.779 194.147 55.8373 194.147 55.3193C194.147 54.8014 193.491 53.7655 192.741 52.965C191.709 51.9291 190.912 51.5524 189.693 51.5524C188.802 51.5524 187.583 51.2228 187.02 50.8462C186.411 50.4224 185.192 50.1399 184.301 50.1869C183.41 50.234 181.816 50.1399 180.784 49.9044C179.753 49.7161 177.69 49.2923 176.236 48.9156C173.985 48.3506 173.282 48.3506 172.251 48.8685C171.078 49.4336 170.75 49.3394 169.109 48.3035C167.609 47.3147 166.624 47.0793 163.951 46.9851C162.123 46.938 159.872 46.7497 158.981 46.5613C158.09 46.42 156.778 46.373 156.074 46.5613C155.324 46.7026 154.339 47.2676 153.824 47.7855C153.261 48.3506 152.886 49.3865 152.886 50.2811C152.886 51.1287 153.355 52.4471 153.917 53.2476C154.715 54.3305 154.949 55.1781 154.761 56.2611C154.621 57.1086 154.386 57.862 154.199 57.9562C153.964 58.0504 153.402 56.9203 152.933 55.4606C152.417 53.9538 151.761 51.6937 151.479 50.3753C151.151 49.104 150.729 47.503 150.495 46.8438C150.26 46.1846 149.557 45.3842 148.9 45.1016C148.244 44.772 147.306 44.4895 146.79 44.4895C146.275 44.4895 145.29 44.772 144.587 45.1487C143.837 45.4783 142.852 46.4671 142.289 47.3618C141.773 48.2564 140.742 50.6578 139.992 52.7296C139.288 54.8014 138.304 56.9203 137.835 57.4382C136.991 58.38 136.991 58.3329 137.272 55.5548C137.413 54.0009 137.835 52.4471 138.21 52.1646C138.538 51.835 138.96 51.0816 139.101 50.5166C139.242 49.9044 139.242 48.8685 139.101 48.1622C138.96 47.4089 138.257 46.2788 137.554 45.6196C136.288 44.4424 136.1 44.4424 132.021 44.6779C129.723 44.8662 126.347 44.9604 124.519 44.9604C122.69 44.9133 119.924 44.7249 118.329 44.4895C116.032 44.1128 115.094 44.1599 114.11 44.6779C113.359 45.0075 112.515 45.855 112.234 46.5613C111.906 47.2205 111.624 48.3035 111.624 48.9627C111.624 49.6219 112.187 50.7049 112.937 51.4583C113.922 52.4471 114.156 53.1063 114.11 54.5189C114.016 55.4606 113.828 56.2611 113.641 56.2611C113.406 56.2611 112.89 55.4606 112.375 54.5189C111.906 53.5301 110.921 51.0345 110.171 48.9627C109.421 46.7967 108.389 44.8191 107.78 44.3483C107.17 43.8774 106.092 43.5007 105.295 43.5007C104.498 43.5478 103.419 43.8774 102.856 44.2541C102.247 44.6308 101.262 45.9492 100.653 47.2205C100.043 48.4448 99.3398 50.5166 99.0585 51.7879C98.7772 53.1063 98.3552 54.7072 98.0739 55.4606C97.7925 56.1669 97.3705 56.6378 97.0892 56.4965C96.8079 56.3552 96.6203 55.0839 96.6203 53.6713C96.6203 52.2587 96.339 50.3753 96.0108 49.5748C95.6357 48.7273 94.6979 47.4559 93.9008 46.7497C93.0568 45.9963 91.8378 45.29 91.1344 45.1016C90.3842 44.9133 86.4456 45.1487 82.3195 45.5254C78.1934 45.9492 74.3017 46.1846 73.6452 46.0904C72.9888 45.9492 71.8635 46.0904 71.0664 46.42C70.2693 46.7496 69.0971 47.0322 68.3938 47.0322C67.6436 47.0793 67.1278 46.8909 67.2216 46.6084C67.3154 46.3259 68.1124 45.8079 69.0033 45.3842C69.8942 44.9604 72.1917 44.2541 74.1141 43.7832C76.6929 43.1711 80.1158 42.9357 87.0083 42.8415C92.3535 42.7473 97.2768 42.4648 98.4958 42.1352C99.6681 41.8056 101.356 41.1935 102.247 40.7226C103.138 40.2517 104.263 39.2159 104.732 38.4154C105.154 37.6149 105.529 36.3436 105.529 35.5431C105.529 34.7897 105.201 33.3772 104.826 32.4825C104.451 31.5879 103.419 30.4107 102.622 29.8928C101.497 29.2336 100.231 28.951 98.1676 28.951C96.0577 28.951 94.651 29.2336 93.2444 29.9869C92.1191 30.5049 88.9307 32.6238 86.0705 34.6014C83.2104 36.6261 79.8813 38.7921 78.5685 39.4513C77.3025 40.0634 74.7236 41.0522 72.9419 41.6173C71.1602 42.1823 68.6751 42.7002 67.5029 42.7473C66.1432 42.7944 65.0647 42.6061 64.549 42.1352C64.127 41.7585 63.6581 40.8639 63.5643 40.1576C63.4237 39.4042 63.705 37.9445 64.1739 36.8615C64.6896 35.7315 66.0025 33.9893 67.1747 32.9534C68.3469 31.9175 70.1286 30.5991 71.1133 29.9869C72.1448 29.4219 73.5515 28.0564 74.2548 26.9263C74.9581 25.8434 75.8021 24.1953 76.0834 23.3007C76.4585 22.0294 76.4116 21.3231 75.9427 20.2401C75.5676 19.4867 74.7237 18.545 74.0203 18.1212C72.895 17.5091 72.5199 17.5091 70.7851 18.1212C69.7066 18.4979 68.3938 19.3455 67.9249 20.0047C67.456 20.6639 66.3307 24.0541 65.4398 27.5385C64.549 31.0228 63.1423 35.2135 62.3921 36.8615C61.595 38.5566 60.4228 40.1105 59.7195 40.5814C58.9693 41.0051 57.8909 41.3347 57.2344 41.3347C56.578 41.2876 55.7809 40.911 55.4527 40.393C55.0776 39.8751 54.89 38.7921 55.0307 37.662C55.1714 36.6261 55.7809 34.4131 56.4373 32.7179C57.0938 31.0228 57.9378 28.1977 58.266 26.3613C58.6411 24.572 58.8286 22.5473 58.688 21.9352C58.5473 21.3231 57.9846 20.6168 57.4689 20.3343C56.9531 20.0988 55.9685 20.0517 55.2651 20.193C54.5149 20.3343 53.7178 20.8993 53.4834 21.4172C53.1708 22.0451 53.1708 23.1908 53.4834 24.8545C53.7647 26.173 53.9523 28.8569 53.9523 30.7403C53.9523 32.6238 53.671 34.6956 53.2958 35.449C52.9676 36.1552 52.1705 36.8615 51.561 37.0499C50.9046 37.2382 49.9199 37.097 49.1697 36.6732C48.3726 36.2494 47.6224 35.3548 47.2942 34.2718C46.966 33.2359 46.7315 30.1282 46.7315 26.8322C46.7315 23.7245 47.0129 19.8634 47.2942 18.2625C47.6224 16.4732 47.6693 14.9664 47.4349 14.4956C47.2473 14.0247 46.4502 13.3655 45.7 13.0359C44.9498 12.6592 43.7776 12.5179 43.0743 12.6592C42.2772 12.8476 41.2925 13.648 40.5423 14.731C39.6983 16.0023 39.3701 17.1324 39.3232 18.8275C39.2764 20.3814 39.6515 22.0765 40.4485 23.7716C41.0581 25.1841 42.2772 27.4443 43.168 28.7156C44.0589 30.034 45.1373 31.9175 45.6062 32.9534C46.0751 33.9893 46.4502 35.3077 46.4502 35.9198C46.4502 36.4848 46.122 37.2853 45.7 37.662C45.3249 38.0387 44.3402 38.3683 43.59 38.3683C42.7461 38.3683 41.6207 37.8503 40.5892 36.9557C39.6983 36.2023 38.9481 35.3548 38.9481 35.0723C38.9481 34.7897 37.8228 32.0117 36.4631 28.8569C35.1033 25.655 33.0402 21.4643 31.9149 19.5338C30.7896 17.6033 29.1954 15.296 28.3046 14.4956C27.4606 13.648 26.3353 12.9417 25.8195 12.9417Z" fill="#3379BB"/>
  <path d="M113 53.715C112.45 53.0297 112 52.3015 112 52.0873C112 51.916 112.45 52.0017 113 52.3015C113.6 52.6442 114 53.2867 114 55L113 53.715Z" fill="#FDFEFD"/>
  <path fill-rule="evenodd" clip-rule="evenodd" d="M10.5492 1.64757C10.0228 2.18803 9.58243 2.84025 9.30807 3.4239C9.59084 2.85651 10.0426 2.195 10.5492 1.64757ZM9.00173 4.49662C8.97787 5.15571 9.20455 6.13206 9.47443 6.71853C9.75549 7.28233 10.4581 8.22198 11.0202 8.83276C11.7697 9.63146 12.5192 9.86638 13.9713 9.86638C15.4235 9.86638 16.4072 9.5375 17.3909 8.69181C18.4214 7.84612 18.7962 7.14138 18.7962 6.01379C18.7962 5.1681 18.3277 3.75862 17.7188 2.95991C17.1567 2.11422 15.9856 1.0806 15.1893 0.704741C14.3461 0.328879 13.3155 0 12.894 0C12.8733 0 12.8512 0.00169404 12.8277 0.0050212C13.2479 0.0540347 14.1603 0.455748 14.9496 0.939907C15.7454 1.45686 16.7754 2.58474 17.1967 3.43066C17.6649 4.32357 17.8521 5.45146 17.6649 6.25038C17.4776 7.00231 16.8222 7.80123 15.9795 8.22418C15.2305 8.60015 14.0133 8.92912 13.311 8.92912C12.562 8.92912 11.6725 8.64714 11.2979 8.31818C10.8766 7.98921 10.1744 7.23728 9.75302 6.57935C9.37178 5.98403 9.02886 5.0809 9.00173 4.49662ZM56.0106 9.60365C55.6774 10.1377 55.5679 10.7247 55.5679 11.6047C55.5679 12.5914 55.8958 14.0948 56.2705 14.9405C56.6921 15.8332 57.301 16.4909 57.8163 16.444C58.3316 16.444 59.0811 15.4103 60.0179 13.531C60.8611 11.7457 61.2827 10.1953 61.1422 9.63147C61.0016 9.11466 60.5332 8.40991 60.0648 8.08103C59.6432 7.75216 59.0811 7.51724 58.7532 7.51724C58.6113 7.51724 58.3261 7.64897 57.982 7.85802C58.3652 7.80445 58.7372 7.83538 59.0032 7.94221C59.4246 8.17719 59.8927 8.74113 60.0332 9.21109C60.2204 9.77503 59.8459 11.1379 59.0968 12.6417C58.4414 14.0516 57.5987 15.2735 57.271 15.3675C56.9901 15.4615 56.4752 14.9445 56.1943 14.2396C55.9602 13.4877 55.7729 11.9838 55.8666 10.8089C55.8944 10.3205 55.9387 9.92731 56.0106 9.60365ZM81.4196 10.3713C81.9147 10.4255 82.4358 10.5459 82.7388 10.7149C83.1601 10.9029 83.8156 11.6079 84.1433 12.3598C84.5178 13.0647 84.7987 13.9576 84.7987 14.3336C84.7987 14.7095 84.3306 15.4615 83.7219 15.9784C83.1602 16.4954 82.1302 16.9183 81.3812 16.9183C80.6789 16.9183 79.6022 16.4014 78.9467 15.7434C78.4959 15.2909 78.1115 14.7271 77.9002 14.251C77.8991 14.6809 77.9342 15.1002 78.0056 15.4103C78.1461 15.9741 78.8956 16.7728 79.692 17.1487C80.4883 17.5246 81.5657 17.8534 82.1746 17.8534C82.7367 17.9004 83.7673 17.4776 84.5168 16.9138C85.4068 16.256 85.7815 15.5513 85.7815 14.5647C85.7815 13.7659 85.2663 12.5444 84.6105 11.7457C83.7673 10.7121 83.0178 10.3362 81.9404 10.3362C81.7769 10.3362 81.601 10.3486 81.4196 10.3713ZM10.7405 34.6552C10.7217 34.6943 10.7056 34.7318 10.6923 34.7672C10.5518 35.1431 10.7392 35.9418 11.1139 36.5526C11.4887 37.1164 12.2382 37.5862 12.8471 37.5862C13.4561 37.5862 14.1587 37.3043 14.4866 37.0224C14.8145 36.6935 15.0487 35.9888 15.0487 35.472C15.0956 34.9552 14.7208 34.1565 14.2524 33.7336C13.784 33.2638 13.175 32.8879 12.9408 32.8879C12.6761 32.8879 12.162 33.138 11.79 33.4419C12.0737 33.4139 12.3982 33.4171 12.7024 33.4607C13.4515 33.5547 13.9196 33.9306 14.0133 34.5416C14.1069 35.0585 13.826 35.7635 13.4515 36.0924C13.0301 36.3744 12.2811 36.5624 11.7661 36.4214C11.2043 36.2804 10.783 35.7635 10.7362 35.1055C10.7247 34.9557 10.7273 34.8031 10.7405 34.6552ZM105.456 47.5466C105.081 47.9224 104.472 49.2379 104.097 50.5065C103.866 51.4349 103.494 52.6676 103.18 53.709L103.18 53.7092L103.18 53.71L103.18 53.7102C103.049 54.1439 102.929 54.5444 102.832 54.8759C102.553 55.6817 102.326 56.5398 102.228 57.0605C102.317 56.8576 102.483 56.6137 102.729 56.3004C103.15 55.6895 103.572 54.9846 103.572 54.6556C103.619 54.3736 103.806 53.5277 104.087 52.8698C104.321 52.2118 104.742 51.7889 105.023 51.9299C105.257 52.0708 105.491 52.9168 105.444 53.7157C105.398 54.5616 105.725 55.6895 106.1 56.2534C106.474 56.8644 106.708 57.6633 106.568 58.0392C106.428 58.5092 105.819 58.6972 104.742 58.6502C103.853 58.5562 102.823 58.2742 102.495 57.9453C102.335 57.8139 102.229 57.6916 102.181 57.5586C102.162 57.8505 101.907 58.289 101.614 58.5405C101.287 58.8694 100.865 59.7621 100.678 60.5608C100.443 61.3595 99.366 62.9569 98.1949 64.1315C97.0238 65.306 96.1338 66.2457 96.2275 66.2927C96.2743 66.3397 97.5859 66.4336 99.1318 66.5276C100.678 66.6216 102.27 66.4806 102.645 66.2457C103.254 65.8698 103.254 65.7289 102.504 65.2121C102.036 64.8832 101.661 64.1785 101.614 63.6616C101.568 63.1448 101.661 62.1582 101.849 61.4534C102.13 60.4198 102.458 60.1379 103.488 60.1379C104.191 60.1379 105.174 59.997 105.69 59.856C106.252 59.7151 106.955 59.903 107.47 60.3259C107.938 60.7957 108.266 61.7823 108.266 62.8629C108.313 63.8496 107.985 64.8832 107.563 65.306C107.189 65.6819 106.955 66.1047 107.142 66.2457C107.282 66.3866 109.203 66.4806 111.405 66.4806C113.606 66.4806 115.48 66.3397 115.574 66.1517C115.667 65.9168 114.918 64.9302 113.887 63.8966C112.669 62.675 111.779 61.2185 111.358 59.8091C111.03 58.5405 110.421 56.9431 109.999 56.1444C109.625 55.3457 108.828 53.2315 108.219 51.4461C107.657 49.6608 106.955 47.8754 106.673 47.5466C106.205 47.0297 106.018 47.0297 105.456 47.5466ZM117.166 49.8017C116.417 49.2849 115.902 48.6272 116.089 48.3453C116.276 48.0164 117.119 47.9224 118.291 48.1103C119.368 48.2513 122.319 48.4392 124.895 48.4862C127.472 48.5332 130.985 48.4392 132.765 48.2513C135.341 47.9694 135.997 48.0634 136.512 48.6741C136.981 49.2849 136.887 49.5668 135.997 50.1776C135.154 50.7884 134.873 51.5401 134.686 53.5603C134.592 54.4998 134.519 55.5228 134.467 56.2536L134.467 56.254L134.467 56.2554L134.466 56.2611C134.441 56.6232 134.42 56.9129 134.404 57.0841C134.404 57.6009 134.451 59.3862 134.545 61.0306C134.639 62.722 135.013 64.3664 135.341 64.6953C135.622 65.0241 136.231 65.306 136.606 65.306C136.981 65.306 137.871 64.7892 138.62 64.2254C139.323 63.6147 140.26 62.2991 140.775 61.2655C141.244 60.2789 141.899 59.1513 142.18 58.7754C142.461 58.3996 142.977 57.3659 143.305 56.4263C143.587 55.6163 144.079 54.2476 144.479 53.1329L144.479 53.1322L144.663 52.6207C145.038 51.4461 145.787 49.9427 146.256 49.2379C146.771 48.4862 147.427 48.0164 147.755 48.1573C148.036 48.2983 148.457 49.097 148.645 49.8957C148.785 50.7414 149.16 52.4328 149.441 53.7013C149.722 54.9228 150.237 56.4733 150.612 57.225C150.94 57.9297 151.408 59.4332 151.596 60.6078C151.783 61.7823 152.345 63.4267 152.814 64.2724C153.282 65.0711 154.125 65.9638 154.641 66.2457C155.156 66.5276 155.905 66.7155 156.28 66.7155C156.655 66.7155 157.264 66.1517 157.639 65.447C157.966 64.6953 158.529 62.0642 158.81 59.5741C159.091 57.0371 159.325 54.3591 159.325 53.5603C159.325 52.5737 159.044 52.0569 158.388 51.822C157.873 51.5871 157.311 51.1642 157.217 50.8823C157.03 50.4125 158.06 50.3185 161.808 50.4595C164.431 50.5535 167.054 50.8823 167.663 51.1642C168.225 51.4461 169.209 52.5267 169.865 53.5603C170.755 54.9698 170.989 55.8155 170.755 56.9901C170.614 57.7888 170.099 58.8694 169.677 59.3862C169.256 59.856 168.506 60.4668 167.991 60.7487C167.476 61.0306 166.164 61.3125 165.087 61.4065C163.634 61.5004 163.119 61.3595 163.26 60.9836C163.353 60.6547 163.681 60.4198 163.962 60.5138C164.243 60.5608 164.899 60.4198 165.414 60.1379C165.93 59.856 166.679 58.9164 167.054 58.0237C167.522 56.9901 167.616 55.9095 167.429 55.1108C167.195 54.453 166.539 53.4664 165.883 52.9966C165.227 52.5267 164.243 52.1039 163.681 52.1509C162.791 52.1509 162.604 52.3858 162.698 53.7013C162.698 54.5 162.557 57.8828 162.323 61.1246C161.901 66.9974 161.901 67.0444 162.979 67.5612C163.541 67.8901 164.009 68.4069 164.009 68.7358C164.009 69.1586 163.4 69.2056 161.339 68.8767C159.84 68.6418 157.451 68.3599 156.046 68.3129C154.641 68.219 151.924 68.031 150.097 67.8901C148.223 67.7491 146.677 67.5612 146.677 67.4203C146.677 67.2793 147.099 66.6216 147.661 65.9168C148.364 64.9302 148.504 64.2254 148.27 63.1918C148.129 62.3931 147.802 61.5944 147.614 61.3125C147.38 61.0306 146.256 60.8427 145.038 60.8427C143.398 60.8427 142.696 61.0776 142.18 61.7823C141.806 62.2991 141.525 63.2858 141.525 64.0375C141.525 64.7422 141.852 65.494 142.368 65.7289C142.899 66.0421 143.008 66.3553 142.696 66.6685C142.368 66.9974 140.447 67.0444 136.606 66.7625C133.514 66.5276 130.47 66.3397 129.861 66.3866C129.252 66.4336 128.643 66.2927 128.549 66.0108C128.455 65.7289 128.783 65.4 129.345 65.2121C130.095 64.9302 130.282 64.3664 130.329 62.628C130.376 61.3595 130.47 59.4332 130.563 58.2586C130.657 57.0841 130.798 54.7819 130.985 50.0366L128.174 50.1776C126.394 50.2716 124.989 50.1306 124.333 49.7078C123.443 49.1909 123.162 49.1909 122.553 49.8017C122.132 50.1776 121.944 50.8353 122.038 51.2112C122.178 51.5871 122.132 53.9362 121.897 56.3793C121.663 59.1043 121.663 61.5004 121.944 62.4871C122.178 63.3797 122.834 64.5073 123.396 64.9302C124.099 65.494 124.286 65.8698 123.959 66.2457C123.631 66.6685 123.022 66.6685 121.616 66.2457C120.586 65.9168 118.946 65.7759 118.009 65.9638C116.745 66.1517 116.229 66.0578 116.229 65.6819C116.229 65.353 116.651 64.6953 117.166 64.2724C117.822 63.6616 118.103 62.816 118.15 61.4534C118.15 60.63 118.225 58.8795 118.375 55.3786L118.376 55.3623L118.376 55.3396L118.378 55.31L118.378 55.3077C118.433 54.0296 118.497 52.5206 118.572 50.7414L117.166 49.8017ZM84.142 49.2849C82.8773 49.4728 81.5188 49.7547 81.2378 49.9427C80.9099 50.1306 80.7225 50.4595 80.863 50.7414C81.0036 51.0233 81.5657 51.2112 82.1746 51.2112C82.971 51.2112 83.1583 51.4461 83.0178 52.2918C82.971 52.8556 83.1115 55.1108 83.4394 57.319C83.7673 59.5272 84.0483 62.4401 84.0483 63.7556C84.0952 65.1181 83.9547 66.3397 83.6736 66.4336C83.4394 66.5276 82.8773 66.4336 82.5025 66.1987C82.1278 65.9638 81.2846 65.7759 80.6288 65.7759C79.8793 65.7759 78.8019 65.1181 77.7245 64.0375C76.7408 63.0509 75.9445 62.0642 75.9445 61.7823C75.9914 61.5004 75.6166 60.9366 75.1482 60.5138C74.6798 60.044 73.5087 59.4802 72.5718 59.1983L70.7918 58.7285C76.0382 52.9026 78.0056 51.1172 78.5677 50.9763C79.083 50.8353 79.5514 50.5534 79.5983 50.3655C79.6451 50.1776 78.0993 49.9897 76.1787 49.9427C73.3213 49.8017 72.6655 49.9427 72.6655 50.5065C72.6655 50.8823 72.9934 51.3052 73.3682 51.4461C73.7429 51.5871 74.0708 52.0569 74.0708 52.5267C74.0708 52.9496 72.8529 54.453 71.3539 55.8155C69.0586 57.9297 68.637 58.1647 68.356 57.4599C68.1686 56.9901 68.0281 55.8625 68.0281 54.9698C67.9968 53.8736 68.2935 53.0592 68.9181 52.5267C69.4334 52.0569 69.7613 51.5401 69.6676 51.3522C69.5739 51.1172 68.4497 51.0233 67.1849 51.0703C66.4929 51.0703 65.6798 51.1006 64.9778 51.1268H64.9777L64.9774 51.1268H64.9773H64.9772L64.977 51.1268C64.4439 51.1467 63.9749 51.1642 63.6717 51.1642C62.8285 51.2112 62.3601 51.4931 62.3601 51.916C62.3601 52.2918 62.7817 52.7616 63.2969 52.9966C63.859 53.1845 64.3743 53.6543 64.468 54.0302C64.5617 54.406 64.7959 55.4866 64.9833 56.3793C65.1706 57.272 65.3112 59.1983 65.2643 60.6078C65.2643 62.0172 65.4049 63.9905 65.6859 64.9772C65.967 66.2457 65.967 66.9035 65.5454 67.4203C65.2175 67.8431 64.468 68.172 63.9059 68.125C63.2969 68.125 62.079 67.5612 61.189 66.8565C60.2521 66.1047 59.1748 64.6953 58.8 63.6616C58.3784 62.628 57.5821 61.1716 57.02 60.3728C56.411 59.5741 55.0994 57.4129 54.1157 55.5336C53.132 53.6543 52.0078 52.1039 51.7267 52.1509C51.3988 52.1509 50.8836 53.0435 50.6025 54.1711C50.3214 55.2517 50.0404 57.0841 49.9467 58.2586C49.853 59.4332 49.3377 62.2991 48.7756 64.6013C48.073 67.5142 47.3235 69.3935 46.3866 70.6151C45.6372 71.5547 45.0282 72.4474 45.0282 72.5884C45.0282 72.7293 46.0119 72.7293 47.2767 72.5414C48.4946 72.4004 49.9467 72.2125 50.5557 72.0715C51.1178 71.9776 51.5862 71.5547 51.5862 71.1789C51.5862 70.803 51.2583 70.4741 50.8836 70.4741C50.5088 70.4741 50.0872 70.1453 49.9467 69.7694C49.8062 69.3935 49.7125 68.5009 49.7125 67.7961C49.6656 67.0444 49.9467 66.2457 50.2746 65.9168C50.6025 65.6349 51.8204 65.2591 52.9915 65.0711C54.5373 64.7892 55.1931 64.8832 55.521 65.353C55.7552 65.7289 56.13 66.5276 56.3173 67.1853C56.5516 67.9371 56.411 68.8297 55.9894 69.6754C55.5679 70.4741 55.521 71.0379 55.8021 71.1789C56.0831 71.3198 57.0668 71.0849 58.0505 70.6621C59.1279 70.1922 60.3927 70.0043 61.4232 70.1922C62.5474 70.4272 63.3906 70.2862 64.1401 69.7694C64.7022 69.3935 65.5454 69.1586 66.0138 69.2996C66.4354 69.4405 67.0444 69.3465 67.2786 69.0647C67.5596 68.8297 68.7307 68.5478 69.9955 68.5009C71.3539 68.4069 72.1971 68.125 72.1971 67.7961C72.1971 67.4672 71.916 67.1853 71.635 67.1853C71.3071 67.2323 70.5576 66.8565 69.9955 66.3866C69.1991 65.7289 68.9649 64.8362 68.7307 62.1582C68.4965 59.0573 68.4965 58.7754 69.1991 59.3392C69.6207 59.6211 71.0729 61.0776 72.3845 62.4871C73.1501 63.3099 74.0116 64.2288 74.7266 64.9914L74.729 64.9939L74.7338 64.9991L74.7385 65.0041C75.2431 65.5423 75.6737 66.0016 75.9445 66.2927C76.7877 67.1384 77.8182 67.6082 79.692 67.8431C81.0972 68.078 82.7836 68.219 83.4394 68.219C84.0952 68.219 86.2968 68.078 88.3579 67.9371C91.4027 67.7022 92.5269 67.3733 94.3538 66.2457C95.5717 65.447 96.6491 64.4134 96.7896 63.8966C96.9301 63.3797 96.5554 61.9703 96.0401 60.7487C95.478 59.4802 94.7754 58.3526 94.4943 58.1647C94.2133 57.9767 93.3701 57.7888 92.5738 57.7888C91.8243 57.7888 90.8406 57.5539 90.4658 57.319C89.9037 56.9431 89.9505 56.8491 90.8406 56.8491C91.4495 56.8491 92.4332 56.3323 93.0422 55.6746C93.7448 55.0168 94.2133 53.9362 94.2133 53.2315C94.2133 52.4797 93.7917 51.2112 93.2764 50.4125C92.3864 48.9091 92.2458 48.8621 89.4353 48.909C87.7958 48.956 85.4536 49.144 84.142 49.2849ZM174.783 54.0302C174.268 53.7483 173.846 53.2315 173.893 52.8556C173.893 52.2448 174.268 52.1509 175.626 52.4328C176.563 52.6207 177.734 52.9496 178.203 53.1375C178.624 53.3724 179.514 53.5603 180.17 53.5603C180.873 53.5603 181.294 53.7953 181.201 54.1711C181.107 54.453 180.592 54.9228 180.076 55.2047C179.421 55.4866 178.952 56.2853 178.812 57.319C178.671 58.2116 178.531 59.3862 178.531 59.903C178.484 60.6547 178.624 60.7017 179.093 60.3259C179.421 60.044 180.217 59.6211 180.873 59.4332C181.528 59.2453 182.84 58.5405 183.824 57.8358C184.807 57.178 185.604 56.3323 185.557 56.0504C185.557 55.7216 185.229 55.3457 184.854 55.2047C184.48 55.0638 184.152 54.7819 184.152 54.5C184.152 54.2181 184.48 53.9362 184.854 53.7953C185.229 53.6543 186.025 53.8892 186.634 54.2651C187.196 54.6409 188.461 54.9698 189.445 54.9698C190.663 54.9698 191.178 55.1578 191.178 55.6746C191.178 56.0974 190.757 56.3793 190.007 56.3793C189.351 56.3793 187.946 56.9901 186.869 57.7418C185.744 58.4466 183.964 59.5272 182.887 60.091C181.763 60.6078 180.873 61.2655 180.873 61.5474C180.873 61.8293 181.622 62.4401 182.512 62.9569C183.777 63.7086 184.199 64.2724 184.433 65.6819C184.62 66.6216 185.229 68.3129 185.838 69.4405C186.447 70.5211 187.243 71.3668 187.571 71.3668C187.852 71.3198 188.414 71.3198 188.742 71.3668C189.023 71.3668 189.258 71.8836 189.211 72.4944C189.117 73.2461 188.836 73.481 188.133 73.3871C187.618 73.2931 186.447 72.8703 185.557 72.4474C184.339 71.8366 183.496 70.85 182.184 68.3599C181.201 66.5746 180.404 64.7892 180.404 64.5073C180.404 64.1785 179.889 63.2858 178.062 61.0776L177.828 62.8629C177.687 63.8026 177.359 65.353 177.125 66.2457C176.891 67.1384 176.891 68.219 177.078 68.5948C177.313 68.9707 177.828 69.4405 178.249 69.6754C178.671 69.8634 178.999 70.3332 178.999 70.7091C178.999 71.2259 178.718 71.3198 177.968 71.0849C177.359 70.944 176.142 70.756 175.251 70.6621C174.361 70.6151 173.05 70.4272 172.347 70.2862C171.598 70.1453 171.036 69.8164 171.036 69.5345C171.036 69.2526 171.457 69.0647 171.972 69.0647C172.488 69.0647 173.097 68.6888 173.331 68.266C173.518 67.7961 173.893 66.0578 174.034 64.3664C174.221 62.675 174.549 61.1246 174.783 60.8427C174.97 60.5608 175.251 59.0573 175.439 57.4599C175.673 54.8289 175.626 54.453 174.783 54.0302ZM24.9461 70.981C24.842 71.0543 24.7392 71.1336 24.6408 71.2171C24.7415 71.1217 24.8445 71.0414 24.9461 70.981ZM26.3463 70.5766C26.6352 70.7709 26.7471 71.3189 26.7471 72.3728C26.7471 73.7827 26.5131 74.3466 25.8108 74.7226C25.1086 75.0516 24.6873 75.0046 24.1723 74.4876C23.9676 74.2821 23.7768 73.9923 23.6459 73.7104C23.6163 74.1617 23.6366 74.5824 23.7147 74.8435C23.8552 75.2664 24.3236 75.7362 24.7921 75.8772C25.2136 76.0181 26.0568 75.7832 26.6658 75.4073C27.4621 74.8435 27.6963 74.2797 27.6963 72.5884C27.6963 70.897 27.5558 70.4741 26.9 70.5211C26.7442 70.5211 26.5522 70.5419 26.3463 70.5766ZM86.9526 74.0448C88.5453 74.2328 89.81 74.0918 90.9343 73.575C91.8243 73.1991 92.7143 72.8703 92.9485 72.8233C93.1359 72.8233 93.4169 73.1522 93.6511 73.528C93.8385 73.9978 93.6043 74.6086 92.9017 75.3134C92.1053 76.0651 91.7306 77.1927 91.4495 79.6358C91.2153 81.4681 91.1216 83.2065 91.2153 83.5353C91.309 83.8172 91.9648 84.1931 92.7143 84.3341C93.4169 84.428 96.087 84.475 98.6633 84.381C102.786 84.2401 103.394 84.1461 103.676 83.3474C103.863 82.8776 104.003 81.2332 104.003 79.7767C104.05 77.6625 103.863 76.8638 103.113 76.1121C102.598 75.5953 101.755 75.1724 101.24 75.1724C100.724 75.1724 100.303 74.8435 100.303 74.4677C100.303 74.0918 100.443 73.669 100.678 73.575C100.865 73.4341 103.113 73.3401 105.69 73.2461C110.187 73.1522 110.374 73.1991 110.515 74.1858C110.561 74.7496 110.28 75.3603 109.812 75.5953C109.344 75.7832 108.594 76.8638 108.172 77.9444C107.47 79.5418 107.423 80.1996 107.845 81.891C108.126 82.9716 108.313 86.0254 108.266 93.4957L109.812 94.9052C110.608 95.7039 111.124 96.3616 110.842 96.3616C110.642 96.3616 109.52 96.4302 108.233 96.5087L107.563 96.5496C106.018 96.6905 104.05 96.8784 103.254 97.0194C102.177 97.1603 101.708 97.0664 101.708 96.6905C101.708 96.3616 102.364 95.7039 104.519 94.4353L104.238 90.5828C104.003 87.8108 103.722 86.4953 103.16 86.0724C102.645 85.6026 101.614 85.5086 99.6002 85.6965C98.0544 85.8375 95.7122 86.1194 94.3538 86.3073C92.1522 86.6362 91.918 86.8241 91.6369 88.0927C91.4964 88.8914 91.4027 90.2539 91.4027 91.1466C91.4027 92.0392 91.6837 93.4957 92.0116 94.3414C92.4332 95.516 92.7611 95.8448 93.4169 95.6569C93.9322 95.469 94.3069 95.6569 94.4943 96.2207C94.6348 96.6435 94.6348 97.3013 94.4943 97.6302C94.2601 98.053 93.979 98.006 93.1827 97.4422C92.2458 96.8315 91.7306 96.7845 88.8263 97.3483C87.0463 97.7241 85.2663 97.9591 84.9852 97.8651C84.6573 97.7711 84.3762 97.5362 84.3762 97.2543C84.3762 96.9724 84.8915 96.3147 85.5473 95.7509C86.5779 94.7642 86.6715 94.2474 86.7652 90.4418C86.8121 88.1397 86.5779 84.9448 86.2968 83.3944C85.9689 81.844 85.8284 80.0116 85.9689 79.3069C86.1094 78.5552 86.0626 77.5685 85.7815 77.0517C85.5473 76.5349 85.032 76.1121 84.751 76.1121C84.4231 76.159 83.861 75.8302 83.5799 75.4073C83.0646 74.8435 83.1115 74.6086 83.8141 74.2328C84.2357 73.9978 85.6879 73.9039 86.9526 74.0448ZM113.278 73.1991C113.138 73.3871 112.997 74.8905 112.904 76.5819C112.716 79.4478 112.763 79.6358 113.794 79.7767C114.59 79.8237 115.012 79.4478 115.667 77.9914C116.136 76.8638 116.932 75.9241 117.635 75.6422C118.291 75.4073 119.321 75.1254 119.977 75.0785L121.148 74.9375C121.242 85.1328 121.382 89.3612 121.57 90.9116C121.804 92.8849 121.71 94.1065 121.288 95.0461C120.961 95.7509 120.305 96.3616 119.883 96.3147C119.415 96.3147 119.04 96.6435 119.04 97.0194C119.04 97.6302 119.883 97.7241 124.193 97.6302C127.94 97.5362 129.345 97.3483 129.345 96.9254C129.345 96.5966 128.783 96.0328 128.128 95.7509C127.472 95.422 126.863 94.7172 126.769 94.2004C126.65 93.7611 126.429 92.2351 126.192 90.604L126.192 90.6038L126.115 90.0703L126.066 89.7371C125.832 87.7168 125.785 85.6026 126.02 84.8039C126.254 84.0522 126.301 81.3741 126.16 78.931L125.926 74.4677C127.659 75.0784 129.064 75.3134 130.189 75.3603C131.641 75.4073 132.437 75.6892 132.906 76.347C133.233 76.8638 133.468 77.7565 133.327 78.3672C133.14 79.1659 133.28 79.4009 134.03 79.4009C134.545 79.4009 135.06 79.119 135.107 78.8371C135.201 78.5082 135.201 77.1927 135.154 75.8772C135.06 74.6086 135.013 73.3871 135.013 73.1991C134.967 72.9642 134.498 72.8233 133.936 72.8233C133.327 72.8233 132.437 73.1522 131.922 73.528C131.219 73.9978 129.861 74.1388 126.675 73.9509C124.286 73.8569 121.897 73.575 121.382 73.2931C120.773 72.9642 119.789 72.9642 118.478 73.3401C117.026 73.669 116.042 73.669 115.058 73.2931C114.772 73.2034 114.493 73.1137 114.254 73.0371C113.868 72.913 113.588 72.8233 113.559 72.8233C113.513 72.8233 113.372 72.9642 113.278 73.1991ZM144.804 78.6961C145.178 77.6625 145.834 76.1121 146.349 75.2664C147.005 74.1858 147.567 73.7629 148.27 73.8569C148.973 73.9509 149.347 74.4677 149.582 75.6422C149.769 76.5349 150.237 78.6961 150.659 80.4815C151.034 82.2198 151.69 84.3341 152.111 85.1797C152.533 85.9785 153.188 88.0927 153.516 89.878C153.891 91.6164 154.641 93.8246 155.25 94.8112C155.859 95.7509 156.936 96.9724 157.639 97.4892C158.482 98.1 158.81 98.7108 158.669 99.2746C158.482 99.6974 158.013 100.073 157.592 100.073C157.123 100.073 155.812 99.7444 154.641 99.3685C153.188 98.8517 151.83 98.7108 150.191 98.9457C148.645 99.1336 147.708 99.0866 147.52 98.7108C147.286 98.4289 147.661 97.6302 148.41 96.9254C149.488 95.7509 149.628 95.375 149.347 93.4957C149.16 92.3211 148.645 91.0526 148.176 90.6767C147.614 90.2069 146.443 90.019 144.757 90.0659C142.743 90.1129 142.04 90.3478 141.384 91.2405C140.916 91.8513 140.541 92.744 140.494 93.2608C140.494 93.7776 140.494 94.5293 140.541 94.9052C140.588 95.281 141.103 95.9858 141.665 96.4556C142.368 97.0194 142.555 97.4422 142.227 97.7241C141.993 98.006 141.15 98.194 140.354 98.241C139.604 98.241 137.777 98.147 136.372 98.053C134.404 97.9121 133.749 97.6772 133.702 97.1134C133.608 96.5965 134.17 96.0328 135.294 95.516C136.231 95.0461 137.543 93.8246 138.199 92.7909C138.901 91.7573 139.791 90.1599 140.26 89.2672C140.728 88.3746 141.384 87.106 141.712 86.4483C142.087 85.7905 142.789 84.2401 143.305 82.9246C143.82 81.656 144.476 79.7297 144.804 78.6961ZM163.681 75.7362C163.4 76.0651 163.072 77.6625 162.885 79.3069C162.651 81.891 162.698 82.2198 163.447 82.0789C163.869 82.0319 164.618 81.2332 165.087 80.3405C165.508 79.4478 166.211 78.5082 166.586 78.3203C166.96 78.0853 168.178 78.0384 169.256 78.2263C170.52 78.4142 171.317 78.8371 171.598 79.4478C171.785 79.9177 171.785 81.3272 171.504 82.5957C171.27 83.8172 170.848 84.9918 170.567 85.2737C170.286 85.5556 168.975 85.8375 167.616 85.9784C165.508 86.1664 165.18 86.3543 165.087 87.294C164.946 88.1866 165.18 88.3276 166.586 88.3276C167.476 88.3276 168.647 88.5155 169.162 88.7974C169.677 89.0793 170.614 90.3478 171.27 91.6164C171.926 92.9319 172.441 94.3884 172.441 94.9052C172.441 95.422 171.738 96.5966 170.942 97.5362C169.724 98.8517 168.928 99.2746 167.288 99.4625C165.649 99.6504 164.899 99.5095 164.009 98.7578C163.213 98.147 162.744 97.1603 162.51 95.7039C162.276 94.4823 161.761 93.1668 161.339 92.744C160.73 92.2271 160.355 92.1802 160.028 92.556C159.793 92.8379 159.653 93.9655 159.7 95.0461C159.793 96.1267 160.074 97.4892 160.309 98.1C160.543 98.7108 161.667 99.5095 162.979 100.073C164.197 100.59 165.836 101.013 166.586 101.013C167.382 101.013 169.162 100.684 170.567 100.308C172.394 99.8384 173.565 99.1806 174.689 97.9591C175.486 97.0664 176.329 95.7509 176.469 95.0461C176.61 94.2944 176.61 93.2608 176.469 92.697C176.329 92.0862 175.673 91.0056 175.017 90.2069C174.268 89.3142 173.284 88.7035 172.207 88.5625C171.317 88.4216 170.567 88.1397 170.567 87.8578C170.567 87.5759 171.738 87.0591 173.144 86.6832C175.205 86.1194 175.86 85.6966 176.423 84.569C176.797 83.8172 177.125 82.6427 177.125 81.9849C177.125 81.3272 176.844 80.2466 176.469 79.5418C176.142 78.7901 175.345 77.9914 174.736 77.6625C174.127 77.3806 172.769 76.9578 171.738 76.7698C170.708 76.5819 168.881 76.394 167.71 76.394C166.539 76.347 165.227 76.0651 164.852 75.7362C164.29 75.2664 164.056 75.2664 163.681 75.7362ZM60.0179 77.5216C61.189 77.2866 62.6411 76.8638 63.2969 76.6289C63.9527 76.394 66.857 76.253 75.0077 76.5819L77.303 78.8371C79.1298 80.5754 79.692 81.4681 79.8793 82.9246C80.0199 83.9582 80.3478 85.5556 80.6288 86.4483C81.0036 87.8108 80.9099 88.6565 80.0667 91.1466C79.5514 92.8379 78.8488 94.8112 78.5677 95.5629C78.2867 96.3147 77.5372 97.3013 76.8814 97.7241C76.2256 98.194 74.1176 99.0866 72.1971 99.7444C70.2765 100.402 67.3723 101.06 65.7796 101.201C63.0159 101.483 62.7348 101.389 61.3295 100.167C60.4864 99.4155 59.4558 98.147 59.0811 97.3013C58.4721 95.9388 58.4721 95.7039 59.0811 95.328C59.4558 95.0931 60.0179 94.9052 60.2521 94.9052C60.5332 94.9052 61.4232 95.7509 62.2664 96.7845C63.3906 98.241 64.0933 98.6638 65.1707 98.6638C65.967 98.6638 66.9975 98.9457 67.466 99.2746C68.2154 99.7444 68.637 99.6974 69.6207 99.1336C70.3234 98.7578 71.635 97.7711 72.5718 97.0194C73.4618 96.2677 74.6329 94.7642 75.1013 93.7306C75.5229 92.697 75.9445 91.1466 75.9445 90.3478C75.9445 89.1733 75.6635 88.7035 74.914 88.3746C74.1957 88.0927 73.415 88.171 72.5718 88.6095C71.8223 88.9854 70.5107 89.2672 69.6207 89.2672C68.2154 89.2672 67.8875 89.5022 67.2786 90.9116C66.9038 91.8043 66.3886 92.556 66.1075 92.556C65.8733 92.556 65.6391 92.1802 65.6391 91.7573C65.6391 91.2875 65.358 89.878 64.9833 88.5625C64.6554 87.294 64.468 85.9785 64.6554 85.6496C64.8428 85.2267 65.3112 85.3207 66.3417 85.9784C67.2786 86.6049 68.5746 86.9181 70.2297 86.9181C71.5413 86.9181 73.1808 86.7302 73.8366 86.4483C74.6329 86.1194 75.0077 85.6026 75.0077 84.8039C75.0077 84.0991 74.1176 82.5957 72.7592 80.9513C71.4944 79.4478 69.8549 77.9914 69.1055 77.6625C68.356 77.3806 67.1849 77.2866 66.4823 77.4276C65.7796 77.6155 64.2806 78.4612 63.1096 79.3069C61.8916 80.1526 60.6269 81.5151 60.2521 82.4547C59.8774 83.3474 59.2216 84.0991 58.8469 84.0991C58.2847 84.0991 58.0974 83.3944 57.91 78.0384L60.0179 77.5216ZM42.6861 79.025C41.515 79.2599 39.3134 79.6358 37.7675 79.8237C36.2217 80.0586 34.8164 80.1526 34.6291 80.0586C34.3949 79.9647 34.2543 80.2935 34.2543 80.8103C34.2543 81.4681 34.5822 81.75 35.3317 81.75C35.8938 81.75 36.8307 82.0789 37.4396 82.4547C38.0018 82.8306 38.4702 83.5823 38.4702 84.0991C38.4702 84.8509 38.1891 84.9918 37.2054 84.9448C36.4559 84.8509 34.5354 85.5086 32.849 86.3073L29.8043 87.8108C29.2421 94.6703 29.289 96.7845 29.57 97.4892C29.8511 98.147 31.1627 99.5095 32.5211 100.543C34.2075 101.859 35.4722 102.422 36.5965 102.469C37.4865 102.516 39.126 102.328 40.2502 102.141C42.1239 101.765 42.2176 101.765 42.2176 102.798C42.2176 103.362 41.6555 104.255 40.9529 104.772C40.2034 105.335 39.4539 105.805 39.2197 105.852C38.9855 105.899 38.8918 106.322 39.0791 106.792C39.3602 107.544 39.5476 107.544 41.1871 106.886C42.1239 106.51 44.2787 106.228 45.9651 106.181C47.6514 106.181 49.3377 105.993 49.7125 105.758C50.0872 105.523 50.2746 105.1 50.0872 104.819C49.853 104.537 49.3377 104.302 48.9162 104.302C48.4477 104.302 47.6046 103.973 47.0424 103.597C46.4335 103.221 45.9651 102.61 45.9651 102.328C45.9651 102 46.6209 101.389 47.464 100.966C48.3072 100.543 50.2278 99.8384 51.7267 99.4155C54.0689 98.7578 54.4436 98.4759 54.8652 97.1603C55.1463 96.3147 55.3336 94.1535 55.3336 92.3211C55.3336 90.5358 55.1463 88.5155 54.9589 87.9047C54.7715 87.247 53.4599 86.0254 51.8204 84.9448C49.2441 83.2534 48.7756 83.1125 46.1993 83.2534C43.4824 83.3944 43.3887 83.3474 43.3887 82.2198C43.3887 81.4681 43.7634 80.9043 44.4661 80.5754C45.0282 80.2935 45.4966 79.7297 45.4966 79.3069C45.4966 78.8371 45.3561 78.5082 45.1687 78.5082C45.0963 78.5227 44.9434 78.5552 44.732 78.6001C44.2596 78.7004 43.4952 78.8627 42.6861 79.025ZM182.887 81.9849C182.278 81.6091 181.856 80.9513 181.856 80.5285C181.95 79.9177 182.231 79.8237 183.168 80.1056C183.824 80.2935 185.651 80.4345 187.196 80.3875C189.445 80.3405 190.241 80.5285 191.084 81.2802C191.647 81.797 192.115 82.3608 192.115 82.5957C192.115 82.7836 191.506 83.0655 190.71 83.3004C189.726 83.5353 189.117 84.0991 188.602 85.2737C188.227 86.1664 187.993 87.106 188.133 87.3879C188.274 87.6698 187.993 88.6565 187.477 89.6431C187.009 90.5828 186.494 92.3681 186.306 93.6366C186.166 94.8582 185.697 96.5026 185.323 97.2543C184.62 98.6168 184.667 98.6638 185.697 98.3819C186.26 98.194 187.29 97.7711 188.04 97.4422C188.742 97.0664 189.445 96.5026 189.679 96.1267C189.866 95.7509 191.365 94.3414 193.052 93.0259C194.738 91.6634 196.846 90.2069 197.736 89.7371C198.626 89.2672 200.219 87.9517 201.249 86.7772C202.28 85.6026 203.451 84.1931 203.826 83.6293C204.481 82.7366 204.622 82.6897 205.465 83.3474C206.355 83.9582 206.355 84.1461 205.746 85.8375C205.371 86.8241 205.044 89.1263 204.997 90.9116C204.95 92.9319 204.622 94.8112 204.154 95.7509C203.685 96.5496 203.357 97.8181 203.357 98.5698C203.357 99.2746 203.029 100.778 202.655 101.953C202.28 103.127 202.046 104.396 202.139 104.772C202.28 105.147 202.795 105.617 203.357 105.852C203.873 106.04 204.2 106.463 204.154 106.792C204.013 107.121 203.264 107.309 202.139 107.262C201.156 107.215 198.954 107.027 197.268 106.792C194.598 106.463 194.223 106.275 194.129 105.382C194.035 104.49 194.223 104.302 195.16 104.302C195.816 104.302 196.706 104.114 197.174 103.879C197.596 103.691 198.205 102.892 198.532 102.141C198.813 101.389 199.188 98.9457 199.329 96.6905C199.469 94.3884 199.938 91.9453 200.312 91.1466C200.687 90.3948 201.015 89.5961 201.015 89.4082C201.015 89.1733 200.734 89.3612 200.406 89.7841C200.078 90.2069 198.86 91.2875 197.642 92.1332C196.424 93.0259 193.708 95.0461 191.553 96.6905C189.398 98.3349 186.822 100.12 185.791 100.637C184.761 101.154 183.215 102.328 182.418 103.174C181.528 104.114 180.592 104.678 180.17 104.537C179.748 104.396 179.467 103.738 179.467 102.892C179.467 102.141 179.842 100.496 180.357 99.2746C180.826 98.006 181.482 95.7509 181.81 94.2004C182.137 92.65 182.559 90.2069 182.746 88.7974C182.934 87.3879 183.308 85.4147 183.496 84.428C183.871 82.8776 183.777 82.5957 182.887 81.9849ZM20.8573 82.5957C20.6699 83.4414 20.8104 84.0991 21.3257 84.569C21.841 85.0388 22.2157 85.1328 22.5904 84.8039C22.8715 84.522 22.9652 83.6763 22.8247 82.8306C22.6373 81.891 22.2625 81.2802 21.841 81.2802C21.4662 81.2802 21.0446 81.844 20.8573 82.5957ZM22.4031 95.6569C22.731 95.1401 23.1057 94.1065 23.2462 93.4017C23.3868 92.65 23.8084 92.0862 24.1831 92.0862C24.5578 92.0862 25.0263 92.4621 25.1668 92.9319C25.3073 93.3547 25.12 94.5293 24.6984 95.516C24.2768 96.4556 23.9489 97.9121 23.9489 98.6638C23.9489 99.7444 24.3705 100.402 25.7289 101.483C26.6658 102.281 27.7432 102.892 28.0711 102.892C28.3521 102.892 28.6332 103.315 28.6332 103.832C28.6332 104.537 28.3053 104.772 27.4621 104.772C26.8063 104.772 26.1973 104.631 26.1037 104.443C26.01 104.208 24.6515 103.691 23.0589 103.268C21.232 102.704 20.0141 102.094 19.733 101.483C19.3583 100.731 19.5457 100.12 20.5762 98.6168C21.2788 97.5362 22.0752 96.2207 22.4031 95.6569ZM18.1894 94.6695C17.742 95.4472 17.1799 96.4245 16.7351 97.0194C16.2198 97.7711 15.0487 99.2276 14.1119 100.167C12.9876 101.342 12.5661 102.141 12.8471 102.657C13.0345 103.033 13.6903 103.362 14.3461 103.362C15.0019 103.362 16.5009 103.832 17.7656 104.349C18.9835 104.913 20.2951 105.57 20.6699 105.758C21.0446 105.993 21.841 106.463 22.4031 106.792C23.2462 107.262 23.5741 107.215 24.1831 106.651C24.6047 106.275 24.9326 105.664 24.8857 105.382C24.8857 105.053 24.1831 104.584 23.3868 104.396C22.5436 104.208 21.232 103.55 20.4357 102.986C19.6862 102.375 18.7493 101.906 18.4683 101.953C18.1404 101.953 17.7656 101.671 17.6719 101.389C17.5783 101.06 17.7656 100.261 18.1404 99.6034C18.4683 98.9457 18.7493 98.006 18.7493 97.4892C18.7493 96.9724 19.1709 95.9858 19.733 95.281C20.2483 94.5293 20.5762 93.6366 20.4357 93.2608C20.2951 92.8849 20.0141 92.556 19.733 92.556C19.4988 92.556 18.9367 93.2608 18.5151 94.1065C18.4174 94.2731 18.3074 94.4644 18.1894 94.6695ZM212.211 97.1603C211.929 96.5496 211.836 95.516 211.976 94.8112C212.117 94.0595 212.492 93.4957 212.726 93.4957C213.007 93.4957 213.475 93.9655 213.85 94.5763C214.225 95.1401 214.834 96.6435 215.162 97.9121C215.49 99.1806 216.052 100.449 216.38 100.731C216.707 101.013 216.989 101.624 216.942 102.094C216.942 102.657 216.192 103.127 214.506 103.644C213.007 104.067 211.602 104.913 211.039 105.617C210.431 106.369 209.775 106.745 209.494 106.557C209.213 106.322 208.978 105.805 208.978 105.382C208.978 104.913 209.822 103.738 210.852 102.798C212.211 101.483 212.726 100.637 212.726 99.6034C212.726 98.8517 212.492 97.7241 212.211 97.1603ZM217.176 93.9655C216.801 93.9655 216.473 94.2944 216.473 94.6703C216.473 95.0461 216.848 96.2677 217.363 97.3953C217.832 98.4759 218.347 100.261 218.534 101.389C218.815 103.268 218.769 103.409 217.316 103.973C216.473 104.349 215.068 105.194 214.272 105.852C213.428 106.557 212.726 107.544 212.726 108.06C212.726 108.577 212.96 109 213.194 109C213.475 109 214.646 108.342 215.911 107.497C217.129 106.651 219.05 105.758 220.174 105.523C221.298 105.241 222.469 104.631 222.75 104.208C223.172 103.55 223.078 102.986 222.329 101.671C221.813 100.731 220.736 99.1806 219.94 98.241C219.096 97.3013 218.3 95.9858 218.16 95.281C218.019 94.5293 217.551 93.9655 217.176 93.9655ZM86.5309 50.144C86.4373 50.379 86.3436 51.8359 86.2968 53.4337V53.4338C86.2377 55.3028 86.2159 55.9919 86.5377 56.246C86.7256 56.3944 87.0307 56.3944 87.514 56.3944C88.2163 56.3944 89.0589 56.1124 89.3867 55.7835C89.7144 55.5015 89.9484 54.4206 89.9484 53.4337C89.9484 52.3528 89.6207 51.3659 89.0121 50.755C88.4972 50.238 87.7481 49.8151 87.3736 49.8151C87.0459 49.8151 86.6245 49.9561 86.5309 50.144ZM144.77 53.8097C144.489 54.4676 144.255 55.2665 144.255 55.5955C144.255 55.8775 143.88 56.5354 143.412 56.9584C142.991 57.4283 142.757 58.0862 142.897 58.3682C143.038 58.6972 143.88 59.1201 144.77 59.2611C145.659 59.4491 146.642 59.4021 146.923 59.1671C147.391 58.8382 147.391 58.4622 146.83 57.3343C146.455 56.5354 146.127 55.1725 146.127 54.2796C146.127 53.3867 145.94 52.6348 145.706 52.6348C145.472 52.6348 145.051 53.1517 144.77 53.8097ZM50.155 61.4699C50.4359 60.624 50.67 59.2141 50.67 58.3682C50.7168 57.3813 50.9509 56.8644 51.2786 57.0054C51.5595 57.0993 51.9809 57.9453 52.2617 58.8382C52.4958 59.7781 53.1044 60.906 53.5258 61.3759C53.9471 61.8929 54.1812 62.5038 53.9939 62.8328C53.8067 63.1147 52.8703 63.4437 51.934 63.5377C50.9977 63.6317 50.1082 63.5377 49.9678 63.3497C49.8273 63.1147 49.921 62.2688 50.155 61.4699ZM86.999 57.7573C86.8118 58.0393 86.9054 59.2611 87.1395 60.53C87.4204 61.7519 87.514 63.1147 87.3736 63.5847C87.2331 64.0077 87.4672 64.7126 87.8417 65.0886C88.2163 65.4645 88.9653 65.7935 89.4803 65.7935C90.0421 65.7935 90.7911 65.1825 91.3529 64.2896C92.0083 63.2087 92.2424 62.3158 92.0552 61.3289C91.9147 60.53 91.3061 59.4491 90.7443 58.8852C90.1825 58.3212 89.1526 57.7103 88.4971 57.5693C87.7949 57.3813 87.1395 57.4753 86.999 57.7573ZM145.004 80.691C144.536 81.5369 144.208 82.4768 144.255 82.8058C144.255 83.1348 143.88 83.9807 143.318 84.7326C142.803 85.4375 142.429 86.4714 142.476 87.0824C142.616 87.9283 142.991 88.1633 144.723 88.3982C145.893 88.5392 147.111 88.6332 147.391 88.5392C147.719 88.4452 148 88.0223 148 87.6463C148 87.2704 147.672 86.3305 147.298 85.5315C146.876 84.6856 146.689 83.5107 146.876 82.6178C147.017 81.6309 146.876 80.738 146.455 80.1271C145.8 79.2342 145.753 79.2341 145.004 80.691ZM43.1795 88.5862C43.2263 87.5523 43.0859 86.0015 42.8986 85.2026C42.5241 83.6987 42.5709 83.6517 44.1158 83.6517C45.0053 83.6517 45.9416 83.8397 46.1757 84.0277C46.4566 84.2157 47.7206 85.5785 51.3254 89.8551L50.9509 93.0038C50.7636 94.6956 50.2955 96.5754 49.921 97.1864C49.5464 97.7503 48.4228 98.5492 47.4397 98.9252C46.5034 99.3482 45.4735 99.5831 45.2394 99.4891C44.9585 99.3482 44.7244 97.7973 44.6308 95.9175C44.584 93.8967 44.2562 92.1579 43.8349 91.5469C43.4604 90.936 43.1795 89.6201 43.1795 88.5862ZM36.1103 86.0485C35.4549 86.3305 34.5654 86.8944 34.0972 87.3174C33.6759 87.7403 33.1609 88.7272 33.0205 89.5261C32.88 90.3251 33.0205 92.3928 33.3482 94.2257C33.7695 96.7634 34.1909 97.7973 35.2208 98.8312C36.3912 99.9121 36.9062 100.1 38.7788 99.9591L41.026 99.7711C40.9323 96.5754 40.6982 94.4606 40.4174 93.0508C40.3254 92.5893 40.2184 92.0625 40.1095 91.5262L40.1095 91.5257L40.1093 91.5252L40.1093 91.5249C39.8856 90.423 39.6538 89.2815 39.5279 88.5862C39.2938 87.5523 38.9661 86.4244 38.7788 86.1425C38.5915 85.8135 38.1702 85.5315 37.8425 85.5785C37.5616 85.5785 36.7657 85.8135 36.1103 86.0485Z" fill="#3379BB"/>
  <path d="M17.2663 3.53186C16.8471 2.63712 15.7757 1.45983 14.9838 0.941828H14.9372C14.1453 0.423823 13.7727 0 14.1453 0C14.518 0.0470914 15.1701 0.282548 15.5428 0.612188C15.962 0.941828 16.7539 1.78947 17.3129 2.59003C17.9185 3.39058 18.3843 4.61496 18.3843 5.41551C18.3843 6.21607 18.0582 7.1579 17.639 7.53463C16.9402 8.19391 16.9402 8.09972 17.4992 6.73407C18.0116 5.41551 18.0116 4.99169 17.2663 3.53186Z" fill="#3379BB"/>
  <path d="M84.4844 14.3629C84.4378 13.9391 84.1117 12.9501 83.7391 12.1025L83.0869 10.5956L84.0651 11.7729C84.5775 12.4321 85.0434 13.4681 84.9968 14.1274C84.9968 14.7867 84.6241 15.6814 84.1583 16.1524C83.7391 16.6233 83.1801 17 82.9006 17C82.6211 16.9529 82.9006 16.5291 83.5061 16.0111C84.0651 15.4931 84.531 14.7396 84.4844 14.3629Z" fill="#3379BB"/>
</svg>