<svg xmlns="http://www.w3.org/2000/svg" width="195" height="210" viewBox="0 0 195 210" fill="none">
  <path fill-rule="evenodd" clip-rule="evenodd" d="M169.687 8.3125C169.73 8.3125 169.687 8.44042 169.602 8.58965C169.538 8.71757 168.195 10.5297 166.617 12.5764C165.061 14.6231 162.652 17.8423 161.266 19.7184C159.902 21.5946 157.812 24.4727 156.661 26.1143C155.51 27.7559 153.484 30.6767 152.184 32.6167C150.883 34.5568 148.858 37.6268 147.686 39.439C146.513 41.2511 144.53 44.3851 143.294 46.3678C142.057 48.3505 139.755 52.188 138.156 54.8956C136.578 57.5819 134.34 61.526 133.167 63.6366C131.994 65.7473 130.651 68.199 130.161 69.0731C129.692 69.9472 128.711 71.7807 128.008 73.1238C127.283 74.4669 125.172 78.6029 123.317 82.2912C121.463 85.9795 119.053 90.883 117.966 93.1641C116.879 95.4453 115.088 99.3255 113.979 101.799C112.849 104.272 110.824 108.919 109.438 112.139C108.053 115.358 105.814 120.773 104.428 124.184C103.064 127.595 101.465 131.625 100.868 133.138C100.292 134.652 99.1836 137.637 98.4161 139.747C97.67 141.858 96.2202 145.887 95.2182 148.701C94.2162 151.516 92.6172 156.163 91.6579 159.041C90.6772 161.92 89.8031 164.457 89.6751 164.691C89.4833 165.075 89.4193 165.032 89.0142 164.158C88.7797 163.625 87.7564 161.429 86.7757 159.255C85.7737 157.08 83.9615 153.2 82.725 150.62C81.4884 148.041 79.8042 144.544 78.9514 142.839C78.0986 141.133 76.2012 137.487 74.7302 134.737C73.2804 131.987 70.914 127.702 69.5069 125.25C68.0998 122.798 66.0744 119.323 65.0298 117.575C63.9638 115.805 61.8319 112.458 60.2755 110.113C58.7405 107.768 56.6725 104.741 55.7132 103.398C54.7325 102.054 53.2188 99.9864 52.3447 98.8138C51.4706 97.6412 50.234 96.0636 49.6158 95.2961C48.9975 94.5286 48.4858 93.7824 48.4645 93.6545C48.4645 93.4626 48.6777 93.42 49.1467 93.5053C49.5305 93.5905 50.895 94.0596 52.1954 94.5926C53.4746 95.1042 56.033 96.2768 57.8451 97.1722C59.6573 98.0676 62.4501 99.5813 64.0278 100.498C65.6054 101.415 69.2937 103.781 72.2358 105.743C75.1566 107.704 79.2925 110.476 81.4032 111.904C84.196 113.78 85.5392 114.548 86.3067 114.718C87.1381 114.91 87.5432 114.91 88.2254 114.676C88.6944 114.526 89.6112 113.908 90.2508 113.29C91.0609 112.522 92.6386 110.348 95.4527 106.041C97.67 102.651 101.38 97.0443 103.682 93.5905C105.985 90.1368 108.202 86.8109 108.607 86.2353C109.012 85.6597 111.4 82.2059 113.915 78.6029C116.431 74.9999 118.883 71.5035 119.352 70.8213C119.821 70.1604 121.697 67.5381 123.509 65.0224C125.321 62.5067 128.626 57.9443 130.864 54.8956C133.082 51.8469 136.813 46.8582 139.136 43.8095C141.439 40.7608 143.741 37.7334 144.253 37.0938C144.743 36.4543 146.342 34.4289 147.792 32.6167C149.263 30.8046 151.459 28.1183 152.696 26.6473C153.932 25.1762 155.851 22.9377 156.981 21.6372C158.089 20.358 160.136 18.0555 161.522 16.5205C162.908 15.0068 165.317 12.5338 166.852 11.0201C168.387 9.52771 169.666 8.3125 169.687 8.3125V8.3125ZM85.1767 74.1898C86.8183 74.1898 87.6285 74.2964 88.9076 74.7228C89.8244 74.9999 91.0822 75.5755 91.6792 76.0019C92.2974 76.407 93.1929 77.1319 93.6619 77.6009C94.1309 78.0699 94.8558 78.9867 95.2609 79.6263C95.6659 80.2658 96.2629 81.545 96.5613 82.4404C96.9877 83.7409 97.1157 84.5084 97.0943 86.0221C97.0943 87.0881 96.9451 88.5165 96.7532 89.22C96.5613 89.9236 96.1136 91.0748 95.7299 91.7784C95.3461 92.5032 94.4081 93.6971 93.5553 94.5499C92.5959 95.5093 91.5726 96.2981 90.6772 96.7245C89.9097 97.1083 88.5665 97.5773 87.6924 97.7692C86.5838 98.0037 85.5818 98.0676 84.3879 97.9824C83.4498 97.9184 82.1067 97.6626 81.4032 97.428C80.6996 97.1722 79.6976 96.7245 79.1646 96.426C78.6316 96.1062 77.6509 95.3174 76.9687 94.6778C76.2865 94.0169 75.3911 92.951 75.0073 92.3114C74.6236 91.6718 74.0906 90.5205 73.8134 89.753C73.451 88.6444 73.3444 87.8982 73.3657 86.1287C73.3657 84.4871 73.4936 83.5277 73.8134 82.5044C74.0479 81.7369 74.5809 80.543 75.0073 79.8395C75.4337 79.1359 76.1373 78.1979 76.5636 77.7501C76.99 77.3024 77.8641 76.5776 78.5037 76.1512C79.1433 75.7248 80.4225 75.1065 81.3819 74.7867C82.7889 74.3177 83.4925 74.1898 85.1767 74.1898ZM127.773 85.2759H147.387C162.972 85.2759 166.98 85.3399 166.916 85.5318C166.873 85.681 166.255 88.3459 165.53 91.4586C164.805 94.5712 163.995 97.9824 163.739 99.027C163.483 100.072 163.185 101.074 163.1 101.202C162.993 101.415 159.902 101.479 148.815 101.479C137.516 101.457 134.659 101.521 134.467 101.735C134.318 101.884 133.529 103.632 132.698 105.636C131.866 107.64 131.184 109.431 131.184 109.623C131.184 109.964 131.355 109.985 132.932 109.836C133.913 109.751 136.621 109.687 138.966 109.687C141.503 109.708 143.869 109.815 144.829 109.985C145.703 110.134 147.195 110.518 148.133 110.795C149.071 111.094 150.414 111.627 151.118 111.968C151.822 112.33 153.101 113.119 153.975 113.716C154.849 114.313 156.192 115.464 156.96 116.296C157.748 117.127 158.772 118.449 159.262 119.281C159.752 120.112 160.435 121.626 160.797 122.692C161.159 123.758 161.543 125.378 161.692 126.316C161.842 127.318 161.884 129.13 161.82 130.686C161.756 132.158 161.543 134.162 161.351 135.164C161.159 136.166 160.861 137.509 160.69 138.148C160.499 138.788 160.03 140.152 159.624 141.197C159.219 142.22 158.537 143.691 158.111 144.48C157.684 145.29 156.917 146.548 156.427 147.316C155.915 148.083 154.849 149.512 154.06 150.492C153.271 151.494 151.758 153.072 150.734 154.01C149.69 154.969 148.112 156.291 147.217 156.973C146.321 157.656 144.85 158.615 143.976 159.148C143.102 159.66 141.375 160.555 140.138 161.152C138.902 161.749 136.834 162.559 135.555 162.986C134.254 163.412 132.058 163.988 130.651 164.265C129.244 164.542 126.942 164.883 125.535 165.032C123.893 165.181 121.505 165.245 118.819 165.16C116.303 165.075 113.553 164.862 111.89 164.585C110.355 164.35 107.541 163.753 105.601 163.284C103.661 162.794 101.017 162.026 99.738 161.578C98.4375 161.109 97.3502 160.683 97.2862 160.619C97.2223 160.555 97.3075 160.022 97.4781 159.404C97.6486 158.786 98.8639 155.225 100.186 151.473C101.507 147.721 102.829 143.99 103.149 143.158C103.469 142.327 103.725 141.645 103.746 141.602C103.767 141.581 104.258 141.922 104.855 142.348C105.43 142.796 106.582 143.542 107.413 144.032C108.223 144.502 109.566 145.205 110.398 145.546C111.208 145.909 112.658 146.399 113.596 146.655C114.534 146.889 115.919 147.188 116.687 147.316C117.454 147.422 119.032 147.529 120.205 147.529C121.377 147.529 123.104 147.401 124.042 147.209C124.98 147.039 126.409 146.676 127.24 146.399C128.05 146.122 129.5 145.504 130.438 145.035C131.376 144.565 132.868 143.606 133.743 142.903C134.617 142.199 135.747 141.112 136.237 140.472C136.727 139.833 137.452 138.66 137.836 137.829C138.497 136.443 138.539 136.187 138.539 134.098C138.539 131.944 138.518 131.795 137.729 130.153C137.111 128.896 136.557 128.128 135.597 127.19C134.809 126.465 133.679 125.655 132.783 125.229C131.952 124.845 130.609 124.355 129.798 124.163C128.924 123.971 126.814 123.779 124.682 123.715C121.868 123.608 120.461 123.672 118.393 123.971C116.921 124.163 114.598 124.61 113.212 124.952C111.847 125.293 110.568 125.57 110.398 125.57C110.227 125.57 110.078 125.421 110.078 125.25C110.078 125.079 110.888 122.948 111.869 120.496C112.849 118.065 114.427 114.313 115.365 112.139C116.282 109.964 118.03 106.041 119.203 103.398C120.375 100.754 122.187 96.7671 123.253 94.5499C124.298 92.3327 125.748 89.3266 126.473 87.8982L127.773 85.2759ZM48.8696 117.255L59.0177 117.234L61.6187 121.668C63.0471 124.099 64.2836 126.316 64.4542 127.062L60.1263 127.041C56.8431 127.041 55.7558 127.105 55.5639 127.318C55.436 127.467 54.9457 128.555 54.4553 129.727C53.9863 130.9 53.6025 131.859 53.6452 131.902C53.6665 131.923 55.6492 131.987 58.0583 132.03C61.8958 132.094 62.578 132.158 63.708 132.584C64.4115 132.84 65.4988 133.33 66.1597 133.671C66.7993 134.012 67.8653 134.801 68.5475 135.419C69.2297 136.038 70.1038 137.125 70.5302 137.829C70.9566 138.553 71.4256 139.769 71.6175 140.707C71.8947 141.922 71.9373 142.903 71.852 144.864C71.7668 146.42 71.5536 147.998 71.2977 148.915C71.0632 149.725 70.6155 150.983 70.2957 151.686C69.9972 152.368 69.2297 153.733 68.6115 154.671C67.9719 155.588 66.714 157.101 65.7973 157.975C64.8806 158.871 63.5587 160.022 62.8552 160.534C62.1517 161.045 60.8938 161.813 60.0837 162.261C59.2522 162.687 57.7172 163.327 56.6725 163.689C55.6066 164.052 53.9223 164.499 52.9416 164.712C51.5345 165.011 50.1914 165.096 47.0788 165.096C43.5184 165.096 42.6869 165.011 40.2565 164.521C38.7215 164.201 36.5256 163.604 35.353 163.22C34.1805 162.815 32.752 162.282 32.1977 162.047C31.3876 161.685 31.1957 161.493 31.1957 161.067C31.1957 160.768 31.3876 160.065 31.6434 159.51C31.8779 158.956 32.8586 156.632 33.7754 154.351C34.7134 152.049 35.6089 150.109 35.7368 150.045C35.8647 149.959 36.419 150.258 36.952 150.706C37.4637 151.132 38.3378 151.771 38.8707 152.134C39.3824 152.475 40.4058 153.029 41.1093 153.328C41.8128 153.648 43.0067 154.031 43.7742 154.223C44.5204 154.394 45.9701 154.543 46.9722 154.543C47.9529 154.543 49.2107 154.458 49.7437 154.33C50.2554 154.202 51.4066 153.818 52.302 153.477C53.1761 153.115 54.4766 152.368 55.1802 151.793C55.8837 151.238 56.7578 150.258 57.1416 149.618C57.6532 148.808 57.8878 148.105 57.973 147.209C58.0583 146.399 58.0157 145.61 57.8451 145.077C57.6959 144.587 57.3121 143.841 56.9923 143.372C56.6725 142.881 56.033 142.242 55.5639 141.922C55.1162 141.602 54.3061 141.176 53.7944 141.005C53.2614 140.813 52.0036 140.557 51.0229 140.43C49.6584 140.238 48.6351 140.259 46.9722 140.43C45.7356 140.579 43.4971 141.005 42.0047 141.389C40.5337 141.773 39.2332 142.007 39.1266 141.901C39.0413 141.815 41.024 136.635 43.5397 130.388C46.0554 124.163 48.2726 118.641 48.4858 118.151L48.8696 117.255ZM124.788 171.407H127.56V173.965H124.788V171.407ZM129.265 171.407H132.037V173.965H129.265V171.407ZM36.0992 171.641C37.1439 171.62 37.7408 171.748 38.5936 172.153C39.3611 172.515 39.8941 172.963 40.8961 174.455L40.9601 179.593C41.0027 182.834 40.9387 185.073 40.7895 185.627C40.6616 186.139 40.2992 186.842 39.9794 187.226C39.6596 187.588 38.956 188.079 38.4444 188.313C37.8048 188.59 36.9946 188.74 36.0992 188.74C35.0332 188.761 34.4363 188.633 33.6475 188.228C33.0718 187.951 32.3257 187.375 31.9845 186.97C31.4729 186.33 31.3663 185.925 31.1531 184.092C31.0252 182.813 30.9825 180.531 31.0678 178.442C31.1744 175.692 31.281 174.733 31.6008 174.072C31.814 173.603 32.2191 173.006 32.4962 172.75C32.7734 172.473 33.3916 172.11 33.8607 171.94C34.3297 171.769 35.3317 171.641 36.0992 171.641ZM42.2819 171.833H45.1813L45.1387 174.114C45.1174 175.393 45.0321 176.587 44.9681 176.779C44.8615 177.078 44.5844 177.163 42.8149 177.163L42.5377 175.948C42.3885 175.266 42.2605 174.072 42.2605 173.262L42.2819 171.833ZM46.5458 171.833H56.5659V188.462H52.0888V175.244H50.8097V188.462H46.5458V171.833ZM92.5959 171.833H102.616V188.462H98.139V175.244H96.8598V188.462H92.5959V171.833ZM128.839 174.733C129.5 174.797 130.438 175.052 130.971 175.308C131.525 175.585 132.144 176.14 132.463 176.63C132.954 177.376 133.018 177.717 133.103 181.853H127.773V183.665C127.773 184.667 127.88 185.669 127.986 185.904C128.114 186.16 128.349 186.33 128.519 186.33C128.711 186.33 128.924 186.224 129.01 186.075C129.095 185.925 129.223 185.137 129.372 182.813H132.996L133.06 184.305C133.103 185.563 133.039 185.947 132.613 186.65C132.335 187.141 131.739 187.737 131.27 188.036C130.694 188.398 130.054 188.569 129.052 188.633C128.306 188.697 127.261 188.633 126.771 188.505C126.281 188.377 125.556 187.993 125.193 187.674C124.81 187.354 124.341 186.714 124.127 186.224C123.808 185.52 123.744 184.795 123.744 181.64C123.744 178.464 123.808 177.803 124.127 177.056C124.362 176.587 124.788 175.969 125.108 175.671C125.428 175.393 126.153 175.031 126.686 174.882C127.24 174.733 128.2 174.669 128.839 174.733ZM141.524 174.711C141.993 174.754 142.633 174.988 142.91 175.223C143.208 175.436 143.571 175.841 143.72 176.118C143.912 176.502 143.976 177.994 143.869 187.183L143.23 187.823C142.889 188.185 142.27 188.526 141.844 188.612C141.439 188.676 140.842 188.676 140.522 188.612C140.202 188.526 139.648 188.228 138.646 187.396V190.402H134.382L134.51 174.946L138.646 174.839V175.415C138.646 175.969 138.667 175.99 139.03 175.649C139.222 175.436 139.691 175.138 140.032 174.946C140.458 174.711 140.97 174.626 141.524 174.711ZM161.245 174.733C162.076 174.797 162.95 175.01 163.377 175.266C163.803 175.5 164.315 175.99 164.549 176.374C164.954 177.014 164.997 177.483 165.082 188.484H163.057C161.117 188.484 161.032 188.462 161.053 187.524L160.563 187.993C160.307 188.27 159.688 188.548 159.219 188.612C158.75 188.676 158.025 188.633 157.578 188.505C157.045 188.334 156.64 188.015 156.363 187.567C156.021 187.013 155.936 186.501 155.936 185.009C155.915 183.964 156.043 182.898 156.192 182.578C156.384 182.194 157.002 181.768 158.217 181.192C159.177 180.745 160.051 180.361 160.136 180.361C160.221 180.361 160.456 180.19 160.669 179.999C160.925 179.743 161.053 179.316 161.053 178.677C161.032 178.144 160.968 177.589 160.882 177.419C160.797 177.27 160.52 177.184 160.285 177.206C159.923 177.27 159.859 177.483 159.752 180.169H155.915L155.979 178.57C156.021 177.355 156.128 176.865 156.49 176.396C156.725 176.054 157.258 175.607 157.663 175.372C158.047 175.138 158.708 174.882 159.113 174.797C159.539 174.711 160.499 174.69 161.245 174.733ZM67.2257 174.839V188.484H62.9618L63.0258 185.797C63.0684 183.559 63.0258 183.154 62.7486 183.154C62.578 183.154 62.2583 183.324 62.0664 183.516C61.7466 183.836 61.6826 184.262 61.6826 188.484H57.8451L57.8664 186.181C57.8664 184.774 57.973 183.687 58.1223 183.367C58.2715 183.069 58.7192 182.663 59.8705 182.109L59.0816 181.768C58.4421 181.512 58.2289 181.278 58.0796 180.638C57.9517 180.19 57.8664 179.38 57.8664 178.826C57.8451 178.272 57.9517 177.547 58.0796 177.227C58.2075 176.907 58.57 176.374 58.8898 176.054C59.2522 175.671 59.8278 175.393 60.51 175.244C61.107 175.138 61.8319 175.01 62.109 174.967C62.4075 174.924 63.6867 174.882 67.2257 174.839ZM68.0785 174.839H77.0327V177.824H74.6875V188.484H70.4236V177.824H68.0785V174.839ZM77.6723 174.839H81.9362V177.078C81.9362 178.869 82.0001 179.316 82.256 179.423C82.4478 179.466 83.1514 179.529 83.8549 179.529C84.5585 179.529 85.4752 179.657 85.8803 179.849C86.328 180.02 86.7757 180.446 86.9889 180.851C87.266 181.384 87.3513 182.109 87.3513 184.007C87.3513 186.053 87.2874 186.565 86.9249 187.204C86.6264 187.737 86.264 188.015 85.6671 188.185C85.1767 188.334 83.3219 188.441 77.6723 188.484V174.839ZM113.276 174.839V188.484H109.012L109.076 185.797C109.119 183.559 109.076 183.154 108.799 183.154C108.628 183.154 108.308 183.324 108.117 183.516C107.797 183.836 107.733 184.262 107.733 188.484H103.895L103.917 186.181C103.917 184.774 104.023 183.687 104.172 183.367C104.322 183.069 104.769 182.663 105.921 182.109L105.132 181.768C104.492 181.512 104.279 181.278 104.13 180.638C104.002 180.19 103.917 179.38 103.917 178.826C103.895 178.272 104.002 177.547 104.13 177.227C104.258 176.907 104.62 176.374 104.94 176.054C105.302 175.671 105.878 175.393 106.56 175.244C107.157 175.138 107.882 175.01 108.159 174.967C108.458 174.924 109.737 174.882 113.276 174.839ZM113.915 174.839H122.87V177.824H120.524V188.484H116.261V177.824H113.915V174.839ZM149.412 174.946L149.476 177.547C149.498 178.975 149.604 180.169 149.69 180.169C149.775 180.169 150.031 180.02 150.265 179.849C150.649 179.593 150.713 179.252 150.777 177.461C150.82 176.289 150.969 175.244 151.097 175.095C151.267 174.903 151.928 174.818 153.207 174.818C155.041 174.818 155.062 174.839 154.955 175.308C154.892 175.564 154.785 176.609 154.721 177.611C154.657 178.591 154.465 179.636 154.295 179.892C154.145 180.148 153.506 180.617 151.758 181.491L152.61 181.789C153.079 181.939 153.74 182.344 154.039 182.663C154.572 183.196 154.636 183.431 154.721 185.392C154.785 186.565 154.892 187.737 154.955 187.993C155.062 188.462 155.041 188.484 153.143 188.484C151.438 188.484 151.203 188.42 151.011 188.057C150.905 187.801 150.798 186.778 150.798 185.755C150.798 184.689 150.692 183.665 150.542 183.367C150.393 183.069 150.095 182.791 149.903 182.77C149.562 182.727 149.519 183.005 149.519 188.484L145.255 188.462L145.234 181.789C145.212 178.122 145.276 175.052 145.383 174.967C145.49 174.882 146.428 174.839 149.412 174.946Z" fill="#D14A4B"/>
  <path d="M35.5234 180.368C35.5234 177.383 35.5448 174.825 35.5874 174.676C35.63 174.526 35.8645 174.398 36.0991 174.398C36.3336 174.398 36.5681 174.548 36.6321 174.718C36.696 174.889 36.7386 177.362 36.7386 180.219C36.7386 183.054 36.6534 185.506 36.5681 185.655C36.4828 185.826 36.227 185.911 35.9925 185.868C35.5874 185.804 35.5661 185.613 35.5234 180.368Z" fill="#FDFBFB"/>
  <path d="M127.773 178.769C127.773 178.236 127.837 177.66 127.922 177.468C127.986 177.298 128.242 177.17 128.498 177.213C128.882 177.277 128.946 177.447 129.052 179.728H128.413C127.794 179.728 127.773 179.686 127.773 178.769Z" fill="#FDFBFB"/>
  <path d="M138.603 181.626C138.582 179.323 138.646 177.383 138.753 177.319C138.859 177.234 139.115 177.17 139.328 177.17C139.541 177.17 139.755 177.362 139.818 177.66C139.882 177.916 139.904 179.899 139.882 182.052C139.818 185.549 139.776 185.996 139.435 186.209C139.136 186.38 139.008 186.38 138.859 186.124C138.753 185.954 138.625 183.928 138.603 181.626Z" fill="#FDFBFB"/>
  <path d="M61.6398 179.131C61.6185 178.47 61.7038 178.023 61.8957 177.852C62.0662 177.703 62.3647 177.596 62.5779 177.596C62.919 177.596 62.9617 177.788 62.9617 179.195C62.9617 180.069 62.8977 180.794 62.7911 180.794C62.7058 180.794 62.4287 180.645 62.1515 180.474C61.7891 180.219 61.6825 179.92 61.6398 179.131Z" fill="#FDFBFB"/>
  <path d="M107.69 179.131C107.669 178.47 107.754 178.023 107.946 177.852C108.116 177.703 108.415 177.596 108.628 177.596C108.969 177.596 109.012 177.788 109.012 179.195C109.012 180.069 108.948 180.794 108.841 180.794C108.756 180.794 108.479 180.645 108.202 180.474C107.839 180.219 107.733 179.92 107.69 179.131Z" fill="#FDFBFB"/>
  <path d="M81.936 185.485L81.9573 183.758V182.052L82.533 182.116C83.1086 182.18 83.1086 182.201 83.1086 183.779C83.1086 185.378 83.1086 185.378 81.936 185.485Z" fill="#FDFBFB"/>
  <path d="M159.731 184.589C159.731 183.545 159.795 183.267 160.328 182.67L160.946 181.967L160.989 183.886C161.031 185.335 160.989 185.868 160.733 186.103C160.456 186.401 160.392 186.401 160.093 186.103C159.859 185.89 159.752 185.399 159.731 184.589Z" fill="#FDFBFB"/>
</svg>