<svg width="275" height="74" viewBox="0 0 275 74" fill="none" xmlns="http://www.w3.org/2000/svg">
<path fill-rule="evenodd" clip-rule="evenodd" d="M4.40866 0.5273C3.70991 0.552342 2.58691 0.652511 1.88816 0.752679C1.06463 0.827806 0.615436 1.0031 0.590481 1.25352C0.565525 1.45386 0.765169 1.6542 1.03968 1.72932C1.31419 1.80445 1.71347 2.20512 1.91312 2.6058C2.16267 3.0816 2.56196 3.43219 3.03611 3.5574C3.46035 3.65756 3.78478 3.8579 3.80973 3.98311C3.80973 4.13336 3.16089 4.68429 2.38727 5.23522C1.48888 5.88631 0.86499 6.53741 0.640392 7.11338C0.440748 7.58918 0.291016 8.26531 0.291016 8.6159C0.291016 8.96649 0.515614 10.0433 0.765169 10.9949C1.01472 11.9715 1.51383 13.4741 1.91312 14.3756C2.537 15.9032 2.56196 16.0785 2.28745 17.3806C2.11276 18.1319 2.0379 19.1837 2.13772 19.7096C2.23754 20.2855 2.48709 20.7363 2.78656 20.8865C3.06107 21.0368 3.68495 21.137 4.15911 21.137C4.63326 21.137 5.08246 21.2371 5.15732 21.3874C5.23219 21.5376 5.10741 21.8381 4.88281 22.0886C4.65822 22.3139 4.23397 22.965 3.95946 23.516C3.68495 24.0669 3.26071 25.1938 3.03611 26.0202C2.78656 26.8466 2.41223 28.6746 2.18763 30.102C1.96303 31.5044 1.78834 33.5829 1.78834 34.7348C1.78834 35.8617 1.96303 37.7399 2.18763 38.9169C2.41223 40.0938 2.91134 41.7466 3.31062 42.6231C3.70991 43.4745 4.03433 44.4762 4.03433 44.8769C4.03433 45.3276 3.73486 45.8535 3.03611 46.5547C2.48709 47.1056 2.0379 47.7066 2.0379 47.8819C2.0379 48.0322 2.537 48.533 3.16089 48.9337C3.78478 49.3344 4.50848 50.0606 4.78299 50.5114C5.0575 50.9371 5.2821 51.6132 5.2821 52.0139C5.2821 52.4396 4.88281 53.1909 4.13415 54.1425C3.23576 55.2193 3.01116 55.67 3.2108 55.9455C3.33558 56.1458 3.95946 56.4964 4.6083 56.6968C5.23219 56.8971 5.88103 57.2227 6.08067 57.3979C6.33023 57.6484 6.43005 58.9506 6.45501 62.782C6.50492 66.5383 6.60474 68.1911 6.9042 69.2178C7.1288 69.9691 7.578 70.8956 7.90242 71.2963C8.2518 71.672 8.75091 71.9725 9.02541 71.9725C9.29992 71.9725 9.79903 72.3231 10.1484 72.7237C10.7473 73.4499 10.8472 73.475 12.8436 73.475C14.8151 73.5 14.9149 73.475 15.8133 72.6736L16.7616 71.8473C16.7366 37.4644 16.7616 37.2891 17.2607 36.7883L17.7598 36.2874C19.7063 38.3159 20.48 39.3676 20.7545 39.9185C21.029 40.4695 21.4283 41.4461 21.6529 42.1223C21.8775 42.7733 22.2268 44.1507 22.4015 45.1774C22.6012 46.2041 22.8757 48.2325 23.0254 49.685C23.1502 51.1374 23.4247 53.3411 23.6493 54.5682C23.8489 55.7952 24.2482 57.448 24.4978 58.1993C24.6294 58.5956 24.8027 59.0895 24.9664 59.556L24.9667 59.5567L24.9667 59.5568C25.1132 59.9742 25.252 60.3697 25.3463 60.6534C25.5709 61.2294 26.045 63.0825 26.3944 64.7854C26.7438 66.4632 27.193 68.0158 27.3926 68.2161C27.5673 68.4165 27.742 68.7671 27.742 68.9674C27.742 69.1677 28.1163 69.7437 28.5655 70.2195C29.0147 70.7204 29.8133 71.6469 30.3623 72.298L31.3605 73.5H31.3639C40.6939 73.475 40.7188 73.4749 40.8436 72.9241C40.8935 72.5985 41.2928 70.8706 41.717 69.0926C41.8828 68.398 42.0675 67.6118 42.2475 66.8457L42.2479 66.8443L42.2483 66.8426C42.5288 65.6488 42.7977 64.5046 42.9648 63.8338C43.1089 63.2553 43.2943 62.4491 43.4812 61.6361C43.6504 60.9006 43.8208 60.1595 43.963 59.5766C44.2375 58.3495 44.5869 56.9221 44.7117 56.4463C44.8364 55.9705 45.1858 54.5431 45.4603 53.3161C45.7348 52.089 46.1341 50.3862 46.3338 49.5598C46.5334 48.7334 47.0575 46.5297 47.4817 44.6766C47.9309 42.8234 48.3801 41.1957 48.4799 41.0454C48.6297 40.8952 49.0789 41.1707 49.7028 41.7967L50.701 42.7984C50.6012 46.4295 50.701 46.9804 51.1252 47.8068C51.4252 48.3542 51.5613 48.6025 51.5416 48.8376C51.5252 49.0328 51.4015 49.219 51.1751 49.5598C50.9256 49.9604 50.701 50.5614 50.701 50.887C50.701 51.1875 50.9755 52.0389 51.2999 52.7652C51.8739 53.9922 51.8988 54.2677 51.7741 57.0724C51.6493 59.9522 51.6742 60.1025 52.2233 60.8037C52.5477 61.2043 53.3462 61.8054 53.9951 62.1059C54.6689 62.4314 55.193 62.8822 55.193 63.0825C55.193 63.2828 54.619 64.1092 53.9202 64.9106C53.2215 65.6869 52.4229 66.8388 52.1733 67.4649C51.8988 68.0909 51.6992 69.0926 51.6992 69.7187C51.6992 70.3447 51.8489 71.2462 52.0735 71.722C52.2732 72.1978 52.5726 72.7988 52.7473 73.0242C53.0468 73.4249 54.3445 73.4499 70.3409 73.475H87.635L87.5102 0.727637C45.4104 0.727637 40.619 0.802763 40.6439 1.05318C40.6938 1.20344 40.5441 1.77941 40.3445 2.30529C40.1199 2.80613 39.7206 4.13337 39.471 5.23522C39.1965 6.33707 38.8721 8.3154 38.7224 9.61759C38.6891 9.90688 38.6497 10.2518 38.6063 10.6314L38.606 10.6344L38.6048 10.6444L38.6047 10.6454C38.453 11.973 38.2532 13.7205 38.0985 15.0016C37.9238 16.6544 37.5744 18.808 37.3748 19.7596C37.1751 20.7363 36.701 22.3139 36.3516 23.2655C36.0022 24.2422 35.553 26.0452 35.3534 27.2723C35.1537 28.5244 34.9291 30.0269 34.8543 30.653C34.7794 31.279 34.5049 32.481 34.2803 33.3575C33.9559 34.5345 33.7562 34.9101 33.4318 34.9101C33.1823 34.9101 32.9826 34.8851 32.9826 34.86C32.9826 34.81 31.4104 28.4242 29.4889 20.6361C27.5673 12.848 25.8953 6.16178 25.7705 5.73606C25.6819 5.45146 25.5177 4.76256 25.3406 4.01935C25.2684 3.71623 25.194 3.40408 25.1217 3.10664C24.8971 2.07991 24.6475 1.10327 24.5477 0.953016C24.4229 0.752679 21.4283 0.652511 15.0147 0.552342C9.8739 0.502258 5.10741 0.477216 4.40866 0.5273ZM95.1216 10.1184V19.6344H273.054V0.602427H95.1216V10.1184ZM178.722 26.1454L181.168 26.0703C182.491 26.0202 187.906 25.9701 193.196 25.9701C198.487 25.945 203.253 25.9951 203.803 26.0953C204.352 26.2205 205.574 26.7965 208.195 28.5244L208.17 30.7782C208.17 32.2306 208.294 33.4326 208.544 34.1589C208.769 34.7849 209.093 35.4611 209.293 35.6614C209.467 35.8617 209.792 36.6631 209.991 37.4143C210.191 38.1656 210.54 39.568 210.74 40.5446C210.886 41.1791 211.106 42.2045 211.324 43.2228C211.441 43.772 211.559 44.3192 211.663 44.8018C211.963 46.1791 212.312 47.5814 212.437 47.932C212.537 48.2826 212.886 48.7835 213.161 49.0589C213.435 49.3344 213.66 49.7351 213.66 49.9354C213.66 50.1357 213.46 50.5114 213.211 50.7618C212.986 51.0373 212.811 51.5381 212.836 51.8887C212.836 52.2643 213.111 52.9655 213.385 53.4413C213.685 53.9171 213.934 54.7184 213.959 55.1942C213.959 55.67 213.884 56.847 213.785 57.8237C213.66 59.1259 213.685 59.7269 213.934 60.1526C214.134 60.4781 214.858 61.1292 215.532 61.58C216.23 62.0307 216.954 62.5817 217.154 62.8321C217.428 63.1576 217.553 64.1844 217.653 66.6886C217.753 69.293 217.877 70.2446 218.202 70.7204C218.426 71.0709 218.651 71.7471 218.776 73.0994L214.533 73.1745C212.188 73.1995 210.216 73.1494 210.116 73.0493C210.016 72.9241 209.817 72.0225 209.667 71.0459C209.542 70.0442 209.243 68.8672 209.043 68.4666C208.769 67.9156 208.444 67.6903 207.87 67.5901C207.421 67.515 205.025 67.54 202.555 67.6652C199.46 67.8405 197.838 68.0158 197.314 68.2662C196.915 68.4916 196.291 68.9674 195.942 69.3681C195.592 69.7687 195.168 70.6202 194.993 71.2212C194.794 71.8473 194.569 72.5234 194.444 72.7237C194.294 73.0493 193.097 73.0994 178.722 73.2246V26.1454ZM95.2464 26.4459C95.1715 26.6212 95.1466 37.189 95.1715 49.9354L95.2464 73.0994L111.592 73.2246C112.84 70.5951 114.262 68.4415 115.56 66.7136C116.883 64.9857 118.255 63.0324 118.605 62.3312C118.954 61.6551 119.353 60.4531 119.453 59.7018C119.578 58.8003 119.902 57.9489 120.426 57.1976C120.851 56.5716 121.724 55.4447 122.348 54.6934C122.997 53.9421 124.245 52.0139 125.118 50.4362C126.016 48.8586 126.84 47.5564 126.965 47.5564C127.09 47.5564 127.214 52.8152 127.239 60.3279L127.314 73.0994C129.336 73.3748 130.384 73.475 130.933 73.475C131.482 73.475 132.18 73.2997 132.505 73.0994C133.004 72.7488 133.054 72.5735 133.004 70.4198L132.929 68.0909C134.95 64.0091 135.549 62.7319 135.549 62.5817C135.549 62.4565 135.15 61.9556 134.676 61.5299C134.202 61.0791 133.803 60.5533 133.803 60.403C133.803 60.2277 134.152 59.7269 134.576 59.3262L135.325 58.5749C134.961 56.5678 134.689 55.0131 134.476 53.793L134.476 53.7899L134.474 53.7811L134.47 53.7547C134.335 52.9827 134.223 52.3458 134.127 51.8136C133.877 50.2109 133.703 47.907 133.703 45.4278C133.703 41.7216 133.728 41.4712 134.377 40.1189C134.776 39.2424 135.05 38.2407 135.05 37.6147C135.05 37.0137 134.776 35.8116 134.401 34.9101C133.952 33.8083 133.778 33.0069 133.877 32.4059C133.927 31.9301 134.352 30.8032 134.776 29.9017C135.325 28.7498 135.549 27.9735 135.499 27.2723L135.425 26.2706C127.664 26.1454 127.564 26.1704 127.164 26.7214C126.965 27.0219 125.492 29.2506 123.945 31.6547L123.342 32.5915L123.337 32.5993C121.909 34.8193 120.287 37.3388 119.503 38.5412C119.135 39.1057 118.616 39.9142 118.039 40.8132C117.207 42.1077 116.256 43.5899 115.46 44.8018C113.564 47.7567 112.99 48.483 112.765 48.2325C112.541 47.9821 112.541 46.8302 112.79 43.2241C112.99 40.6448 113.364 37.4143 113.639 36.037C114.013 34.1338 114.113 32.8817 114.038 30.7782C113.963 28.5995 113.838 27.8482 113.439 27.1471L112.94 26.2706C97.2678 26.1454 95.3462 26.1955 95.2464 26.4459ZM139.592 49.9354C139.567 37.189 139.592 26.6212 139.667 26.4459C139.767 26.1955 142.362 26.1454 165.371 26.2706L166.968 27.0219C167.867 27.4476 168.915 28.1738 169.339 28.6746C169.763 29.1755 170.262 30.0269 170.412 30.5528C170.587 31.0787 170.737 32.3057 170.762 33.2824C170.762 34.259 170.861 35.3108 170.936 35.6363C171.061 36.012 171.535 36.4627 172.234 36.8384C172.858 37.1639 173.457 37.5145 173.557 37.6147C173.681 37.7148 173.457 39.2675 173.082 41.0454C172.633 43.2491 172.384 45.1023 172.384 46.755C172.359 49.1591 172.384 49.2342 173.057 49.8352C173.681 50.4112 173.706 50.4863 173.432 51.3878C173.257 51.8887 172.733 52.7401 172.234 53.241C171.585 53.9421 171.161 54.1675 170.562 54.1926C170.113 54.1926 169.688 54.0924 169.614 53.9421C169.539 53.8169 169.189 53.6917 168.815 53.6917C168.316 53.6667 167.842 53.9672 167.118 54.7435C166.569 55.3195 165.571 56.3462 164.872 57.0474C163.724 58.1743 163.549 58.2494 162.751 58.0991C162.277 57.999 161.428 57.8737 160.879 57.7986C160.081 57.6985 159.731 57.7986 159.132 58.2744C158.733 58.6 158.034 59.5265 157.585 60.3529C157.136 61.2043 156.687 62.5566 156.512 63.5833C156.337 64.56 156.287 65.6118 156.387 65.9624C156.462 66.3129 156.811 66.9891 157.161 67.4649C157.485 67.9407 157.885 68.8172 158.009 69.4182C158.159 69.9941 158.184 70.7704 158.084 71.121C157.959 71.4967 157.635 71.8973 157.335 71.9975C156.986 72.1478 156.786 72.3982 156.836 72.6736C156.886 73.0743 156.337 73.0994 139.667 73.0994L139.592 49.9354ZM222.145 49.685V73.2246C243.357 73.2246 243.606 73.2246 243.856 72.7237C243.981 72.4483 244.106 71.722 244.106 71.096C244.106 70.4699 244.056 69.8188 243.981 69.6686C243.906 69.4933 243.556 69.3681 243.232 69.4182C242.858 69.4432 242.558 69.318 242.483 69.0926C242.409 68.8923 242.508 68.5417 242.683 68.2913C242.833 68.0659 243.432 67.6903 243.981 67.4398L244.979 66.9891C245.328 60.2027 245.478 59.1509 245.802 58.5749C246.152 57.9739 246.451 57.7986 247.175 57.7736C247.949 57.6985 248.123 57.5983 248.223 57.0724C248.298 56.7218 248.498 56.4714 248.672 56.5215C248.897 56.5966 248.997 58.5749 249.097 64.8605C249.171 69.3931 249.271 73.1244 249.296 73.1745C249.321 73.1995 250.719 73.2246 252.416 73.2246C254.986 73.1995 255.51 73.1494 255.76 72.7738C255.934 72.5484 256.084 71.9224 256.084 71.4215C256.084 70.8956 255.909 69.8439 255.71 69.0926C255.385 67.8656 255.385 67.6402 255.71 67.0892C255.909 66.7387 256.209 66.4632 256.334 66.4632C256.483 66.4632 256.533 65.8622 256.434 64.9106C256.359 64.0341 256.409 61.9306 256.558 60.2027C256.708 58.4748 256.933 56.6467 257.082 56.1458C257.257 55.4697 257.457 55.2193 257.756 55.2694C258.006 55.2944 258.33 55.5949 258.505 55.9455C258.612 56.1616 258.957 56.9105 259.399 57.8697C259.673 58.4666 259.986 59.145 260.302 59.827C261.1 61.6301 261.974 63.5833 262.273 64.2094C262.548 64.8355 263.571 67.0892 264.544 69.2178L266.316 73.0994H273.902C274.451 70.1444 274.426 70.0693 273.778 69.2178C273.403 68.742 272.754 67.6652 272.355 66.8388C271.931 66.0124 271.432 64.6101 271.232 63.7086C271.032 62.807 270.783 61.5299 270.683 60.8287C270.558 59.9522 270.309 59.3512 269.81 58.8253C269.41 58.4247 268.911 57.5732 268.687 56.9472C268.437 56.246 268.212 54.468 268.113 52.2142C268.013 50.2609 267.863 48.5831 267.763 48.533C267.638 48.483 267.564 47.932 267.564 47.306C267.564 46.6799 267.788 45.3527 268.088 44.376C268.362 43.3744 268.761 41.997 268.986 41.2959C269.186 40.6197 269.41 39.8184 269.485 39.5429C269.535 39.2675 269.51 38.6414 269.385 38.1656C269.211 37.5646 269.261 36.8885 269.485 36.037C269.66 35.3609 270.084 34.3592 270.434 33.8584C270.783 33.3325 271.182 32.9068 271.307 32.9068C271.432 32.9068 271.681 32.5311 271.806 32.1054C271.956 31.6546 272.205 30.2273 272.38 28.9501C272.63 26.9217 272.63 26.5961 272.305 26.3958C272.105 26.2706 270.583 26.1454 268.936 26.1454H265.941C264.589 29.0853 263.653 31.1291 262.997 32.5591L262.989 32.5771L262.978 32.5996C262.627 33.3667 262.357 33.955 262.148 34.4093C261.524 35.7115 260.826 37.239 260.576 37.79C260.327 38.3409 259.802 39.5179 259.403 40.4194C259.004 41.3209 258.53 42.1723 258.355 42.2976C258.139 42.4645 257.972 42.4562 257.856 42.2725C257.781 42.1223 257.407 41.9219 257.032 41.8468C256.384 41.6965 256.334 41.5713 256.334 40.4945C256.334 39.8184 256.483 38.7917 256.683 38.1656C256.883 37.5395 257.107 36.3626 257.207 35.5362C257.357 34.3592 257.307 33.7582 256.958 32.7815C256.533 31.6046 256.533 31.3541 256.908 29.0252C257.107 27.6479 257.232 26.4459 257.182 26.3457C257.132 26.2205 255.311 26.1454 253.164 26.1454H249.221C248.922 34.9853 248.772 38.3159 248.697 39.2925C248.548 41.0204 248.523 41.0454 247.874 40.9453C247.524 40.8952 247.15 40.7199 247.05 40.5696C246.95 40.4194 246.975 40.194 247.1 40.0438C247.25 39.8935 247.2 39.0922 246.95 37.9152C246.751 36.8885 246.426 35.5863 246.227 35.0353C246.052 34.4844 245.703 33.5829 245.478 33.032C245.253 32.481 244.779 31.6546 244.455 31.2289C244.13 30.7782 243.856 30.1521 243.856 29.8516C243.856 29.5261 243.781 29.0503 243.731 28.7748C243.656 28.4993 243.182 28.0235 242.658 27.723C242.159 27.4225 241.51 26.9467 241.236 26.6713C240.737 26.1454 240.587 26.1203 231.453 26.1454H222.145V49.685ZM74.3457 9.02091V6.26046V3.5H80.2899L80.215 8.89544L74.3457 9.02091ZM101.144 5.88403C101.569 5.55779 102.293 5.15627 102.693 5.0057C103.092 4.88023 104.291 4.80494 105.315 4.83004C106.639 4.88023 107.438 5.05589 108.063 5.40722C108.537 5.68327 109.187 6.31065 109.511 6.78745C109.811 7.26426 110.061 7.79125 110.061 7.96692C110.061 8.16768 109.611 8.26806 108.687 8.26806C107.938 8.26806 107.313 8.16768 107.313 8.01711C107.313 7.86654 107.064 7.5403 106.764 7.26426C106.364 6.91293 105.84 6.76236 105.066 6.73726C104.241 6.73726 103.767 6.91293 103.292 7.31445C102.818 7.71597 102.593 8.26806 102.443 9.14639C102.343 9.89924 102.368 10.7525 102.518 11.2795C102.668 11.7563 103.043 12.3837 103.317 12.6597C103.717 13.011 104.216 13.1616 105.091 13.1616C106.189 13.1616 106.414 13.0612 107.188 12.2331C107.738 11.6057 108.287 11.2795 108.687 11.2795C109.037 11.2795 109.486 11.3297 109.686 11.4049C109.886 11.4802 110.061 11.7312 110.061 11.9821C110.061 12.208 109.836 12.7852 109.561 13.2369C109.261 13.7388 108.562 14.2909 107.763 14.6673C106.864 15.0939 105.99 15.2947 105.066 15.2947C104.316 15.2947 103.192 15.119 102.568 14.9183C101.944 14.6924 101.119 14.2156 100.745 13.8392C100.37 13.4627 99.8707 12.6597 99.6459 12.0323C99.3712 11.2293 99.2713 10.5015 99.3712 9.52281C99.4711 8.76996 99.6958 7.76616 99.9206 7.33954C100.145 6.88783 100.695 6.23536 101.144 5.88403ZM130.59 9.97452L130.665 14.9183H133.163L133.288 5.0057H130.541L130.59 9.97452ZM154.617 14.9433L154.567 9.97452L154.492 5.0308H157.239L158.863 7.21407C159.252 7.75014 159.646 8.29614 159.983 8.76362L159.993 8.77758L159.997 8.78335C160.411 9.35696 160.737 9.80929 160.861 9.97452C161.061 10.2757 161.36 10.4513 161.485 10.351C161.61 10.2506 161.76 9.04601 161.86 5.15627L164.482 5.0308V15.0688H161.735L160.686 13.5631C160.315 13.0512 159.849 12.386 159.43 11.7866L159.43 11.7864L159.425 11.7805L159.423 11.7766L159.42 11.7733L159.414 11.7643L159.406 11.7533C159.156 11.3955 158.923 11.0629 158.738 10.8027C158.263 10.1251 157.764 9.573 157.614 9.62319C157.489 9.67338 157.314 10.8779 157.114 14.9183L154.617 14.9433ZM185.786 9.97452L185.861 14.9183H194.852L194.977 13.0361L188.608 12.9106V10.903C193.828 10.7776 193.978 10.7525 194.128 10.2255C194.203 9.89924 194.203 9.49772 194.128 9.34715C194.003 9.12129 193.229 9.02091 191.531 9.02091C190.182 9.02091 188.958 8.92053 188.783 8.82015C188.583 8.71977 188.484 8.31825 188.534 7.89163L188.608 7.13878L194.603 6.88783L194.727 5.0057H185.711L185.786 9.97452ZM215.332 14.9433L215.257 9.97452L215.182 5.0308L219.079 5.0057L220.327 8.0924C221.027 9.77376 221.701 11.154 221.826 11.1791C221.951 11.1791 222.625 9.77376 224.573 5.0057H226.371C227.77 5.0057 228.22 5.10608 228.319 5.40722C228.394 5.60798 228.444 7.71597 228.444 10.1C228.444 12.484 228.344 14.5669 228.245 14.7426C228.145 14.9684 227.67 15.0437 225.822 14.9433L225.697 12.0072C225.622 10.4011 225.522 9.02091 225.447 8.92053C225.372 8.84525 224.973 9.5981 224.548 10.6019L224.493 10.7316L224.493 10.7322C224.075 11.72 223.538 12.9887 223.299 13.6133C223 14.3662 222.625 14.8681 222.325 14.9684C222.051 15.0437 221.601 15.0688 221.351 15.0186C221.002 14.9433 220.527 14.1152 218.329 8.92053L218.254 11.681C218.204 13.3624 218.055 14.5669 217.88 14.7677C217.68 14.9684 217.155 15.0688 215.332 14.9433ZM251.274 7.75729L251.269 7.77008L251.256 7.79869C251.043 8.29743 250.81 8.84265 250.573 9.39734C249.773 11.2042 248.974 12.9859 248.774 13.4125C248.575 13.8392 248.425 14.3662 248.425 14.6171C248.425 14.9684 248.624 15.0437 249.748 14.9935C250.922 14.9183 251.072 14.843 251.397 14.1654C251.597 13.7388 251.871 13.3373 252.021 13.2369C252.171 13.1365 252.945 13.0361 253.744 13.0361C254.519 13.0361 255.343 13.1114 255.568 13.2369C255.792 13.3373 256.142 13.789 256.317 14.2407C256.642 14.9935 256.741 15.0437 257.915 15.0437C258.615 15.0437 259.214 14.9684 259.289 14.8681C259.339 14.7426 258.465 12.5091 257.341 9.89924L255.293 5.13118C252.571 4.98061 252.421 5.0308 252.221 5.55779C252.119 5.78051 251.749 6.64649 251.278 7.74852L251.274 7.75729ZM74.3457 19.0589V16.2985L74.3707 13.5129L80.215 13.6635L80.3399 19.0589H74.3457ZM74.4706 23.7517C74.3457 23.8521 74.2708 25.1068 74.2958 26.5122L74.3208 29.1221H80.3149L80.19 23.7266C75.9192 23.6011 74.5955 23.6513 74.4706 23.7517ZM74.3208 39.1601L74.3457 36.3745V33.6141L80.19 33.7646L80.3149 39.1601H74.3208ZM155.116 36.1738C154.967 36.3494 154.642 37.8049 154.392 39.3859C154.142 41.0924 154.017 42.7487 154.117 43.4011C154.192 44.0285 154.492 44.9068 154.767 45.3586C155.041 45.8103 155.541 46.3122 155.891 46.4878C156.39 46.7388 156.715 46.7388 157.464 46.4878C157.964 46.3373 158.763 45.8103 159.237 45.3586C159.687 44.9068 160.286 44.0536 160.536 43.4764C160.786 42.8741 161.011 42.046 161.011 41.5943C161.011 41.1426 160.736 40.2141 160.411 39.5114C159.987 38.6582 159.337 37.9304 158.413 37.2027C157.639 36.6004 156.64 36.0734 156.19 35.973C155.641 35.8726 155.291 35.9479 155.116 36.1738ZM196.526 42.0209C196.451 40.3646 196.476 38.7836 196.576 38.5076C196.725 38.1061 196.8 38.081 196.975 38.3821C197.075 38.608 197.525 40.0635 197.924 41.6445L198.194 42.667L198.195 42.6692C198.569 44.0845 198.984 45.6557 199.223 46.538C199.376 47.1001 199.599 47.9482 199.838 48.854L199.842 48.8694L199.845 48.8792L199.845 48.8793L199.848 48.8916C200.076 49.7544 200.316 50.6664 200.522 51.4316C200.946 53.0376 201.346 54.6688 201.396 55.0703C201.471 55.6224 201.371 55.9738 200.971 56.3251C200.497 56.7768 200.072 56.827 197.999 56.827C196.551 56.827 195.252 56.6764 194.727 56.4757C194.253 56.2749 193.778 55.9989 193.678 55.8483C193.579 55.6977 193.629 55.3464 193.778 55.0703C193.928 54.7943 194.378 53.5145 194.777 52.1844C195.177 50.8795 195.751 48.7464 196.101 47.4164C196.626 45.3335 196.676 44.681 196.526 42.0209ZM74.4706 43.8278C74.3457 43.9281 74.2708 45.1578 74.2958 46.5882L74.3457 49.173L80.215 49.0475V43.7776C75.9192 43.6772 74.5955 43.7274 74.4706 43.8278ZM74.3457 59.211V56.4506V53.6901L80.215 53.8156V59.0856L74.3457 59.211ZM74.3457 66.4886C74.3457 68.7221 74.4207 69.2741 74.7204 69.3745C74.9202 69.4498 76.144 69.5 77.4177 69.5C78.6665 69.5 79.8653 69.3996 80.0402 69.2992C80.2649 69.1738 80.3399 68.3958 80.2899 66.4886L80.215 63.8536L74.3707 63.703L74.3457 66.4886Z" fill="#E3302E"/>
</svg>
