<svg width="279" height="67" viewBox="0 0 279 67" fill="none" xmlns="http://www.w3.org/2000/svg">
<path fill-rule="evenodd" clip-rule="evenodd" d="M35.4148 0.0560867C37.9374 0.171212 41.5493 0.804401 43.4412 1.43759C45.3332 2.12834 46.2505 2.47372 45.4478 2.30103C44.6452 2.12834 41.7213 1.84053 38.8547 1.66784C35.0708 1.43759 32.7203 1.61028 29.9683 2.30103C27.9044 2.81909 24.5792 4.08547 22.5153 5.06404C19.9927 6.27286 17.4701 8.22999 14.7755 10.9354C12.5396 13.1804 9.90235 16.5766 8.92772 18.4761C7.89575 20.3757 6.69179 23.4841 6.23314 25.3837C5.71716 27.2832 5.31584 30.9097 5.31584 33.4424C5.31584 35.9752 5.71716 39.5441 6.17581 41.3861C6.63446 43.1705 7.83842 46.2789 8.81305 48.2936C9.95968 50.481 12.1956 53.4167 14.7182 55.9494C17.6994 58.9427 19.9353 60.612 23.0886 62.1087C25.4392 63.2023 28.7644 64.4112 30.427 64.7565C32.0323 65.1019 35.1282 65.3897 37.2494 65.3897C39.428 65.3897 42.1799 65.1019 43.4412 64.8141C44.7025 64.5263 45.8491 64.4112 46.0211 64.5263C46.1931 64.6414 44.8745 65.1595 43.1546 65.6775C41.4346 66.1956 38.0521 66.7712 35.7015 66.9439C32.8922 67.1166 29.911 66.8864 27.1018 66.3107C24.7512 65.7927 20.8526 64.4687 18.5021 63.3175C15.4062 61.7633 13.1129 60.0364 10.189 57.1007C7.95308 54.8558 5.37317 51.4596 4.3412 49.56C3.36657 47.6604 2.10528 44.552 1.53197 42.6525C0.786657 40.2348 0.5 37.3567 0.5 33.1546C0.557331 28.4345 0.843988 26.3047 1.81862 23.369C2.56393 21.2967 3.93988 18.1883 4.91452 16.4614C5.88915 14.7346 8.41173 11.6262 10.4757 9.55393C12.9982 6.96361 15.5782 5.1216 18.5021 3.68253C20.8526 2.53128 24.5792 1.14978 26.8151 0.689276C29.395 0.113649 32.4909 -0.116601 35.4148 0.0560867ZM92.1729 13.0653C92.8036 13.0653 94.3515 13.2955 95.6128 13.5833C96.8741 13.8711 98.8807 14.8497 100.085 15.7131C101.346 16.6341 102.894 18.5337 103.697 20.203C104.729 22.2753 105.072 24.0022 105.072 26.5349C105.072 28.4345 104.729 30.9672 104.327 32.2336C103.983 33.4424 102.894 35.342 101.919 36.4933C100.945 37.6445 99.1674 39.026 97.9061 39.6016C96.5874 40.1773 94.2368 40.6378 92.4596 40.6378C90.6823 40.6378 88.3317 40.1773 87.0131 39.6016C85.7518 39.026 83.8599 37.6445 82.8279 36.5508C81.7959 35.4571 80.592 33.2697 80.1333 31.7156C79.6747 30.1038 79.2734 27.974 79.2734 26.9379C79.2734 25.9593 79.56 23.887 79.9613 22.3328C80.42 20.4333 81.3946 18.8791 83.2292 16.9795C85.1212 15.0799 86.6118 14.1589 88.4464 13.6984C89.8797 13.4106 91.5423 13.1228 92.1729 13.0653ZM85.2931 19.1093C84.3758 20.8938 84.1465 22.5055 84.1465 26.8227C84.1465 31.1399 84.3758 32.7517 85.2931 34.5361C85.9238 35.8025 87.1851 37.3567 88.0451 37.9899C89.1344 38.7958 90.5676 39.1987 92.1729 39.1987C93.7782 39.1987 95.2688 38.7958 96.3008 37.9899C97.1608 37.3567 98.4794 35.6874 99.2247 34.2483C100.199 32.2912 100.486 30.737 100.486 27.3984C100.486 25.0383 100.199 22.045 99.8553 20.7786C99.454 19.5123 98.3074 17.6127 97.2754 16.5766C95.6128 15.0224 94.9248 14.7346 92.5742 14.7346C91.0263 14.7346 89.1917 15.1375 88.1597 15.7707C87.1851 16.3463 85.9238 17.843 85.2931 19.1093ZM121.412 13.0653C122.043 13.0077 124.107 13.4106 125.998 13.8711C128.177 14.4468 129.668 14.5619 130.012 14.1589C130.413 13.8136 130.757 14.2741 131.044 15.4829C131.273 16.519 131.445 18.361 131.388 21.9299L130.47 20.203C130.012 19.2245 128.922 17.7854 128.062 16.8644C127.26 16.0009 125.654 15.0224 124.565 14.677C123.419 14.2741 121.527 14.2165 120.265 14.4468C119.004 14.6194 117.341 15.2526 116.539 15.8283C115.736 16.4039 114.475 18.1308 113.672 19.685C112.526 21.9299 112.296 23.369 112.296 26.8227C112.296 30.2765 112.526 31.7156 113.672 33.9605C114.532 35.6874 115.908 37.184 117.112 37.9323C118.201 38.5655 120.151 39.2563 121.412 39.3714C122.673 39.5441 124.737 39.3138 125.998 38.9109C127.26 38.508 129.037 37.6445 130.012 36.9538C130.929 36.3206 131.502 36.0903 131.273 36.4357C131.044 36.8386 129.668 37.8748 128.12 38.7382C125.826 40.1197 124.794 40.35 121.125 40.35C117.685 40.35 116.367 40.0621 114.532 39.026C113.271 38.2777 111.551 36.7235 110.634 35.5723C109.774 34.421 108.799 32.0034 108.398 30.2765C107.939 27.9164 107.939 26.3047 108.455 23.9446C108.799 22.2177 109.716 19.9152 110.404 18.8215C111.092 17.7278 112.698 16.1736 113.959 15.3678C115.163 14.5619 117.112 13.6984 118.259 13.5258C119.348 13.2955 120.781 13.1228 121.412 13.0653ZM198.809 13.0653C199.44 13.0077 201.217 13.3531 202.823 13.8136C204.542 14.3316 206.377 15.4253 207.466 16.5766C208.498 17.6127 209.76 19.3971 210.333 20.4908C211.078 21.8723 211.365 23.7143 211.365 26.5349C211.365 28.7223 211.078 31.4853 210.734 32.579C210.333 33.6727 209.072 35.6298 207.81 36.8962C206.32 38.4312 204.638 39.4673 202.765 40.0046C200.988 40.5226 198.809 40.6953 196.803 40.4651C194.739 40.2348 192.904 39.5441 191.356 38.508C189.923 37.4718 188.49 35.7449 187.458 33.7303C186.254 31.2551 185.91 29.7584 185.91 26.8227C185.91 23.887 186.254 22.3904 187.458 19.9728C188.49 17.9005 189.866 16.2888 191.356 15.3678C192.56 14.5619 194.509 13.6984 195.656 13.5258C196.745 13.2955 198.179 13.1228 198.809 13.0653ZM191.299 20.203C190.668 21.8148 190.439 24.0597 190.611 27.6862C190.726 31.5429 191.07 33.4424 191.987 35.1693C192.675 36.4933 193.993 37.9323 195.14 38.508C196.459 39.1987 197.777 39.429 199.211 39.1987C200.415 39.026 201.963 38.5655 202.651 38.105C203.396 37.6445 204.6 36.1479 205.345 34.7664C206.32 33.0971 206.836 31.0824 207.008 28.5496C207.18 26.0169 206.95 23.7143 206.262 21.3543C205.632 19.2245 204.6 17.2673 203.625 16.2888C202.249 14.9648 201.447 14.7346 198.867 14.7346C196.287 14.7346 195.427 15.0224 193.936 16.3463C192.962 17.2098 191.758 18.9366 191.299 20.203ZM146.466 13.5833C157.187 13.5833 157.244 13.5833 157.531 14.9073C157.703 15.598 157.817 17.0946 157.817 20.203L156.785 17.9005C156.097 16.4614 155.237 15.4253 154.32 15.1951C153.575 14.9648 151.855 14.7346 148.071 14.7346V26.5349C148.071 38.105 148.071 38.3353 149.39 39.1987C150.594 40.0046 150.364 40.0621 146.351 40.1197C142.109 40.1197 142.051 40.1197 143.37 39.0836C144.631 38.0475 144.688 37.9323 144.344 15.0224L142.625 14.8497C141.65 14.7346 139.93 14.9073 138.726 15.2526C137.063 15.7707 136.433 16.3463 134.942 20.203L134.827 17.2673C134.77 15.6556 134.885 14.1589 135.171 13.9863C135.458 13.756 140.503 13.5833 146.466 13.5833ZM180.75 13.5833V18.1883L179.03 16.4614C177.425 14.8497 177.023 14.7346 172.838 14.7346C170.029 14.7346 168.137 15.0224 167.678 15.4829C167.22 15.8858 166.99 17.9581 166.99 25.6715L171.864 25.5564C175.934 25.3837 176.851 25.211 177.539 24.2324C178.342 23.1387 178.399 23.3114 178.457 29.7009L177.023 28.2618C175.762 26.9954 175.131 26.8227 166.99 26.8227L167.277 38.6231L172.322 38.7958C175.877 38.8533 177.826 38.6806 179.03 38.0475C179.947 37.5869 181.151 36.4357 181.61 35.4571C182.069 34.4786 182.585 33.7878 182.757 33.9029C182.871 33.9605 182.642 35.3996 181.323 40.0621H171.176C161.888 40.0621 161.085 40.0046 162.289 39.1987C163.551 38.3353 163.551 38.105 163.551 27.2257C163.551 19.1669 163.379 15.9434 162.863 15.2526C162.461 14.7346 161.716 14.1589 161.257 13.9863C160.799 13.8136 164.984 13.6409 180.75 13.5833ZM217.442 13.5833C219.391 13.5258 220.825 13.8136 221.226 14.2741C221.57 14.677 223.749 19.282 226.099 24.4627C228.45 29.6433 230.456 33.9605 230.628 34.0756C230.8 34.1908 232.979 29.5857 240.088 13.5258L246.394 13.5833L245.133 14.7346C243.872 15.8283 243.814 16.2312 243.814 26.8227C243.814 37.0113 243.872 37.8172 246.108 40.0621H241.98C238.081 40.0621 237.852 40.0046 239.113 39.1987C240.317 38.3353 240.375 38.105 240.375 27.974C240.375 22.2753 240.203 17.6127 239.973 17.6127C239.687 17.6127 237.336 22.5631 234.641 28.5496C231.947 34.5937 229.654 39.4865 229.482 39.5441C229.31 39.5441 227.016 34.8239 224.322 29.0677C221.627 23.369 219.277 18.5337 219.047 18.4186C218.761 18.3035 218.646 22.7933 218.875 38.5655L220.309 39.3138C221.627 40.0046 221.455 40.0621 218.302 40.0621C214.919 40.1197 214.862 40.1197 216.123 39.0836C217.327 38.105 217.385 37.5294 217.499 29.413C217.499 24.6929 217.557 19.5698 217.499 18.0732C217.442 15.6556 217.213 15.1951 215.894 14.4468C214.289 13.6409 214.346 13.6409 217.442 13.5833ZM256.714 13.5833C261.186 13.5258 261.301 13.5258 260.039 14.5619C258.778 15.5404 258.721 16.0009 258.721 24.2324C258.663 29.0101 258.835 32.9244 259.007 33.0395C259.179 33.0971 260.785 31.2551 262.619 29.0101C264.511 26.7076 267.435 22.9085 269.212 20.6635C271.047 18.361 272.366 16.1161 272.194 15.7707C272.079 15.3678 271.334 14.7346 270.646 14.3316C269.499 13.756 270.015 13.6409 278.5 13.5258L275.633 15.7707V37.8748L278.5 40.1197L274.372 40.0621C270.359 40.0621 270.244 40.0046 271.219 39.026C272.079 38.1626 272.194 36.8386 272.194 29.0101C272.194 23.2538 271.964 19.9728 271.62 20.0303C271.276 20.0879 268.238 23.6568 264.855 27.9164C261.014 32.7517 258.663 36.263 258.721 37.0689C258.721 37.7596 259.294 38.7382 260.039 39.1987C261.186 40.0046 260.957 40.0621 256.714 40.0046C254.191 40.0046 252.529 39.8319 252.988 39.6592C253.446 39.4865 254.191 38.9109 254.593 38.3928C255.109 37.7021 255.281 34.5361 255.281 26.8227C255.281 20.9513 255.051 15.8858 254.822 15.5404C254.593 15.1951 253.905 14.6194 253.274 14.2741C252.357 13.756 252.988 13.5833 256.714 13.5833ZM29.223 29.9887C29.3377 30.1614 28.9937 31.0824 28.5351 32.0034C28.0764 32.9819 27.9044 33.7303 28.2484 33.7303C28.5351 33.7303 29.5097 32.8668 30.3123 31.8882C31.115 30.8521 31.631 30.3916 31.3443 30.8521C31.115 31.3126 30.427 32.4063 29.8537 33.3273C29.2804 34.1908 28.9364 35.1693 29.1084 35.4571C29.2804 35.8025 29.9683 35.5723 30.6563 34.9391C31.4016 34.3634 32.3763 33.6727 32.8349 33.4424C33.2936 33.2122 32.6056 34.1332 31.287 35.5147C29.911 36.8962 28.8217 38.508 28.8217 39.0836C28.8217 39.7168 29.2804 40.0621 30.083 40.1197C30.8283 40.1197 30.083 40.4651 28.5351 40.868C26.9298 41.271 25.0952 41.9042 24.3499 42.2495C23.6619 42.6525 22.2859 42.9403 21.3686 42.9403C20.1073 42.9403 19.6487 42.6525 19.6487 41.9617C19.6487 41.3861 20.394 40.1773 21.3686 39.1987C22.3433 38.2777 23.7192 36.3781 24.4072 35.0542C25.3245 33.2697 25.8405 32.7517 26.3565 33.1546C26.9298 33.5576 27.3884 33.2122 28.0764 31.7156C28.5924 30.6219 29.1084 29.816 29.223 29.9887ZM43.2692 30.5067C43.6705 31.0824 44.4732 32.1185 45.0465 32.8092C46.0785 34.0181 46.0785 34.0181 45.7345 32.0034C45.5052 30.3916 45.7345 30.6794 47.1678 33.7303C48.1424 35.8025 49.8623 38.3928 51.009 39.4865C52.0983 40.5802 52.8436 41.8466 52.6716 42.2495C52.4996 42.5949 51.4676 42.9403 50.4357 42.9403C49.461 42.9403 48.3144 42.71 48.0277 42.3647C47.6838 42.0193 45.9065 41.3861 44.0145 40.9831C42.1226 40.5226 41.148 40.1773 41.8359 40.1197C42.5813 40.0621 43.2692 39.8319 43.4412 39.4865C43.6132 39.1411 42.8679 37.8172 40.0013 34.0756L41.5493 35.0542C42.4666 35.5723 43.2692 35.8601 43.4412 35.6298C43.5559 35.342 43.0399 34.2483 42.2946 33.1546C41.492 32.0609 40.8613 31.0248 40.8613 30.8521C40.8613 30.6794 41.5493 31.3702 42.2946 32.2912C43.0399 33.2697 43.8425 33.8454 44.0145 33.6151C44.1865 33.3273 43.8999 32.2912 43.4412 31.3126C42.9826 30.2765 42.8679 29.8736 43.2692 30.5067Z" fill="#0D75BA"/>
<path d="M22.7414 17.4934C24.8043 16.8635 27.0964 15.7754 27.8987 15.1454C28.7009 14.5154 29.4459 14 29.6178 14C29.7897 14 29.274 14.5727 28.4717 15.2599C27.6695 16.0044 25.4919 17.1498 23.6009 17.8943C21.7099 18.5816 19.2458 19.6697 16.1514 21.445L17.584 20.0706C18.3863 19.3833 20.6784 18.1807 22.7414 17.4934Z" fill="#4EAF42"/>
<path d="M46.2932 17.6653C43.9437 16.7489 41.8808 15.6035 41.7662 15.2027C41.537 14.5727 41.7662 14.5727 42.855 15.2599C43.5999 15.7754 45.7774 16.7489 47.6685 17.4362C49.5595 18.1234 51.6797 19.0397 52.4247 19.4979C53.1123 19.8988 53.6853 20.5287 53.6853 20.8151C53.6853 21.1587 52.9977 20.9296 52.1381 20.4142C51.2786 19.8415 48.6999 18.6388 46.2932 17.6653Z" fill="#4EAF42"/>
<path d="M8.30084 29.9782C8.58736 27.9165 9.44692 24.8812 10.1919 23.2204C10.9368 21.5596 11.5672 20.2997 11.5672 20.3569C11.6245 20.4715 11.3379 21.9605 10.8795 23.6786C10.4784 25.3966 10.1346 28.4892 10.1346 30.5509C10.1346 32.6126 10.5357 35.8197 11.0514 37.7096C11.5098 39.5995 12.6559 42.463 13.5728 44.0093C14.4896 45.6128 16.6099 48.2472 18.2717 49.908C20.0481 51.6834 22.9706 53.7451 25.32 54.9478C27.8987 56.2077 30.8212 57.124 33.6291 57.4676C35.9785 57.8112 38.9583 57.9258 40.219 57.754C41.4797 57.5249 43.8291 57.0095 45.3763 56.5513C46.9808 56.1504 49.7887 54.7759 51.6797 53.5733C53.5707 52.3706 56.0348 50.3662 57.1236 49.1063C58.2696 47.9036 59.9314 45.6128 60.8483 44.0093C61.7652 42.463 62.8539 40.1149 63.1978 38.855C63.7708 37.0796 63.9427 36.8506 64 37.996C64 38.7977 63.5416 41.0885 62.9112 43.1502C62.2236 45.3837 60.7337 48.3045 59.1865 50.4807C57.7539 52.4279 54.946 55.2341 52.9977 56.6658C50.9921 58.0976 47.955 59.7584 46.2359 60.4456C44.4021 61.0756 41.0212 61.7056 38.2134 61.9346C35.2336 62.1065 32.1392 61.9347 30.1908 61.4765C28.4717 61.0756 25.4346 60.0448 23.4863 59.1284C21.2515 58.0976 18.5582 56.2077 16.5526 54.2033C14.3177 52.027 12.484 49.3926 11.0514 46.5864C9.67613 43.7229 8.75927 40.8594 8.30084 37.996C7.89972 35.0752 7.89972 32.5553 8.30084 29.9782Z" fill="#4EAF42"/>
</svg>
