<svg width="259" height="127" viewBox="0 0 259 127" fill="none" xmlns="http://www.w3.org/2000/svg">
<path fill-rule="evenodd" clip-rule="evenodd" d="M61.7452 0C61.9643 0.0547251 64.7031 2.46263 67.8801 5.41779C71.0571 8.37295 76.5347 13.9549 80.0403 17.8404C83.6008 21.7259 88.3663 27.2531 90.6121 30.0988C92.9127 32.9445 96.5279 37.8698 98.6093 41.0439C100.746 44.2179 103.539 48.8695 104.854 51.4416C106.168 54.0137 108.031 58.4464 109.017 61.2922C110.66 66.0532 110.824 67.0383 110.879 73.3317C110.879 79.1326 110.66 80.7743 109.565 84.0031C108.907 86.0826 107.757 88.9284 107.045 90.2965C106.333 91.6646 105.128 93.6347 104.361 94.6745C103.539 95.7143 101.403 98.1769 99.4858 100.092C97.6234 102.008 94.2273 104.799 91.9815 106.276C89.5166 107.918 88.0924 109.177 88.421 109.45C88.7497 109.724 92.6936 110.271 97.1852 110.764C101.732 111.201 108.086 111.749 111.427 111.913C115.973 112.187 117.89 112.515 119.26 113.336C120.191 113.883 121.396 114.923 121.834 115.634C122.327 116.291 122.711 118.042 122.711 119.574C122.711 121.435 122.382 122.748 121.67 123.679C121.122 124.445 119.753 125.539 118.657 126.141C116.74 127.181 116.357 127.236 106.114 126.525C100.307 126.141 91.598 125.211 86.7778 124.5C81.9575 123.788 75.0557 122.584 71.4405 121.818C67.8253 120.997 64.1553 120.176 63.2242 119.958C62.0739 119.629 60.3758 119.793 57.7466 120.505C55.6651 121.052 50.7353 122.092 46.7914 122.803C42.8475 123.569 36.7127 124.554 33.0975 124.992C29.4822 125.485 22.0875 126.141 16.6647 126.525C8.22922 127.072 6.53117 127.072 4.94267 126.415C3.90193 125.977 2.47776 124.938 1.76567 124.117C0.779709 122.913 0.50583 121.928 0.50583 119.739C0.451054 117.659 0.779709 116.4 1.60135 115.361C2.20388 114.485 3.35417 113.5 4.17581 113.062C5.05222 112.679 8.39355 112.187 11.7349 111.968C15.0214 111.749 21.4302 111.201 25.9766 110.764C30.4682 110.271 34.5216 109.724 34.9051 109.505C35.3433 109.286 34.193 108.301 31.8924 106.714C29.8109 105.401 26.1957 102.336 23.7856 99.8734C21.3754 97.4655 18.5271 93.9631 17.4863 92.2119C16.4456 90.4059 15.0214 87.4508 14.3641 85.6448C13.7068 83.8389 12.9399 80.3365 12.6113 77.8739C12.1731 74.7545 12.1731 72.073 12.5565 69.2273C12.8304 66.9836 13.7616 63.2075 14.5284 60.9091C15.2953 58.5559 17.2125 54.1779 18.7462 51.168C20.3347 48.1581 23.0735 43.5065 24.8811 40.7702C26.6887 38.034 30.1396 33.3823 32.5497 30.3725C34.9598 27.4173 39.1776 22.492 41.9164 19.4274C44.6552 16.4175 50.1327 10.8356 54.1314 6.95009C58.13 3.11933 61.5809 0 61.7452 0V0ZM56.2676 26.3228C53.3645 29.4421 49.2563 34.0938 47.1201 36.6658C44.9838 39.2379 41.9164 43.1781 40.2731 45.4219C38.6298 47.6656 36.0006 51.6058 34.4668 54.1779C32.9331 56.75 30.9612 60.6355 30.0848 62.8245C29.1536 64.9587 28.4963 67.0383 28.5511 67.3666C28.6606 67.695 30.9612 66.8194 33.9191 65.2871C36.7674 63.8095 40.7113 61.5111 42.6832 60.1977C44.6552 58.8295 47.8321 56.2574 49.7493 54.4515C51.6665 52.6456 54.6244 49.3074 56.2676 47.0636C57.9109 44.8199 59.4446 42.7403 59.609 42.5214C59.7733 42.3025 61.1975 43.7801 62.7312 45.8049C64.2649 47.8298 67.1132 50.8944 69.0304 52.5909C70.9475 54.2873 74.015 56.6405 75.8226 57.8445C77.6302 59.1031 81.355 61.1827 84.039 62.5508C86.723 63.919 90.2834 65.5607 91.8171 66.1627L94.7203 67.3119C94.2273 64.9587 93.1865 62.3319 91.9815 59.924C90.8312 57.5161 88.2019 52.9739 86.1205 49.7999C84.039 46.6258 79.9856 41.208 77.1372 37.7603C74.2889 34.3127 69.6329 29.059 66.7846 26.0492L61.5809 20.6314L56.2676 26.3228ZM58.1848 51.6058C57.3084 52.8098 54.7887 55.4913 52.5429 57.5708C50.2423 59.7051 46.2984 62.7697 43.724 64.5209C41.2043 66.2174 36.4388 68.8442 33.1522 70.3218L27.2364 73.0581C27.839 77.3266 28.4963 79.7893 29.044 81.2668C29.6466 82.7991 31.1255 85.3165 32.3854 86.9582C33.7 88.6 36.3292 91.1174 38.3012 92.5949C40.2183 94.0178 44.3265 96.4804 47.3392 97.958C50.3518 99.4356 54.7887 101.296 57.1988 102.117L61.5809 103.649C68.3731 101.406 72.6456 99.5998 75.5487 98.2316C78.3971 96.8088 82.2314 94.6198 84.039 93.3064C85.8466 91.993 88.2019 90.0229 89.2975 88.8736C90.393 87.6697 91.9267 85.7543 92.6388 84.5503C93.4056 83.3464 94.4464 80.9932 94.9394 79.3515C95.4324 77.7097 95.761 75.4112 95.7062 74.2073C95.5419 72.1277 95.4871 72.073 91.7076 70.6502C89.5713 69.8293 85.737 68.1875 83.2173 66.9288C80.6429 65.7249 76.206 63.1528 73.3577 61.2374C70.5093 59.3221 66.2368 55.8744 63.9362 53.5759L59.7185 49.4168L58.1848 51.6058ZM149.989 56.9141C150.153 56.9141 150.592 57.2425 150.975 57.6256C151.358 58.0087 151.687 58.8843 151.687 59.541C151.687 60.1977 151.358 60.9638 150.975 61.1827C150.592 61.4016 148.565 61.73 142.649 62.113L140.842 68.9537C139.856 72.7297 138.596 76.5605 138.048 77.4361C137.336 78.7495 136.679 79.1326 135.09 79.242C133.447 79.3515 133.063 79.1873 133.063 78.4211C133.063 77.8739 134.159 74.3167 135.528 70.486C136.898 66.6552 137.993 63.2075 137.993 62.8245C137.993 62.2772 136.788 62.2225 132.789 62.5508C128.353 62.8792 127.586 62.8245 127.586 62.113C127.586 61.6752 128.134 60.9638 128.791 60.526C129.503 60.0882 132.625 59.3221 135.802 58.8843C138.979 58.3917 143.252 57.8445 145.388 57.6803C147.469 57.5161 149.332 57.2425 149.441 57.133C149.551 57.0236 149.825 56.9141 149.989 56.9141ZM158.151 62.8792C158.644 62.9886 159.52 63.5359 160.068 63.9737C160.561 64.4662 160.999 65.506 160.999 66.2174C160.944 66.9836 160.342 68.4064 159.63 69.3915C158.863 70.3765 157.219 71.5805 155.905 72.073C154.645 72.5655 153.166 72.7844 152.618 72.6203C151.851 72.3466 151.797 72.1277 152.344 71.4163C152.728 70.9238 153.659 70.5954 154.426 70.5954C155.193 70.5954 156.124 70.3218 156.507 69.9387C156.891 69.5557 157.165 68.5706 157.165 67.7497C157.165 66.7099 156.727 66.0532 155.795 65.5607C154.59 64.9587 154.207 65.0135 152.892 65.9985C151.906 66.7647 151.085 68.2422 150.427 70.2671C149.606 73.0581 149.551 73.4959 150.318 74.6998C150.92 75.7396 151.578 76.0679 152.892 76.1227C153.878 76.1227 155.412 75.7396 156.343 75.3018C157.219 74.864 158.151 74.5904 158.37 74.7545C158.589 74.864 158.096 75.5754 157.274 76.2868C156.453 76.9435 155.193 77.9286 154.426 78.4758C153.659 78.9684 152.016 79.4062 150.701 79.3515C148.948 79.3515 148.072 79.0231 147.031 77.9833C145.99 76.9436 145.662 76.0679 145.662 74.1526C145.662 72.8392 145.881 71.088 146.21 70.3218C146.483 69.6104 147.469 68.1875 148.291 67.2025C149.167 66.2174 150.811 64.9587 152.016 64.3568C153.166 63.8095 154.864 63.1528 155.686 62.9339C156.562 62.7697 157.658 62.715 158.151 62.8792ZM256.309 62.4414C256.473 62.4414 256.857 62.6603 257.185 62.8792C257.569 63.1528 257.788 63.8095 257.733 64.3568C257.678 64.9587 257.076 65.5607 256.309 65.7796C255.542 65.9985 254.337 66.3269 253.57 66.491C252.803 66.6552 251.434 67.3666 248.914 69.5009L253.735 74.3167C256.364 76.9436 258.5 79.2967 258.5 79.5156C258.5 79.7345 258.007 80.1723 257.405 80.446C256.802 80.7743 255.871 80.829 255.323 80.6649C254.83 80.446 253.57 79.7345 252.584 79.0231C251.598 78.3117 249.955 76.3963 248.914 74.6998C247.874 73.0581 246.723 71.6899 246.449 71.6899C246.121 71.6899 245.902 72.1277 245.902 72.675C245.902 73.2222 245.628 74.5356 245.354 75.6849C245.025 76.8341 244.423 78.0928 243.93 78.5306C243.437 79.0231 242.341 79.3515 241.465 79.3515C240.588 79.3515 239.876 79.1326 239.876 78.8042C239.876 78.5306 240.753 75.2471 241.848 71.5805C242.944 67.9139 244.039 64.4662 244.313 63.919C244.642 63.317 245.409 62.9339 246.449 62.9339C247.326 62.9339 248.093 63.0434 248.093 63.0981C248.093 63.1528 247.709 64.4662 247.271 65.9438C246.833 67.4761 246.559 68.8442 246.723 68.9537C246.888 69.1179 248.202 68.0781 249.626 66.6552C251.05 65.2871 253.077 63.7548 254.118 63.2623C255.159 62.8245 256.145 62.4414 256.309 62.4414ZM168.832 62.9339C169.215 62.9339 169.434 63.3717 169.325 63.919C169.215 64.4662 168.996 65.506 168.449 67.5855L170.64 65.9985C171.79 65.1229 173.378 64.2473 174.145 64.0284C174.912 63.8095 176.227 63.919 177.267 64.4115C178.418 64.8493 179.349 65.8343 179.897 67.0383C180.39 68.1875 180.554 69.6104 180.335 70.486C180.171 71.3069 179.568 72.8939 178.965 74.0431C178.418 75.1923 177.048 76.7246 175.898 77.4908C174.803 78.257 172.885 79.0231 171.68 79.1873C170.42 79.3514 168.942 79.242 168.229 78.9137C167.572 78.5306 167.024 78.038 167.024 77.7097C167.024 77.4361 167.682 77.3266 168.503 77.5455C169.434 77.7097 170.749 77.4908 171.79 76.9983C172.94 76.3963 173.981 75.2471 174.693 73.7695C175.296 72.5108 175.788 70.8143 175.788 70.0482C175.788 69.3368 175.46 68.2422 175.076 67.695C174.583 66.9288 173.981 66.7647 172.776 66.9836C171.845 67.1478 170.366 67.9686 169.435 68.8442C168.12 69.9935 167.463 71.3616 166.531 74.9734C165.874 77.5455 164.888 80.7743 164.395 82.0877C163.464 84.4409 163.3 84.6051 161.109 84.7145C159.356 84.824 158.808 84.6598 158.808 84.0031C158.808 83.5653 160.177 79.3515 161.821 74.5904C164.176 67.8592 165.162 65.6154 166.477 64.4662C167.408 63.6453 168.449 62.9339 168.832 62.9339ZM193.591 62.9886C194.905 62.9886 196.165 63.3717 196.768 63.919C197.261 64.4662 197.699 65.5607 197.699 66.3816C197.699 67.3666 196.987 68.5706 195.617 69.9935C194.303 71.3069 192.879 72.1825 191.509 72.4561C190.414 72.6203 189.209 72.675 188.935 72.5108C188.551 72.3466 188.606 71.9636 189.044 71.4163C189.428 70.9238 190.414 70.5954 191.235 70.5954C192.221 70.5954 193.043 70.2124 193.536 69.3915C193.974 68.6801 194.138 67.695 193.919 67.093C193.755 66.5458 193.043 65.7796 192.386 65.4513C191.454 65.0135 190.907 65.0682 189.921 65.7249C189.209 66.2174 188.223 67.4761 187.675 68.6253C187.182 69.7198 186.744 71.5805 186.744 72.7844C186.744 74.4809 187.018 75.1923 187.949 75.7943C188.716 76.2868 189.702 76.5057 190.578 76.2321C191.345 76.0679 192.55 75.5754 193.317 75.1923C194.084 74.8093 194.85 74.5904 195.07 74.7545C195.289 74.864 195.398 75.1923 195.289 75.4112C195.179 75.6301 193.919 76.6152 192.44 77.6003C190.414 78.9137 189.154 79.4062 187.401 79.4062C185.648 79.3515 184.717 79.0231 183.731 77.9833C182.964 77.2719 182.307 75.9585 182.307 75.1376C182.252 74.3167 182.252 73.1128 182.362 72.5108C182.416 71.9088 182.909 70.5954 183.457 69.5009C184.005 68.4612 184.991 67.093 185.703 66.4363C186.415 65.7796 188.004 64.7398 189.209 64.1379C190.414 63.5359 192.386 62.9886 193.591 62.9886ZM216.816 62.9339C217.144 62.9339 217.637 63.7548 217.911 64.7398C218.24 65.7249 218.678 68.3517 218.952 70.5954C219.226 72.8939 219.39 75.3565 219.281 76.0679C219.116 76.8341 218.623 77.8739 218.075 78.4211C217.528 78.9684 216.542 79.3515 215.775 79.242C214.46 79.1326 214.405 78.8589 214.241 75.5207C214.186 73.6053 213.967 71.4163 213.858 70.7596C213.693 70.1029 213.365 69.6104 213.146 69.7198C212.927 69.8293 211.831 71.471 210.735 73.3864C209.64 75.3565 208.106 77.5455 207.339 78.257C206.189 79.3515 205.86 79.4609 205.641 78.8042C205.477 78.3664 205.313 76.1774 205.094 69.7746L203.396 72.7844C202.464 74.4809 201.04 76.6152 200.219 77.6003C199.287 78.7495 198.301 79.3515 197.425 79.3515C196.275 79.3515 196.11 79.1873 196.439 78.1475C196.603 77.4908 198.082 75.6849 199.671 74.1526C201.314 72.675 203.396 69.9935 204.381 68.1875C205.367 66.4363 206.627 64.6851 207.175 64.3568C207.887 63.919 208.271 63.9737 208.654 64.5757C208.928 65.0682 209.202 67.093 209.202 69.1179C209.202 71.4163 209.421 72.675 209.75 72.5108C210.023 72.4014 211.064 70.7596 212.05 68.899C213.036 67.0383 214.405 64.9587 215.063 64.2473C215.72 63.5359 216.542 62.9339 216.816 62.9339ZM233.303 62.9339C234.399 62.9339 235.823 63.3717 236.699 64.0284C237.521 64.6304 238.507 66.0532 238.835 67.2025C239.164 68.3517 239.219 69.9935 239.055 70.8691C238.835 71.7994 238.069 73.6053 237.357 74.864C236.425 76.451 235.275 77.5455 233.687 78.257C232.427 78.8589 230.345 79.3515 229.031 79.3515C227.771 79.3515 226.018 79.0231 225.196 78.64C224.375 78.2022 223.389 77.2172 223.005 76.451C222.622 75.6301 222.348 73.9884 222.348 72.7844C222.348 71.5805 222.677 69.9387 223.115 69.1179C223.553 68.297 224.429 67.093 225.142 66.4363C225.854 65.7249 227.552 64.6851 228.921 64.0831C230.29 63.4812 232.262 62.9886 233.303 62.9339ZM228.099 69.6651C227.661 70.8143 227.278 72.675 227.278 73.8789C227.278 75.5207 227.552 76.2321 228.373 76.6152C229.104 76.98 229.925 76.98 230.838 76.6152C231.605 76.3416 232.536 75.5207 232.974 74.864C233.413 74.2073 234.015 72.5655 234.344 71.3069C234.782 69.5557 234.782 68.6253 234.234 67.4761C233.796 66.4911 233.084 65.8891 232.153 65.7796C231.331 65.7249 230.4 66.0532 229.852 66.6005C229.359 67.1477 228.592 68.5159 228.099 69.6651Z" fill="#C2161C"/>
<path d="M34.643 75.9101C34.8087 75.5797 36.1348 74.5884 37.5713 73.6522C39.4499 72.4957 40.8864 72 42.544 72C43.87 72 45.5828 72.3304 46.4116 72.771C47.2956 73.2116 48.4559 74.0928 49.0637 74.8087C49.6714 75.4696 49.8372 75.8551 49.4504 75.6899C48.9532 75.4145 48.8979 75.7449 49.1189 77.0667C49.3399 78.2232 49.1189 79.6 48.5664 80.8116C48.1244 81.858 46.9641 83.1797 46.0248 83.7304C45.1408 84.2261 43.649 84.6667 42.7097 84.6667C41.7704 84.6667 40.3891 84.3362 39.5051 83.8957C38.6763 83.5101 37.5713 82.1884 36.9635 81.0319C36.3005 79.6 36.0795 78.2966 36.3005 77.1217C36.632 75.4145 36.5768 75.3594 35.4717 75.9101C34.643 76.3507 34.4219 76.3507 34.643 75.9101Z" fill="#C2161C"/>
<path d="M73.3192 75.9101C73.4849 75.5797 74.811 74.5884 76.2475 73.6522C77.9603 72.5507 79.6179 72 80.9439 72C82.1042 72 83.7065 72.2754 84.5353 72.6058C85.4193 72.9362 86.7454 73.8174 87.5741 74.5333C88.4582 75.2493 88.7897 75.8551 88.4029 75.8551C87.9609 75.8551 87.7951 76.4609 87.9609 77.6725C88.0714 78.6087 87.7399 80.2609 87.2426 81.2522C86.7454 82.1884 85.6403 83.4 84.701 83.8406C83.7618 84.2812 82.1595 84.6667 81.1097 84.6667C79.6179 84.6667 78.7339 84.2261 77.2421 82.7391C75.474 80.9768 75.3082 80.5362 75.4188 78.058C75.5293 76.5159 75.5293 75.3043 75.4188 75.3043C75.3635 75.3043 74.811 75.5797 74.148 75.9101C73.3192 76.3507 73.0982 76.3507 73.3192 75.9101Z" fill="#C2161C"/>
<path d="M56.2464 88.2464C56.0806 87.8058 56.2464 87.0348 56.5779 86.5942C56.9094 86.1536 57.4619 85.7681 57.8487 85.7681C58.1802 85.7681 58.9537 86.1536 59.5615 86.5942C60.1693 87.0899 61.1085 87.4203 61.6058 87.4203C62.1583 87.4203 63.3186 87.0348 64.2579 86.5942C65.1972 86.1536 66.3022 85.9333 66.7995 86.2087C67.2415 86.429 67.573 87.0899 67.4625 87.6406C67.352 88.1913 66.5785 89.1826 65.7497 89.8435C64.6999 90.6145 63.3739 91 61.8821 91C60.6113 90.9449 58.8985 90.5043 58.0144 90.0087C57.1857 89.513 56.4121 88.687 56.2464 88.2464Z" fill="#C2161C"/>
</svg>
