<svg xmlns="http://www.w3.org/2000/svg" width="56" height="54" viewBox="0 0 56 54" fill="none">
  <path fill-rule="evenodd" clip-rule="evenodd" d="M55.0489 38.6205C55.0395 38.6516 54.9255 38.6715 54.8005 38.6609C54.6593 38.6591 54.5558 38.689 54.5389 38.7451C54.5238 38.7949 54.4797 38.8292 54.4488 38.8198C54.4117 38.8086 54.3305 38.988 54.1234 39.6734L53.8548 39.6466C53.6988 39.6267 53.4851 39.664 53.356 39.7338C53.2288 39.7974 53.0326 39.9556 52.9175 40.0908C52.8024 40.226 52.6959 40.3774 52.6808 40.4273C52.6658 40.4771 52.6217 40.5114 52.5907 40.502C52.5598 40.4927 52.512 40.5394 52.4913 40.608C52.4705 40.6765 52.4227 40.7232 52.3918 40.7139C52.3608 40.7045 52.3205 40.7263 52.3111 40.7575C52.3017 40.7886 52.2358 40.8503 52.1713 40.8852C52.1067 40.9201 52.007 40.9375 51.9575 40.9226C51.9081 40.9076 51.8083 40.9251 51.7438 40.96C51.6389 41.0167 51.6357 41.0497 51.7341 41.2154C51.798 41.3164 51.8241 41.4534 51.8034 41.522C51.7827 41.5905 51.7647 41.6055 51.7574 41.5625C51.7582 41.5151 51.72 41.4628 51.6829 41.4516C51.6397 41.4385 51.5399 41.2995 51.4706 41.1494C51.3539 40.9101 51.2953 40.8584 51.0542 40.7855C50.8996 40.7387 50.7703 40.72 50.7609 40.7512C50.7595 40.778 50.6641 40.8035 50.5581 40.8191C50.4541 40.8285 50.2578 40.8303 50.1328 40.8197C50.0078 40.8091 49.8548 40.8241 49.7983 40.8546C49.7462 40.8932 49.6846 40.963 49.6695 41.0129C49.6545 41.0627 49.6104 41.097 49.5794 41.0876C49.5485 41.0783 49.5007 41.125 49.4799 41.1935C49.4592 41.2621 49.4732 41.3275 49.5041 41.3368C49.535 41.3462 49.5528 41.3991 49.5377 41.449C49.5132 41.53 49.4823 41.5206 49.3095 41.4004C49.2052 41.3213 49.0974 41.1867 49.0686 41.1032C49.046 41.0216 49.0334 40.7729 49.0337 40.5486C49.0402 40.3262 49.0507 40.0234 49.0551 39.8751C49.0626 39.6938 49.2485 39.0564 49.617 37.971C49.9166 37.0688 50.2369 36.0981 50.3254 35.8053C50.4139 35.5124 50.6509 34.6389 50.8596 33.8588C51.2075 32.5292 51.2513 32.4064 51.5369 31.908C51.7128 31.594 51.8728 31.3771 51.9241 31.3859C51.9631 31.3909 52.062 31.4208 52.1405 31.4513C52.2129 31.48 52.2822 31.4737 52.2935 31.4364C52.3029 31.4052 52.3556 31.3871 52.4051 31.4021C52.4546 31.417 52.6189 31.3647 52.7622 31.2924C52.9074 31.2139 53.1157 31.1273 53.2236 31.1055C53.4045 31.065 53.4231 31.0706 53.4954 31.2557C53.537 31.3635 53.5456 31.5361 53.5136 31.642C53.4835 31.7417 53.4848 31.8713 53.5149 31.928C53.5388 31.9828 53.684 32.0607 53.8324 32.1056C53.9746 32.1486 54.0996 32.1592 54.1109 32.1218C54.1203 32.0906 54.173 32.0726 54.2225 32.0875C54.272 32.1025 54.3209 32.0969 54.3284 32.072C54.3379 32.0408 54.4279 31.966 54.5347 31.9031C54.6352 31.8383 54.7909 31.7698 54.8826 31.7567C55.0412 31.7231 55.0394 31.7293 54.9347 32.1872C54.8798 32.4358 54.7902 32.844 54.7354 33.0926C54.6552 33.4695 54.6108 33.5717 54.4393 33.7374C54.3274 33.8396 54.2171 34.0035 54.187 34.1032C54.1588 34.1966 54.1601 34.3262 54.1864 34.3954C54.2128 34.4645 54.3354 34.6172 54.4674 34.7387C54.5993 34.8602 54.7432 34.9649 54.7865 34.978C54.8236 34.9892 54.8951 35.0652 54.94 35.14C54.9934 35.231 54.9867 35.3649 54.9222 35.5562C54.8689 35.7101 54.7966 35.8378 54.7495 35.8372C54.7105 35.8322 54.6664 35.8665 54.6532 35.9101C54.6358 35.9456 54.5618 36.0116 54.4911 36.0447C54.4142 36.0758 54.2701 36.1954 54.1749 36.3095C54.0816 36.4172 53.9813 36.5705 53.9568 36.6515C53.9342 36.7263 53.9307 36.8272 53.946 36.8658C53.9595 36.9107 54.1049 37.0771 54.2726 37.2366C54.4385 37.4023 54.6603 37.6734 54.7629 37.8472C54.8656 38.0211 54.978 38.2522 55.0054 38.3625C55.039 38.4747 55.0583 38.5893 55.0489 38.6205V38.6205ZM53.1463 16.1088C52.7943 16.0228 52.6489 16.0129 52.5706 16.0708C52.5104 16.1138 52.3778 16.2845 52.2652 16.4341C52.1568 16.5917 51.9952 16.7468 51.9022 16.7867C51.7831 16.8459 51.7177 16.9281 51.6712 17.1045C51.6378 17.2372 51.6402 17.4079 51.6808 17.4746C51.7195 17.5475 51.7682 17.6098 51.7929 17.6172C51.8257 17.6204 51.8744 17.6827 51.9069 17.7537C51.9609 17.8652 51.9571 17.8777 51.8292 17.8322C51.755 17.8098 51.5711 17.8154 51.4224 17.8384C51.2799 17.8633 51.0809 17.9188 50.9922 17.9668C50.8992 18.0066 50.6908 18.0932 50.5308 18.1537C50.3689 18.2203 50.1667 18.3088 50.078 18.3568C49.9831 18.4029 49.7989 18.4764 49.6631 18.5237C49.5354 18.5667 49.3744 18.586 49.3125 18.5673C49.2569 18.5505 49.1426 18.482 49.0631 18.4103C48.9773 18.3368 48.92 18.2583 48.9276 18.2334C48.937 18.2022 48.8994 18.1704 48.8499 18.1555C48.8004 18.1405 48.6703 18.1692 48.5592 18.224C48.4197 18.2838 48.3444 18.3766 48.3011 18.5199C48.2691 18.6259 48.2656 18.7268 48.3027 18.738C48.3336 18.7474 48.3438 18.8253 48.3174 18.9125C48.2723 19.062 48.2518 19.0626 47.9117 18.9598C47.7219 18.8956 47.4611 18.776 47.3402 18.685C47.2192 18.5941 47.0469 18.4944 46.9479 18.4644C46.8552 18.4364 46.7885 18.389 46.7998 18.3517C46.8092 18.3205 46.7049 18.2414 46.5603 18.1841C46.4237 18.1224 46.1772 18.0002 46.0215 17.9124C45.8616 17.8164 45.4172 17.6345 45.0333 17.498C44.5813 17.341 44.2356 17.2568 44.0616 17.2518C43.9124 17.2543 43.7409 17.2637 43.6839 17.2736C43.6269 17.2836 43.5298 17.2475 43.4731 17.1895C43.4164 17.1316 43.3352 16.9982 43.2935 16.8904C43.25 16.7889 43.1976 16.5826 43.1715 16.4456C43.1463 16.2611 43.1794 16.0399 43.2886 15.6786C43.3809 15.3733 43.4201 15.1539 43.383 15.1427C43.3459 15.1315 43.3363 15.0742 43.3532 15.0181C43.372 14.9558 43.3368 14.782 43.2799 14.6355C43.2291 14.491 43.1358 14.286 43.0842 14.1888C42.9982 14.0268 42.963 14.0093 42.8062 14.0368C42.6656 14.0554 42.6159 14.1084 42.5631 14.2829C42.4991 14.4947 42.4911 14.4991 42.1934 14.4567C42.0189 14.4311 41.8574 14.4299 41.8251 14.4473C41.7866 14.4629 41.7119 14.5763 41.6576 14.6891C41.5914 14.8187 41.5545 15.0523 41.5472 15.3221C41.5512 15.5545 41.5665 15.7495 41.5913 15.757C41.6222 15.7664 41.6238 15.828 41.6031 15.8966C41.5824 15.9651 41.5821 16.033 41.6031 16.053C41.6321 16.0685 41.6662 16.2013 41.6823 16.3489C41.7065 16.4922 41.7183 16.6318 41.7089 16.663C41.6952 16.686 41.5113 16.3788 41.2864 15.9844C41.0614 15.59 40.8461 15.2529 40.8009 15.2461C40.7638 15.2348 40.7342 15.1987 40.7455 15.1613C40.7549 15.1302 40.7334 15.0897 40.7025 15.0803C40.6654 15.0691 40.6256 15.1115 40.6068 15.1738C40.5898 15.2299 40.5078 15.3003 40.4266 15.3233C40.3473 15.3401 40.2653 15.4105 40.2465 15.4728C40.2277 15.5351 40.1932 15.4703 40.1753 15.3289C40.1492 15.1918 40.1212 15.061 40.1022 15.0348C40.0893 15.0105 40.0804 14.9058 40.0815 14.7906C40.0869 14.6834 40.0259 14.461 39.938 14.3052C39.8563 14.1513 39.7571 13.8765 39.7238 13.6964C39.6663 13.3731 39.6719 13.3544 40.2406 11.4727C40.5569 10.426 40.8985 9.40727 40.9934 9.20477C41.0964 8.99792 41.251 8.73187 41.3419 8.60975C41.4328 8.48764 41.5533 8.40166 41.6028 8.41661C41.6522 8.43157 41.7829 8.57986 41.8893 8.74124C42.0124 8.91446 42.1592 9.05403 42.2563 9.09018C42.4232 9.14065 42.4332 9.13006 42.5235 8.83099C42.5951 8.59422 42.6424 8.52693 42.7104 8.5475C42.7785 8.56806 42.7825 8.64408 42.7279 8.82476C42.6865 8.96184 42.5773 9.16682 42.4883 9.28271C42.395 9.3905 42.3108 9.53505 42.292 9.59736C42.275 9.65343 42.2868 9.793 42.3123 9.90952C42.3459 10.0217 42.4115 10.1843 42.4569 10.2796C42.5042 10.3687 42.6378 10.5519 42.7518 10.6884C42.872 10.8267 43.0411 10.9594 43.1338 10.9875C43.2328 11.0174 43.4234 11.0342 43.564 11.0155C43.7721 10.9968 43.8466 10.9513 43.9246 10.8049C43.977 10.6984 44.033 10.4909 44.0497 10.3464C44.0663 10.2018 44.0747 9.97313 44.061 9.83979C44.0473 9.70646 44.0143 9.45847 43.9302 8.97746L44.1423 8.8784C44.2676 8.82108 44.3873 8.78246 44.4244 8.79367C44.4553 8.80302 44.4937 8.78744 44.505 8.75006C44.5145 8.71891 44.5795 8.70458 44.6475 8.72514C44.7156 8.74571 44.7911 8.74135 44.821 8.70957C44.8489 8.68403 44.9672 8.67219 45.0761 8.69151C45.1912 8.7127 45.3942 8.73327 45.5229 8.73141C45.6498 8.73577 45.8988 8.71584 46.0741 8.69404C46.3268 8.66165 46.4417 8.59436 46.6245 8.39125C46.8353 8.16259 46.8595 8.14951 46.8974 8.26976C46.9224 8.36571 46.9953 8.41494 47.1289 8.44174C47.2749 8.47227 47.3598 8.43676 47.4911 8.29284C47.5825 8.19128 47.6922 8.00685 47.7342 7.89034C47.7699 7.77196 47.8654 7.59003 47.9426 7.49096C48.0216 7.38566 48.1203 7.3271 48.1822 7.34579C48.244 7.36449 48.365 7.45546 48.4451 7.54768C48.5332 7.63553 48.5929 7.72837 48.5835 7.75953C48.576 7.78445 48.6383 7.82371 48.7249 7.84988C48.8115 7.87605 48.9602 7.853 49.0588 7.79444C49.1637 7.73774 49.3003 7.64304 49.36 7.57949C49.4259 7.51781 49.5063 7.38572 49.5383 7.2798C49.5816 7.13649 49.6276 7.09599 49.7383 7.10908C49.8244 7.11469 49.9139 7.17576 49.9359 7.23682C49.9642 7.29975 50.0147 7.35583 50.0518 7.36705C50.0827 7.37639 50.2168 7.58014 50.3416 7.81504C50.5112 8.12472 50.5741 8.34092 50.5791 8.61445C50.5845 8.82007 50.617 9.04749 50.6452 9.11042C50.6863 9.19765 50.8167 9.25747 51.0659 9.32602C51.2614 9.37151 51.4378 9.39083 51.4552 9.35532C51.477 9.3279 51.641 9.34348 51.8142 9.39583C52.1376 9.48681 52.1419 9.49491 52.1773 9.75722C52.1935 9.90489 52.17 10.1834 52.1321 10.3759C52.088 10.5666 52.0807 10.8364 52.1086 10.9672C52.1409 11.1062 52.2282 11.2414 52.3073 11.2925C52.3882 11.3373 52.5237 11.3579 52.6092 11.343C52.7009 11.3299 53.0627 11.4053 53.4214 11.5137C53.811 11.6315 54.0631 11.7349 54.0518 11.7723C54.0405 11.8097 54.0806 11.8558 54.1325 11.8851C54.2276 11.9275 54.2258 11.9337 54.0948 12.0097C54.0222 12.0489 53.9276 12.1835 53.8918 12.3019C53.856 12.4203 53.8506 12.5275 53.8877 12.5387C53.9186 12.548 53.9401 12.5885 53.9307 12.6197C53.9194 12.6571 53.9807 12.8116 54.0605 12.9717C54.1423 13.1256 54.2073 13.2677 54.2035 13.2801C54.1979 13.2988 54.0997 13.378 53.983 13.4515C53.8061 13.568 53.7513 13.6602 53.659 13.9655C53.5969 14.1711 53.5573 14.4583 53.5672 14.6041C53.5852 14.7456 53.5656 15.0116 53.5395 15.1873C53.4964 15.4191 53.4346 15.5568 53.3152 15.6839C53.2275 15.773 53.1466 15.8845 53.1372 15.9157C53.1259 15.9531 53.2302 16.0322 53.363 16.1064C53.599 16.2185 53.5786 16.2191 53.1463 16.1088ZM46.8052 33.9658C46.7921 34.0094 46.6813 34.1527 46.5619 34.2798C46.4444 34.4007 46.3102 34.5097 46.2699 34.5315C46.2157 34.5469 46.2104 34.5793 46.254 34.6287C46.3002 34.6767 46.2889 34.7141 46.1908 34.7932C46.1206 34.8468 46.0676 34.9328 46.0668 34.9801C46.0684 35.0418 45.97 35.0325 45.7103 34.954C45.432 34.8698 45.3175 34.8692 45.1538 34.9421C45.0446 34.9907 44.8763 35.1234 44.7811 35.2374C44.6878 35.3452 44.6136 35.4792 44.6251 35.5303C44.643 35.5901 44.6296 35.5974 44.5848 35.5521C44.5571 35.5097 44.4729 35.4979 44.4141 35.5141C44.3552 35.5303 44.3092 35.5708 44.3122 35.6056C44.317 35.6343 44.2576 35.6299 44.1791 35.5994C44.1024 35.5626 44.0269 35.567 44.0175 35.5982C44.0081 35.6293 44.0519 35.663 44.1132 35.6611C44.1807 35.6611 44.1627 35.6761 44.0691 35.6954C43.9817 35.7165 43.8973 35.7726 43.8841 35.8162C43.8728 35.8536 43.901 35.9165 43.9448 35.9502C43.9887 35.9838 44.0188 36.0405 44.0094 36.0717C43.9999 36.1028 43.9653 36.106 43.9295 36.068C43.8942 36.021 43.8735 36.0374 43.8674 36.1172C43.8609 36.1832 43.8848 36.2381 43.9219 36.2493C43.9547 36.2524 43.9948 36.2985 44.0045 36.3558C44.016 36.4069 44.0201 36.4829 44.0106 36.5141C44.0012 36.5452 43.9741 36.5234 43.9582 36.4642C43.9424 36.405 43.919 36.3708 43.9096 36.4019C43.902 36.4268 43.8956 36.4929 43.8991 36.5483C43.9007 36.61 43.9383 36.6418 43.9891 36.63C44.0527 36.6129 44.0599 36.6264 44.0106 36.6705C43.9746 36.7004 43.9439 36.7795 43.9474 36.835C43.949 36.8966 43.9867 36.9284 44.0375 36.9166C44.1011 36.8996 44.1083 36.9131 44.059 36.9571C44.0229 36.987 43.9952 37.101 44.0022 37.2119C44.0049 37.3147 44.0866 37.4686 44.1791 37.5646C44.2734 37.6543 44.3793 37.7951 44.4162 37.8743C44.453 37.9534 44.4602 38.1528 44.4341 38.3285C44.4037 38.4961 44.3704 38.6288 44.3518 38.6232C44.3333 38.6176 44.2642 38.5559 44.1889 38.4923C44.1155 38.4225 44.0625 38.3521 44.0682 38.3334C44.0738 38.3148 44.0018 38.2182 43.8988 38.1122C43.8021 38.0082 43.7257 37.9035 43.7333 37.8786C43.7427 37.8474 43.7112 37.8175 43.6679 37.8044C43.6308 37.7932 43.5193 37.6711 43.4338 37.5297C43.3464 37.3944 43.2034 37.2424 43.1101 37.1938C43.023 37.1471 42.962 37.081 42.9714 37.0499C42.9808 37.0187 42.9222 36.967 42.8357 36.9408C42.7491 36.9147 42.6744 36.8717 42.6695 36.843C42.6666 36.8081 42.548 36.7315 42.4071 36.6617C42.1835 36.5533 42.116 36.5533 41.928 36.6392C41.8108 36.6922 41.7129 36.7034 41.7038 36.6666C41.6947 36.6299 41.5866 36.5632 41.4567 36.524C41.2341 36.4567 41.2261 36.461 41.1341 36.6984C41.0865 36.8336 41.0674 36.9638 41.0988 36.9937C41.1241 37.0218 41.1362 37.0934 41.1174 37.1557C41.1066 37.2137 40.9918 37.281 40.8716 37.299C40.7514 37.3171 40.6385 37.3782 40.6172 37.4261C40.596 37.4741 40.5626 37.6068 40.5387 37.7084C40.5191 37.818 40.5099 37.9377 40.5314 37.9782C40.5467 38.0168 40.5467 38.1732 40.4918 38.5782L40.2953 38.4916C40.1816 38.4436 40.0114 38.4261 39.8936 38.4585C39.7839 38.4866 39.6833 38.5514 39.6683 38.6012C39.6532 38.651 39.6277 38.6909 39.6091 38.6853C39.5906 38.6797 39.486 38.5121 39.3661 38.3059C39.2505 38.1077 39.1016 37.8859 39.0282 37.8161C38.9548 37.7463 38.8914 37.6659 38.8785 37.6416C38.8656 37.6173 38.8065 37.5451 38.7393 37.4771C38.6763 37.4173 38.5868 37.3563 38.5435 37.3432C38.5083 37.3257 38.3935 37.393 38.304 37.4883C38.1964 37.5986 38.1437 37.6167 38.1625 37.5544C38.1814 37.4921 38.1402 37.4049 38.0655 37.3619C37.9698 37.2989 37.8682 37.3226 37.6001 37.4727C37.4127 37.5793 37.2406 37.7245 37.2199 37.793C37.1992 37.8615 37.229 37.9861 37.2844 38.0709C37.3884 38.2179 37.3884 38.2179 37.1852 38.1089C37.0338 38.0291 36.9416 38.0216 36.8244 38.0746C36.7375 38.1163 36.6353 38.1195 36.5977 38.0877C36.5663 38.0578 36.5012 38.0721 36.4576 38.1269C36.406 38.1861 36.4114 38.079 36.4582 37.8347C36.5365 37.464 36.5298 37.4416 36.3343 37.2397C36.2209 37.1238 36.0666 37.0091 35.9862 36.9848C35.9139 36.9562 35.8615 36.9063 35.8709 36.8752C35.8803 36.844 35.8031 36.7867 35.7042 36.7568C35.6053 36.7269 35.4622 36.7312 35.3977 36.7661C35.3332 36.801 35.2503 36.9188 35.2202 37.0184C35.1882 37.1244 35.1885 37.2128 35.2256 37.2241C35.2565 37.2334 35.2648 37.3175 35.2347 37.4172C35.2064 37.5107 35.2086 37.7493 35.2443 37.9437C35.2781 38.1443 35.2811 38.3356 35.2493 38.3736C35.2195 38.4054 35.1649 38.4297 35.134 38.4203C35.0969 38.4091 35.0353 38.3225 34.9899 38.2272C34.9249 38.0851 34.9359 37.9593 35.0225 37.6727C35.0865 37.4608 35.1199 37.1717 35.1051 36.9973C35.0928 36.8371 35.0624 36.6919 35.0296 36.6888C35.0049 36.6814 34.9977 36.6384 35.0089 36.601C35.0221 36.5574 34.9904 36.439 34.9345 36.3337C34.8848 36.2302 34.7657 36.133 34.6668 36.1031C34.574 36.0751 34.4968 36.0178 34.4877 35.981C34.4786 35.9442 34.42 35.8925 34.352 35.872C34.2839 35.8514 34.2377 35.8034 34.2471 35.7723C34.2565 35.7411 34.2227 35.6969 34.1732 35.6819C34.1237 35.667 34.0861 35.6352 34.0936 35.6103C34.103 35.5791 34.0087 35.4894 33.8839 35.4109C33.7611 35.3261 33.6301 35.2457 33.5992 35.2364C33.5621 35.2252 33.3874 35.2675 33.2027 35.3205C33.0161 35.3797 32.837 35.4139 32.8061 35.4046C32.769 35.3934 32.7386 35.4046 32.7292 35.4358C32.7216 35.4607 32.6125 35.5093 32.4823 35.5379C32.3503 35.5728 32.2226 35.6158 32.1947 35.6413C32.1667 35.6669 32.082 35.6345 31.9944 35.5672C31.8901 35.4881 31.6984 35.4301 31.3432 35.3771C31.0703 35.3422 30.7243 35.326 30.5756 35.3491C30.3966 35.3833 30.2172 35.4855 30.0258 35.6724C29.8741 35.817 29.634 36.098 29.2597 36.6444L29.1551 36.4768C29.1016 36.3858 29.0258 36.3017 28.9949 36.2923C28.9559 36.2873 28.8914 36.1658 28.8387 36.0275C28.786 35.8892 28.7274 35.6811 28.7081 35.5664C28.6815 35.4088 28.7396 35.1272 28.9448 34.448C29.1017 33.9515 29.3346 33.3147 29.4664 33.0349C29.6213 32.701 29.82 32.4007 30.0488 32.1571C30.2379 31.9558 30.4003 31.7533 30.4097 31.7222C30.4191 31.691 30.6259 31.5427 30.8759 31.4075C31.1217 31.2642 31.35 31.1565 31.3871 31.1677C31.418 31.177 31.479 31.2431 31.5115 31.3141C31.5717 31.4275 31.5779 31.4294 31.6043 31.3421C31.6212 31.2861 31.6476 31.0424 31.6678 30.797C31.6837 30.5434 31.7125 30.1577 31.7271 29.9309C31.7435 29.6979 31.7774 29.4293 31.8094 29.3234C31.8396 29.2237 31.9337 29.0686 32.0152 28.9776C32.1128 28.8779 32.323 28.7851 32.6018 28.7334C32.9618 28.6586 33.1052 28.5863 33.3891 28.339C33.5749 28.1708 33.8659 27.8779 34.0264 27.6817C34.2348 27.4387 34.3601 27.225 34.4317 26.9882C34.4881 26.8013 34.5395 26.4972 34.539 26.3203C34.5385 25.9869 34.5385 25.9869 34.7507 25.8879C34.9064 25.8194 35.0432 25.8131 35.2287 25.8692C35.3771 25.9141 35.7242 25.9714 35.999 26.0001C36.2799 26.0306 36.5727 26.0443 36.652 26.0275C36.7295 26.0169 36.9177 25.863 37.0688 25.6979C37.2815 25.463 37.4323 25.3659 37.6983 25.2898C37.8892 25.2388 38.0752 25.159 38.1051 25.1272C38.1368 25.0892 38.1578 24.9528 38.1589 24.8375C38.1557 24.7141 38.1874 24.5197 38.2194 24.4138C38.2646 24.2643 38.3722 24.154 38.6136 24.0026C38.9376 23.8014 38.9495 23.7846 38.9885 23.4768C39.0305 23.2039 39.0635 23.1391 39.2007 23.0649C39.3378 22.9908 39.43 22.9983 39.7478 23.1079C40.0965 23.2269 40.1236 23.2488 40.0841 23.3796C40.0615 23.4544 40.0505 23.5802 40.0669 23.66C40.0771 23.7379 40.1496 23.855 40.2268 23.9123C40.3187 23.9877 40.4733 24.0345 40.7048 24.05C40.8935 24.0731 41.1436 24.0943 41.2482 24.1055C41.3546 24.1105 41.5033 24.0875 41.5716 24.0401C41.638 23.999 41.7918 23.9367 41.9158 23.9062C42.0354 23.8675 42.1029 23.8675 42.0688 23.8912C42.0327 23.9211 42.0736 24.0763 42.1515 24.2426C42.2313 24.4028 42.3502 24.5679 42.4125 24.6071C42.4749 24.6464 42.5155 24.7131 42.5023 24.7567C42.491 24.7941 42.4905 24.9299 42.5098 25.0445C42.5273 25.1654 42.5719 25.3081 42.6143 25.3685C42.6759 25.4551 42.8014 25.4863 43.2588 25.5362C43.6505 25.5798 43.8753 25.5729 43.9616 25.5106C44.0299 25.4633 44.0987 25.4365 44.1135 25.4546C44.1264 25.4789 44.2011 25.5219 44.282 25.5667C44.3648 25.6054 44.4826 25.7294 44.5571 25.8403C44.6253 25.9493 44.6713 26.0652 44.6638 26.0901C44.6543 26.1213 44.6788 26.1967 44.7132 26.2615C44.7519 26.3344 44.8452 26.383 44.9578 26.3898C45.0624 26.4011 45.1162 26.4241 45.0759 26.4459C45.0436 26.4634 45.0691 26.5799 45.1318 26.7076C45.2024 26.831 45.2912 26.9394 45.3283 26.9506C45.3715 26.9637 45.399 27.074 45.3836 27.1917C45.3763 27.3051 45.3158 27.5724 45.2537 27.778C45.1915 27.9837 44.9842 28.5806 44.7994 29.1027C44.5401 29.8267 44.4527 30.1606 44.4185 30.4971C44.3859 30.8952 44.3975 30.9463 44.5365 31.0223C44.6297 31.071 44.7854 31.1588 44.8849 31.2093C44.9905 31.2616 45.1427 31.294 45.222 31.2772C45.3013 31.2604 45.5285 31.2679 45.7234 31.2928C46.07 31.3296 46.0867 31.3414 46.1842 31.5545C46.2407 31.6804 46.3299 31.8094 46.378 31.8511C46.4614 31.9103 46.4554 31.9969 46.3651 32.296C46.3029 32.5016 46.2706 32.6754 46.2954 32.6829C46.3263 32.6922 46.3873 32.7583 46.4365 32.8412C46.4857 32.924 46.555 33.0742 46.5782 33.1764C46.6074 33.2804 46.626 33.4424 46.6144 33.5477C46.6109 33.6487 46.6587 33.7583 46.7192 33.8038C46.7816 33.8431 46.8203 33.916 46.8052 33.9658ZM44.7335 38.9902C44.7174 38.9989 44.6279 38.9378 44.5279 38.8668C44.4298 38.7895 44.3787 38.7129 44.4128 38.6892C44.4451 38.6718 44.5083 38.6637 44.5516 38.6768C44.5887 38.688 44.6559 38.7559 44.6927 38.835C44.7295 38.9142 44.7497 38.9815 44.7335 38.9902ZM40.4744 43.7272C40.443 43.8537 40.3626 43.9858 40.3061 44.0163C40.2539 44.055 40.0972 44.0824 39.9684 44.0842C39.8173 44.093 39.667 44.0543 39.5589 43.9876C39.4632 43.9247 39.3495 43.8767 39.3025 43.8761C39.2554 43.8755 39.2414 43.8101 39.2697 43.7166C39.3055 43.5982 39.3979 43.5378 39.6254 43.4774C39.8021 43.4288 39.9559 43.3665 39.9696 43.3434C39.9913 43.316 40.0483 43.306 40.0978 43.321C40.1473 43.3359 40.1981 43.3241 40.2094 43.2867C40.2188 43.2556 40.2981 43.2387 40.3804 43.2568C40.4688 43.2768 40.5398 43.3322 40.5352 43.392C40.5406 43.4412 40.514 43.5964 40.4744 43.7272ZM37.7209 49.1098C37.6596 49.1117 37.4612 49.0313 37.2888 48.9316C36.9942 48.7677 36.9428 48.759 36.6293 48.8138C36.446 48.84 36.2898 48.888 36.2803 48.9191C36.2728 48.9441 36.2362 48.9534 36.2053 48.9441C36.1682 48.9328 36.0889 48.9497 36.0201 48.9764C35.9593 48.9989 35.834 49.0562 35.7472 49.0979C35.6523 49.144 35.5987 49.2095 35.6071 49.2936C35.6087 49.3553 35.5812 49.5578 35.5427 49.7297C35.5024 49.9079 35.4349 50.0643 35.3865 50.0905C35.3443 50.1185 35.2889 50.1902 35.2682 50.2587C35.2475 50.3272 35.273 50.4437 35.3259 50.5142C35.3789 50.5846 35.4157 50.6637 35.4063 50.6948C35.3988 50.7198 35.3367 50.769 35.2721 50.8039C35.2076 50.8388 35.0955 50.8525 35.0275 50.8319C34.9594 50.8113 34.9089 50.7553 34.9078 50.7141C34.9081 50.6462 34.8815 50.645 34.7928 50.693C34.7282 50.7278 34.5898 50.8288 34.4916 50.9079C34.3854 50.9914 34.2424 51.1521 34.1595 51.2699C34.0374 51.4506 34.0132 51.4637 33.9554 51.3646C33.921 51.2998 33.9004 51.2119 33.9116 51.1746C33.9229 51.1372 33.8168 50.9079 33.6754 50.6611C33.5125 50.3739 33.369 50.2013 33.2719 50.1652C33.1853 50.139 33.0807 50.1278 33.0404 50.1496C32.9958 50.1633 32.8409 50.1845 32.6917 50.1869C32.5282 50.1919 32.3185 50.1489 32.1653 50.0754C31.9397 49.9732 31.8989 49.9745 31.7343 50.0947C31.638 50.1676 31.4732 50.3558 31.3729 50.509C31.2707 50.6685 31.1696 50.8692 31.1395 50.9688C31.1112 51.0623 31.0577 51.1277 31.0268 51.1184C30.9897 51.1072 30.9311 51.2118 30.8896 51.3489C30.8482 51.486 30.8329 51.6037 30.8576 51.6112C30.8885 51.6206 30.8877 51.8243 30.8613 52.0679C30.8392 52.3197 30.8249 52.6349 30.8349 52.7807C30.8467 52.9203 30.8765 53.0449 30.9136 53.0561C30.9445 53.0655 30.9623 53.1184 30.9472 53.1683C30.9321 53.2181 30.8515 53.2617 30.7654 53.2561C30.6856 53.2524 30.5229 53.21 30.4092 53.162C30.2294 53.0873 30.206 53.053 30.2149 52.8449C30.2197 52.7172 30.2472 52.5147 30.2606 52.4031C30.2822 52.2872 30.2709 52.1682 30.2456 52.1402C30.2142 52.1103 30.2271 51.9782 30.2685 51.8411C30.3099 51.704 30.3129 51.5825 30.282 51.5732C30.2449 51.562 30.2446 51.4735 30.2766 51.3676C30.3068 51.2679 30.3057 50.914 30.2768 50.5856C30.2478 50.2573 30.2018 49.985 30.1709 49.9756C30.1462 49.9682 30.115 49.8703 30.1037 49.7513C30.0967 49.6404 30.0231 49.4822 29.9392 49.4024C29.8029 49.2728 29.8062 49.2398 29.9399 48.641C30.0125 48.289 30.3272 47.1805 31.1877 44.3331L31.5789 44.0434C31.7956 43.8846 31.9814 43.7163 31.9927 43.6789C32.0059 43.6353 32.0667 43.6129 32.1223 43.6297C32.1842 43.6484 32.3173 43.6547 32.4232 43.6391C32.5353 43.6254 32.6321 43.573 32.6434 43.5357C32.6566 43.4921 32.805 43.3805 32.9701 43.2808C33.1395 43.1893 33.3844 43.0933 33.5065 43.069C33.6347 43.0466 33.8211 43.0553 33.9262 43.0871C34.0251 43.117 34.106 43.1619 34.0966 43.193C34.0891 43.218 34.1251 43.3444 34.1815 43.4703C34.2361 43.6024 34.2716 43.8647 34.2584 44.0647C34.2409 44.2566 34.2476 44.4354 34.2685 44.4554C34.2957 44.4772 34.2935 44.5513 34.2728 44.6199C34.2521 44.6884 34.2599 44.752 34.297 44.7632C34.3279 44.7725 34.3494 44.813 34.34 44.8442C34.3287 44.8816 34.3596 45.0473 34.4072 45.2249C34.4628 45.3981 34.527 45.5875 34.5509 45.6423C34.5829 45.6928 34.6042 45.8012 34.602 45.8754C34.5998 45.9495 34.62 46.0168 34.6571 46.028C34.688 46.0374 34.7057 46.0903 34.6907 46.1402C34.6756 46.19 34.681 46.2392 34.7057 46.2467C34.7366 46.2561 34.7697 46.3477 34.7847 46.4542C34.7979 46.567 34.8412 46.7365 34.8766 46.8424C34.9403 47.0112 34.957 47.0231 35.0619 46.9664C35.1264 46.9315 35.2003 46.8654 35.2339 46.8212C35.2694 46.7707 35.3237 46.8144 35.4283 46.982C35.5095 47.1153 35.5993 47.2649 35.6331 47.3091C35.6651 47.3596 35.7576 47.4555 35.8372 47.5272C35.9248 47.5945 36.0525 47.7079 36.134 47.7733C36.2197 47.8468 36.3345 47.9359 36.395 47.9814C36.4536 48.0331 36.7265 48.2244 37.0074 48.4114C37.2803 48.6026 37.5098 48.7809 37.5085 48.8076C37.5133 48.8363 37.5553 48.8762 37.6047 48.8911C37.6542 48.9061 37.7252 48.9616 37.7634 49.0139C37.8206 49.0924 37.8168 49.1049 37.7209 49.1098ZM33.9976 41.5107C33.9412 41.6977 33.8594 41.8565 33.8228 41.8659C33.7801 41.8734 33.7384 41.922 33.7233 41.9718C33.7083 42.0216 33.6107 42.1213 33.5039 42.1843C33.4034 42.2491 33.2539 42.3195 33.1746 42.3363C33.0952 42.3531 32.9275 42.35 32.7981 42.3313C32.6688 42.3126 32.5742 42.2908 32.5922 42.2758C32.6102 42.2609 32.5635 42.1923 32.4944 42.1306C32.421 42.0608 32.321 41.9898 32.2715 41.9749C32.222 41.9599 32.1589 41.8116 32.1342 41.6477C32.1113 41.4776 32.1103 41.2801 32.1329 41.2054C32.1574 41.1244 32.3359 40.9132 32.5274 40.7262C32.753 40.5156 32.9621 40.3817 33.0966 40.3611C33.2106 40.3412 33.3966 40.2615 33.5029 40.178C33.6152 40.0963 33.7467 40.0409 33.7962 40.0559C33.8457 40.0708 33.8965 40.059 33.9078 40.0216C33.9172 39.9904 33.9761 39.9742 34.0317 39.9911C34.0936 40.0098 34.1707 40.0671 34.1946 40.1219C34.2309 40.1805 34.2016 40.3892 34.1244 40.6447C34.0547 40.8752 34.0173 41.0883 34.0488 41.1182C34.0722 41.1525 34.0522 41.33 33.9976 41.5107ZM38.3814 1.32283C38.3701 1.36022 38.3008 1.36645 38.2204 1.34214C38.1462 1.31971 38.0459 1.31659 38.0056 1.3384C37.959 1.35833 37.8593 1.37578 37.7733 1.37017C37.6668 1.36518 37.6335 1.3415 37.6542 1.27296C37.6711 1.21689 37.7381 1.19633 37.837 1.22624C37.9236 1.25241 37.9991 1.24805 38.0104 1.21067C38.0198 1.17951 38.1158 1.17453 38.2148 1.20444C38.3137 1.23436 38.3908 1.29168 38.3814 1.32283ZM22.5101 31.8023C22.3828 32.1786 22.2309 32.5474 22.1693 32.6172C22.1034 32.6789 22.0314 32.7387 22.0072 32.7518C21.9768 32.763 21.8886 32.8315 21.7966 32.9125C21.7127 32.9892 21.6275 33.0926 21.6124 33.1424C21.5974 33.1923 21.5533 33.2266 21.5223 33.2172C21.4914 33.2079 21.4511 33.2297 21.4417 33.2608C21.4304 33.2982 21.3209 33.4147 21.1929 33.5256C21.0631 33.6428 20.9722 33.7649 20.9837 33.816C21.0004 33.8799 20.987 33.8872 20.9434 33.8378C20.9138 33.8016 20.8786 33.7842 20.873 33.8029C20.8673 33.8216 20.8299 33.8783 20.7864 33.9331C20.7329 33.9985 20.7334 34.0191 20.7985 34.0047C20.858 33.9865 20.868 34.0054 20.8286 34.0614C20.795 34.1057 20.7404 34.13 20.7113 34.1144C20.678 34.0907 20.4922 34.2589 20.3037 34.4808C20.109 34.7007 19.8998 34.991 19.8337 35.1206C19.7737 35.2521 19.6653 35.4097 19.6037 35.4795C19.5379 35.5412 19.4553 35.591 19.4244 35.5817C19.3935 35.5723 19.1964 35.6216 18.9837 35.7001C18.7791 35.7742 18.4659 35.9175 18.2884 36.0134C18.1171 36.1112 17.8012 36.3081 17.5839 36.4464C17.3729 36.5866 17.1072 36.7511 16.9943 36.8122C16.8813 36.8732 16.7305 36.9704 16.5243 37.1393L16.4111 36.9554C16.349 36.8483 16.1888 36.6638 16.0444 36.5386C15.9062 36.4152 15.7581 36.3024 15.7148 36.2894C15.6777 36.2781 15.5172 36.318 15.3734 36.3697C15.2276 36.4277 15.0881 36.4875 15.0639 36.5006C15.0397 36.5136 14.9101 36.5629 14.7762 36.604C14.5754 36.6657 14.5221 36.6632 14.4544 36.5747C14.4057 36.5124 14.3418 36.4114 14.316 36.3628C14.2858 36.3061 14.1982 36.2388 14.1178 36.2145C14.0436 36.1921 13.8465 36.2413 13.6809 36.3204C13.4247 36.4538 13.3776 36.4531 13.2851 36.3572C13.2303 36.293 13.1897 36.2263 13.1954 36.2076C13.201 36.189 13.1502 36.0444 13.0766 35.8861C13.0029 35.7279 12.9051 35.5827 12.8637 35.5634C12.8266 35.5522 12.7951 35.5223 12.8027 35.4973C12.8121 35.4662 12.761 35.3895 12.6857 35.326C12.6123 35.2562 12.4567 35.1683 12.3392 35.1328C12.2217 35.0973 12.0515 35.0798 11.958 35.0992C11.8725 35.1141 11.7429 35.1633 11.6746 35.2107C11.6063 35.258 11.5294 35.2892 11.4966 35.2861C11.4718 35.2786 11.4213 35.2225 11.3869 35.1577C11.3525 35.0929 11.3412 34.9739 11.3657 34.8929C11.3902 34.8119 11.387 34.6885 11.3606 34.6194C11.3362 34.544 11.2813 34.4798 11.2399 34.4605C11.2028 34.4493 11.1714 34.4194 11.1789 34.3944C11.1883 34.3633 11.0886 34.2243 10.9536 34.0679C10.823 33.9196 10.6598 33.7003 10.5934 33.585C10.527 33.4698 10.4848 33.3414 10.4961 33.304C10.5112 33.2542 10.4341 33.1969 10.3042 33.1576C10.094 33.094 10.0897 33.0859 10.1631 32.843C10.2045 32.7059 10.2239 32.5077 10.215 32.4031C10.2019 32.2903 10.1444 32.1233 10.0928 32.0261C10.0067 31.8641 9.93201 31.8211 8.94264 31.522L9.0029 31.3226C9.03679 31.2105 9.04057 31.0416 9.0137 30.9519C8.96909 30.8092 8.9086 30.7637 8.25315 30.5656L8.37663 30.0453C8.46621 29.6372 8.47753 29.4434 8.41976 29.188C8.38026 29.006 8.29076 28.7886 8.21495 28.7044C8.14291 28.6079 7.97059 28.5082 7.80981 28.4596C7.55011 28.3811 7.53532 28.363 7.61008 28.2496C7.65929 28.1761 7.72491 28.0259 7.76687 27.9094C7.8126 27.7804 7.80562 27.6695 7.75938 27.6215C7.71744 27.5817 7.61126 27.5087 7.51797 27.4601C7.42038 27.4034 7.37361 27.3349 7.39432 27.2664C7.41315 27.2041 7.47849 27.1218 7.53872 27.0788C7.59895 27.0358 7.7186 26.9972 7.8127 26.9985C7.9681 26.9978 7.98181 26.9748 8.01626 26.7268C8.03913 26.5841 8.08002 26.4265 8.10368 26.3928C8.12923 26.353 8.22092 26.3399 8.30749 26.3661C8.39406 26.3922 8.56506 26.3623 8.69842 26.3007C8.82748 26.2309 8.94175 26.143 8.95924 26.1075C8.97242 26.0639 8.96088 25.8564 8.92703 25.6558C8.89507 25.4489 8.876 25.2664 8.88165 25.2477C8.8873 25.229 9.02361 25.2022 9.18897 25.191C9.35002 25.1717 9.61404 25.1019 9.77161 25.0271C9.92917 24.9524 10.0738 24.8533 10.0913 24.8178C10.1045 24.7742 10.1467 24.7461 10.1776 24.7555C10.2085 24.7648 10.2526 24.7306 10.2677 24.6807C10.2828 24.6309 10.3747 24.5499 10.4696 24.5038C10.5688 24.4658 10.7667 24.3692 10.9039 24.2951C11.0453 24.229 11.1832 24.1075 11.2058 24.0328C11.2365 23.9536 11.1817 23.7331 11.0989 23.538C11.0161 23.343 10.9465 23.1044 10.9562 23.0053C10.9616 22.8982 10.9347 22.8084 10.9038 22.7991C10.8729 22.7897 10.8551 22.7368 10.8702 22.6869C10.8853 22.6371 10.8675 22.5841 10.8366 22.5748C10.8057 22.5654 10.788 22.5125 10.803 22.4626C10.8181 22.4128 10.7213 22.1523 10.5856 21.8869C10.456 21.6233 10.2915 21.2744 10.2284 21.1261C10.1671 20.9716 10.0695 20.7585 10.0136 20.6532C9.96391 20.5498 9.94349 20.394 9.96985 20.3068C9.99621 20.2195 10.0355 20.1566 10.0602 20.1641C10.093 20.1672 10.1355 20.2276 10.1556 20.2949C10.1839 20.3579 10.2425 20.4096 10.279 20.4002C10.3156 20.3909 10.3409 20.4189 10.3314 20.4501C10.3202 20.4875 10.3677 20.5087 10.429 20.5068C10.517 20.5062 10.6352 20.6507 10.8239 20.9866C10.9739 21.2495 11.1301 21.5143 11.1726 21.5748C11.2107 21.6271 11.3293 21.7037 11.4282 21.7336C11.5272 21.7636 11.7877 21.7947 11.9963 21.7966C12.2092 21.8066 12.4792 21.8066 12.5894 21.7991C12.6996 21.7916 12.8997 21.7773 13.018 21.7655C13.2137 21.7431 13.2578 21.7088 13.3086 21.5406C13.3425 21.4284 13.4243 21.2695 13.4958 21.1892C13.5692 21.1026 13.6475 21.0446 13.6722 21.0521C13.7031 21.0614 13.7518 21.1237 13.7862 21.1885C13.8206 21.2533 13.915 21.3431 13.9959 21.3879C14.0953 21.4384 14.1894 21.4397 14.2838 21.373C14.3645 21.3294 14.468 21.2995 14.507 21.3045C14.5503 21.3176 14.603 21.2995 14.6186 21.2702C14.6422 21.2366 14.7277 21.2216 14.82 21.2291C14.9122 21.2366 14.9958 21.2278 15.0157 21.2067C15.0313 21.1774 15.1445 21.2048 15.2706 21.2565C15.4028 21.3101 15.5725 21.4634 15.6808 21.6185C15.7848 21.7656 15.8703 21.907 15.8671 21.94C15.8719 21.9687 15.9961 22.0267 16.1507 22.0734C16.3053 22.1201 16.4365 22.1326 16.4478 22.0952C16.4572 22.0641 16.5099 22.046 16.5594 22.0609C16.6088 22.0759 16.7508 22.0304 16.8737 21.9588C17.0027 21.889 17.2684 21.7245 17.4776 21.5906C17.6849 21.4628 17.889 21.3681 17.9242 21.3856C17.9675 21.3987 18.0796 21.385 18.1688 21.3576C18.2885 21.3189 18.3788 21.3326 18.4788 21.4037C18.556 21.461 18.7654 21.5719 18.9434 21.6529C19.1214 21.7339 19.4117 21.8897 19.5822 21.9956C19.7545 22.0953 20.2118 22.3016 20.5957 22.4381C20.9796 22.5745 21.3313 22.7284 21.3732 22.7683C21.4151 22.8082 21.4939 23.0836 21.5422 23.3702C21.5887 23.663 21.6787 24.0575 21.7268 24.2556C21.8099 24.5391 21.8991 24.6681 22.1754 24.9148C22.366 25.088 22.5725 25.3204 22.6289 25.4463C22.6873 25.5659 22.7684 25.8557 22.8114 26.0931C22.8482 26.3286 22.9804 26.695 23.0966 26.9137C23.2379 27.1604 23.3051 27.3847 23.2952 27.5517C23.2946 27.6875 23.276 27.9947 23.2577 28.234C23.2367 28.5268 23.1799 28.7816 23.0756 29.0153C22.9519 29.2907 22.9379 29.3816 22.9989 29.4477C23.0537 29.5119 23.0395 29.6707 22.937 30.0546C22.8565 30.343 22.7839 30.6951 22.7672 30.8396C22.7567 30.986 22.6392 31.4197 22.5101 31.8023ZM25.2272 5.52621C25.2258 5.55301 25.1831 5.56048 25.1398 5.54739C25.1008 5.54241 24.939 5.60907 24.79 5.70003C24.5504 5.8452 24.505 5.90626 24.4345 6.18415C24.388 6.36047 24.3352 6.53493 24.3159 6.57668C24.3046 6.61406 24.2191 6.62901 24.1325 6.60284C24.046 6.57667 23.9209 6.56607 23.8516 6.5723C23.7865 6.58663 23.6298 6.61404 23.5139 6.6402C23.398 6.66637 23.2523 6.72431 23.2044 6.77104C23.1546 6.82399 23.0603 6.89066 23.0038 6.92119C22.9535 6.95358 22.9127 6.95483 22.924 6.91745C22.9334 6.88629 22.8315 6.82149 22.6954 6.78036C22.5594 6.73923 22.4387 6.73674 22.4293 6.76789C22.418 6.80527 22.3672 6.81711 22.3177 6.80216C22.2682 6.7872 22.2155 6.80527 22.2061 6.83642C22.1948 6.8738 22.1378 6.88377 22.076 6.86508C22.0203 6.84825 21.9507 6.766 21.9281 6.68438C21.8983 6.55977 21.8174 6.5149 21.3945 6.37345C20.9735 6.22577 20.8864 6.17903 20.8627 6.05629C20.8445 5.98276 20.8047 5.86874 20.7746 5.81204C20.7507 5.75721 20.7125 5.70487 20.6939 5.69926C20.6754 5.69365 20.631 5.63944 20.5966 5.57464C20.5622 5.50984 20.5472 5.4033 20.566 5.34099C20.5848 5.27868 20.565 5.14348 20.5233 5.03568C20.4816 4.92789 20.4674 4.77399 20.4938 4.68676C20.5201 4.59954 20.5339 4.42009 20.5202 4.28675C20.5127 4.15528 20.4944 3.92537 20.4764 3.78393C20.4541 3.6344 20.4673 3.43439 20.4993 3.32847C20.5295 3.22878 20.6454 3.04622 20.7548 2.92971C20.8642 2.8132 20.967 2.67426 20.982 2.62442C20.9971 2.57457 21.099 2.48298 21.2119 2.42193C21.3249 2.36087 21.4445 2.32225 21.4754 2.33159C21.5063 2.34094 21.6945 2.34344 21.8908 2.34158C22.1094 2.33286 22.3164 2.27305 22.4388 2.18084C22.5493 2.10546 22.6512 2.01387 22.6625 1.97649C22.6738 1.9391 23.001 2.01762 23.558 2.20643C24.0366 2.36471 24.4291 2.51737 24.4259 2.5504C24.4288 2.58529 24.4955 2.63265 24.582 2.65882C24.6686 2.68499 24.8229 2.79964 24.924 2.9118C25.0313 3.02582 25.1415 3.17474 25.1678 3.2439C25.196 3.30683 25.2718 3.54734 25.3328 3.76978C25.4427 4.143 25.4425 4.21092 25.3174 4.5131C25.2485 4.69628 25.1536 4.89878 25.1082 4.95984C25.0509 5.03772 25.0573 5.12806 25.1286 5.272C25.1888 5.3854 25.2304 5.49319 25.2272 5.52621ZM21.5439 16.598C21.4823 16.8242 21.3826 16.998 21.1855 17.2037C21.0244 17.3794 20.7071 17.603 20.3944 17.7669C20.029 17.9488 19.804 18.0236 19.6561 17.9993C19.5453 17.9862 19.3523 17.955 19.2353 17.9401C19.0918 17.9239 18.9942 17.8671 18.924 17.7643C18.8686 17.6796 18.8232 17.5843 18.8345 17.5469C18.8439 17.5157 18.7894 17.3836 18.7187 17.2603C18.6136 17.0721 18.5364 17.0148 18.3267 16.9718C18.0818 16.9113 18.067 16.8933 18.0273 16.6228C17.9972 16.4097 18.0246 16.2073 18.1395 15.8272C18.2826 15.3537 18.3337 15.2739 18.6913 14.872C18.914 14.6266 19.1613 14.3885 19.2458 14.3325C19.3283 14.2826 19.5367 14.196 19.7053 14.1518C19.8819 14.1032 20.0653 14.077 20.1148 14.092C20.1642 14.107 20.2212 14.097 20.2349 14.0739C20.2567 14.0465 20.3936 14.0403 20.5414 14.0646C20.8081 14.0976 20.8229 14.1157 20.8845 14.3587C20.9167 14.4977 21.0653 14.7874 21.2137 14.9886C21.3664 15.198 21.5231 15.4834 21.5739 15.6279C21.6185 15.7706 21.6505 15.9775 21.6451 16.0846C21.6378 16.198 21.5886 16.4279 21.5439 16.598ZM10.2352 14.7839C10.1768 14.8206 9.94449 15.0088 9.71835 15.1988C9.49652 15.3969 9.29834 15.5614 9.28651 15.5783C9.27468 15.5951 9.119 15.6636 8.93671 15.7309C8.76248 15.7938 8.60357 15.8954 8.5885 15.9452C8.57344 15.9951 8.52934 16.0293 8.49843 16.02C8.46751 16.0106 8.414 16.0761 8.38387 16.1757C8.34245 16.3128 8.37927 16.392 8.58949 16.6119C8.73438 16.7577 8.90348 16.8904 8.9715 16.911C9.03952 16.9316 9.09436 16.9957 9.09784 17.0512C9.09998 17.1334 9.05293 17.1328 8.87119 17.0643C8.7494 17.0206 8.56364 16.8761 8.45827 16.7558C8.31042 16.5751 8.27683 16.463 8.28117 16.1583C8.28819 15.9564 8.28607 15.7178 8.27156 15.6318C8.26512 15.5415 8.3028 15.2605 8.35768 15.0118C8.41014 14.7489 8.55108 14.3495 8.66726 14.0991C8.78774 13.8567 8.91387 13.5956 8.94883 13.5246C8.99563 13.4367 9.05021 13.4125 9.10639 13.4498C9.1564 13.4854 9.16714 13.5838 9.13137 13.7022C9.09936 13.8081 9.10498 13.9458 9.13939 14.0106C9.17379 14.0754 9.26762 14.1446 9.34182 14.167C9.4222 14.1913 9.52437 14.1882 9.58083 14.1577C9.63918 14.1209 9.71715 14.1309 9.76339 14.1789C9.80533 14.2187 9.82225 14.319 9.79589 14.4063C9.76953 14.4935 9.78215 14.5857 9.81549 14.6094C9.85501 14.6349 9.98674 14.668 10.1099 14.6848C10.2967 14.7141 10.3196 14.7278 10.2352 14.7839ZM3.77467 3.29048C3.71955 3.29421 3.65449 3.30854 3.63029 3.32162C3.60609 3.33471 3.52301 3.36399 3.44369 3.38081C3.36437 3.39763 3.26623 3.47675 3.22938 3.55401C3.17129 3.67925 3.1799 3.69545 3.32105 3.69732C3.40708 3.70293 3.52887 3.74655 3.58936 3.79204C3.6813 3.86744 3.67753 3.8799 3.58478 3.85185C3.52724 3.84126 3.46836 3.85746 3.45895 3.88861C3.44765 3.926 3.27316 3.90044 3.06911 3.83875C2.72283 3.73406 2.68815 3.73718 2.51794 3.87612C2.41792 3.96147 2.31143 4.11288 2.2813 4.21257C2.24929 4.31849 2.19013 4.4026 2.15357 4.41194C2.117 4.42129 2.02206 4.62378 1.81872 5.29669L1.55283 5.21631C1.37162 5.16832 1.24902 5.17206 1.14416 5.22875C1.00138 5.32159 1.00138 5.32159 0.919133 5.14712C0.87559 5.04556 0.833143 4.82873 0.824563 4.65614C0.817331 4.45676 0.912304 3.94148 1.10921 3.17823C1.27035 2.53335 1.43418 1.8349 1.47776 1.62368C1.52969 1.34018 1.57783 1.22554 1.65473 1.19439C1.71119 1.16386 1.87278 1.16511 2.01634 1.18132C2.15803 1.20375 2.35188 1.18756 2.44303 1.15392C2.53606 1.11405 2.62802 1.03305 2.65115 0.978842C2.66998 0.916535 2.71596 0.876037 2.74687 0.885384C2.77779 0.894732 2.82001 0.866696 2.8313 0.829313C2.8383 0.783828 2.90606 0.715915 2.97678 0.682895C3.08971 0.621838 3.09831 0.638039 3.04505 0.791936C3.01681 0.885396 2.9633 0.950814 2.93238 0.941467C2.90146 0.93212 2.84418 1.01 2.81218 1.11592C2.78017 1.22184 2.7858 1.35954 2.8202 1.42434C2.86939 1.50721 2.92316 1.53027 3.02909 1.5147C3.12409 1.49808 3.17562 1.51366 3.18368 1.56143C3.19093 1.60443 3.16485 1.62374 3.13393 1.61439C3.09683 1.60318 3.03498 1.74087 2.98091 1.94212C2.9142 2.20755 2.91633 2.28979 2.9943 2.29976C3.0642 2.3141 3.07388 2.37142 3.02492 2.53342C2.98162 2.67672 2.98564 2.75274 3.03699 2.76146C3.08404 2.76209 3.10554 2.80259 3.08 2.84246C3.05875 2.89044 3.14827 2.9515 3.37948 3.035C3.5631 3.09732 3.75344 3.18206 3.79726 3.21571C3.86635 3.27739 3.86447 3.28363 3.77467 3.29048Z" fill="#FF1979"/>
</svg>